<mxfile host="app.diagrams.net" modified="2023-05-11T13:48:26.700Z" agent="Mozilla/5.0 (Windows NT 10.0; Win64; x64) AppleWebKit/537.36 (KHTML, like Gecko) Chrome/112.0.0.0 Safari/537.36" etag="XhzxLjf0oj0ugoNjO_YH" version="21.2.9" type="device">
  <diagram name="페이지-1" id="owzevc_OnQGYcOpqgvxu">
    <mxGraphModel dx="1050" dy="1718" grid="1" gridSize="10" guides="1" tooltips="1" connect="1" arrows="1" fold="1" page="1" pageScale="1" pageWidth="827" pageHeight="1169" math="0" shadow="0">
      <root>
        <mxCell id="0" />
        <mxCell id="1" parent="0" />
        <mxCell id="JdCS6cSA7xMhqchfe1WI-7" style="edgeStyle=orthogonalEdgeStyle;rounded=0;orthogonalLoop=1;jettySize=auto;html=1;entryX=0.5;entryY=0;entryDx=0;entryDy=0;" edge="1" parent="1" source="JdCS6cSA7xMhqchfe1WI-1" target="JdCS6cSA7xMhqchfe1WI-6">
          <mxGeometry relative="1" as="geometry">
            <mxPoint x="250" y="110" as="targetPoint" />
          </mxGeometry>
        </mxCell>
        <mxCell id="JdCS6cSA7xMhqchfe1WI-1" value="&lt;font style=&quot;font-size: 18px;&quot;&gt;대본 데이터&lt;/font&gt;" style="rounded=0;whiteSpace=wrap;html=1;" vertex="1" parent="1">
          <mxGeometry x="270" y="-20" width="120" height="60" as="geometry" />
        </mxCell>
        <mxCell id="JdCS6cSA7xMhqchfe1WI-16" value="" style="edgeStyle=orthogonalEdgeStyle;rounded=0;orthogonalLoop=1;jettySize=auto;html=1;" edge="1" parent="1" source="JdCS6cSA7xMhqchfe1WI-4" target="JdCS6cSA7xMhqchfe1WI-13">
          <mxGeometry relative="1" as="geometry" />
        </mxCell>
        <mxCell id="JdCS6cSA7xMhqchfe1WI-4" value="&lt;font style=&quot;font-size: 18px;&quot;&gt;화자 별 요약 데이터&lt;/font&gt;" style="rounded=0;whiteSpace=wrap;html=1;" vertex="1" parent="1">
          <mxGeometry x="270" y="290" width="120" height="60" as="geometry" />
        </mxCell>
        <mxCell id="JdCS6cSA7xMhqchfe1WI-18" value="" style="edgeStyle=orthogonalEdgeStyle;rounded=0;orthogonalLoop=1;jettySize=auto;html=1;" edge="1" parent="1" source="JdCS6cSA7xMhqchfe1WI-6" target="JdCS6cSA7xMhqchfe1WI-19">
          <mxGeometry relative="1" as="geometry">
            <mxPoint x="492.3600000000001" y="105" as="targetPoint" />
          </mxGeometry>
        </mxCell>
        <mxCell id="JdCS6cSA7xMhqchfe1WI-6" value="" style="shape=image;verticalLabelPosition=bottom;labelBackgroundColor=default;verticalAlign=top;aspect=fixed;imageAspect=0;image=data:image/png,iVBORw0KGgoAAAANSUhEUgAAAM0AAABICAYAAABVwXECAAAgAElEQVR4nOy9WbRlxXnn+fsiYu9z7pB5c4IkgWQSkAkIxJTMEkJMQpIlNMuS5ZbLtuSq6lK13S9dVcurh+Wuh3Z5uZa72pZttWxZtmbJAgkQIAYJEEOCmBGQDElCMuQAOd17zzk7Ir5+iNj77HPuzUGq1aseumOtm3nvOXuIHfsb/98QoqrK/z/+m4+IIgoigqoiIoSgiBVEAdJn+eA0zH+jyf5/fLgDfx3Tj5r0A0SNGJv4LATBIJBfZhQgQG+2x2C2IlYDelgYABUgikRgjE+jEUBan+jY32lI892h8rmOXUWILUpbeIf9XXl4HdN8ogu+q0fEEFufLnYfaSj/QDNY7Mz2MeNrNnaUAiLNN3Z/l/p1xKb8eqcd6oiLCISaSqR14yAMhUkhTBrf/N6dmKKYKihKC6LEes5RMCaiMWJkSNsA1OcfgDXkoJomAiYzDxCjQTGgEWsVDcpgLrD14Vme/PmjvPTEgLJygBLF4iWCemwmN4sSaS+48P/u8v9qw48RsyELhjwCEZyMn8TYSfund8Aq2Gj4r1UVokI4wH3yUf9V9wAO4R5QqBm5Uxh7ywZLJCyYl22xsqoHaRGrji/sgYeiVJMBeg7UU6jFm3mmV3c5/dKTWXfxaiaWW0wBMTOFRsWa1ryiG3LnfsbBmYZAxBIBQbH1g/cdu3bMcstfb2T7c31sLPECpRpgwEDmEYRCSwZSHvSBrVYLCLY9SgSjxQGvoVIREJymBQkyrmcUM/a09TH1ywsjLzbr2rEFtFqNXXd0XlE4wJOkUepgdB4HIe7F1saNMJ1BsChDIrcKhooBsTl2wXXqSxxgwu37mEU06/7mb1tME5EFOtSMfR+MEvMLcv5XEyj1vUQdIEQRvCStFOjjTIk3A4rJgkt/9zROOfMIgkRsGYlYQPJTHtz2PQSmifgsawWQoDArfOsvbmbHswOkmsIplOxk7fodLMEyFQKli3TcAKcDQBGTic8IOsbJAUNVdIZ/N8Se/xdLlLQQyZoQ1AwfKsrQcAMIJksRMfnz4c3aDxvyNVQSKagUWUK2nz5r1mbFBG9rAshmqXH4MZIIzuSvR4kp6OjcRr4Tk59xIQFG46iISJbEkYDakkoPwGzGEigWEHR0Q+me7mdAFY35GeIYSaimhQtZoIwqkfS70SG96fA8CR50odEZfVj4VnxonTs2D9X0E9NNNOqIma8KYoFeSNRqDFXlcX2Y3i3oWxWun4T3QOaYWFNx9W9u4OjT1yClNILRZPVwIFVzEKZRQlSMqecnvPDz7dz1TxvZ95ZlSgNHL9/L6uU7mZnwGDtopIdiUFFEdGi/G0FRhMQ4iVANGBnxAQAqM6ot0jk1cwiCQWVoniTCB5V0XPrdNeuvmRhjZpRRLST5M0uoGa3FoFFMs4YqdmRBlSQM0uc0167PJV8vGLPgGVWEmM9rS2IVk3+Gx1eS1oC8ZukHvIKIafzKdI0ho7cFdhQh5PtJzfCycO3xLZKICtriBtUW09TfScsJqY/xSEtFq2aGC2McpEMhpdlTNPX9a6YZkXR+eJs2U4WhhRCl1joCPqKqlN4SvKcaBLovw0RlKDvKKVes5eJPngKF5qkLi8izkXFQTRNjclpFDc/c+yo3/u1dTPVXsqzcxclr9rJ06R4sA2Q/jCkCIgE16SG05cUpQsCASYzTHjXTQHpHInboyCFZrIyaT2qyidVMJhFXlKFmaBOiN6Ork6S/ULUYQLOGi63z2oxT+9GxNd9QwwRiGmZKBLvwbdQMEGjRhggqdkTjBJQokhiknr+1+CiIsSMOf5qXy884ej9vChRt/LR6/Ua0W9uVUIaEWp9RvwhVqJlBxxznOEBCm2kypy1gGh1hnHRu65jmPvV3sTle4/jnC0lZWloxZi01vcvgd1Z05i193ckp7zyeq//FueAgqseYUcG44JoHZBpVVCOKYdM9b3Drlx5DXcVxxV5OXPMWS6Zn0RjRA5gIidYimASpNtwlQ8kSMQ3Bt5knGNdo/Ch2KO3rdcjEWzNNaEncmnFqAh9qm3yNzExxjNtrIvcytN5VhGDaFrgZMa8iSjRDv2Yxphk+k13gPqS5mKHpmReu0cR5VMICphEla22LYogyhFbqv+MYs1bGNUxTv4O0jhmmibQWmZbErwmz1ibS+t2MYjox+Ww14zRMA4szTn2dZlHHjmnmoCPzORjjyLgpCfjgESN0Xg503jQQAidfvoorPnc26mImwUWxRuBg8I0oIvDWlh63/u1jlKHPWrOHk054i6nJffhKqKr9X7weqia9WYb8K5o0j0CCGWJs7NV62OgpNE3SZCde8o9VIFaQP0/fRSSGsfskGZ6gyuHqiUbMYpIpS06nsTE1RRWrbVkckYzs1CRnYsWCoRGJowiQjYFi7DlFk3FmSA6tzWaPaMC2pPC4aBLVelnJLNYAHVaThWA1UozNoYh+zC1vXRNDnsjwhrUgEwPGpv+FtOi1CWoZRQ1NmWZlFbWKtLW6lfTT3HRoxjZjzPLASP5MsmVi8pQEqY81i2jyMUS5vp8gcFQXPcIQbcFTd2zlqTu2YYI9oBKAgzFNNGjPcsN/uROtBiwt5jjtqH1MVPMEZ3Bu9NkPNDTbvKqKrZ04AbPgicZP9IkAsqSS8UlrWPQ0M8IgIZ//6w9RxbIQvZcWKZtYIToa07EtuX/g6x98Dm7sGBsjLgRsrBkvDmmZA4PNUXVkRosdK9YgLq/2OBHTZpz9DFM0V1YzxjiL3dCMCeCDEVfLahmec2AhrgKmUyAIfePZvSowN9HD6jQ/+fufs2vrnv1MrjXN2kBqXmr9ZwQCPHnHM2x7Q5lU5fSjPa67GykCtopokMWYe3SSCsYETAsLD7VvUuMDanAEHCEhKG1JPILbRyIRTxzGDhZhhlrbjI6IUY/NWgMSobmYfkbOz9rJahxKelUkBKTlcEorjlDHc6wGXMtfCCRtk35qbbS4hqs1YdK+9W3DyDza8435/qIBo5rPr/Cx1oLDUUSPaz2m04CLVSNMFMWox7SeSYnZrKofsqVx6pkKWe03CzFq2WSzVaKged6NiTke74JRxgmLMGSbeVvHyjiDmaGpXk9VLXhfUYlnInaweR7uhEmkGzBxgru++QtkkARdGIYn84h5ClFa+iuCBDAxLbzCI7e8zLSfY9XkLJ2JbVgMUbsQiwR7ysEleFwsvAuAMu5SOcKo2TSmSYwqRnXkPaEBNIx8JjE2DLKoUGsxDiSpvdgwmXn2N0T9ot+7zESJARbOwMhCxt6fRtTFrj82XxUSWgnUysGO0ZywuFZu5tQwfsxRC1kodBvGOTAsOxpCKhOJjQEZ6UEWu0dLuy0w5Tgg44iRpG3GGSZfsnAF5UDo2UGKC01aBiYgKx2ma3j+8TfZ/tKbhKBYo2AC1OsWTXLPkdqRlEzASgyKFcujv3iBPW8MmNDIiUf2KMtBgn5b5nuivdGFiDpuMQsxWmK0yb8ZWSVdlCja3ycTLWCzRDUwomFczRzqcRozsWhDgDWjQSLyZMq0ZpcZq02IorFlEo4yThHCfpkMQGKFiYmZ7IgBNxw2sCizieoizJPW6EDMa2LERMFE2a+/AkoRFxFCyKKzbD5baJO2tE3NobLwmBHGScSvdhEfY5wxaj9p7KPFf5dR7TT+3dhQGT5XrNVIIbBiEpyhCEv4+R3PYFQyiSk+6IjCMVG0tsSamwgG6Qm/vH0T0QRWLjfYsiL4tt5NOWkGlx/QNauUYlCLSyFVaX72NwxKMUYgkgm/jkAIimv7Lc0NEkO4GqocgtSjc4fGTNu/v5F8L8n3G8HPRjTkYufrosQrjeZcHIhIzJ6e1Y19vvC+Y9cmEI2m+MR+x2hWhCyyPmYxNh+ZzLiZlsdijNMgMqOSX8Qish9iHz9+sWFlVOuN+0PN52NzzGaaWiiipVMZxMNsMY+stEQXeeGBLTAnjYJxNq1+yKCCMSlSkghClRhNiooXMP+Gw0TlsIl5ythD6eK9Q6gSzIoSNWHvIQRChgKtyaqteb6coJCVjIpFMBl8EaIKNihgebMX2bq7x5ade9m+e5aBGiRGigCoZT5KAtqAIkacpnn4/ayxtGDIAxH6/oACyRorme5xhHGKECiyjyPqsT4mdK82zVQx2b9wSPpRxWpIfpdGihgoYtivdnAM6VU1NFpPUEo1uBiHvpAqLqQ52OgRIho8Gtp+ihuijfkzE332F7X5qX0baYy2DArUjGBqFMsmv8VYIObEuvws0QMexKf1FmlQMDWLWBgH8o9Ni0mGL6f1e4txJKFqaa6yABxQkheiFryJRI0osG9VCmyW80vY+sJ2tCCn2JgGGJRGmNXIoSSCNNaiA5jdUTGpnqWTFca2syQKhGHulCBYbFJ3ygIoKNRmUnOBiDGCN45gLTtm57jr2Rd59LlfMggBHzyVppdPVFasWMXF73gH71h7NDNFiQ56TCL0jM24lGb4tRWVpjZTpD5idL01oOKQ1ncJGMgR/QWSLl3Lamyi+ONDRTEhEu3wfEGx0TepPZCYNzZzMM1xC72veh2lweDqeRjVVrbEuAjIxyxiQgq+YRxyqCWKYjQiYse8nnr99jMW3Ngw4jkbC21zcIToM5qmDLMFjIymzogsiLscdA7SiuiPfV5fS5p/SInENYMpSYMFy9aX3mD16SsprCFGRcxwLRzktINM7DamIOKOzX1cMBgBVY/YCt+HQhIaoiojzCH1BBRUDpydasWwLyqVc9z8xBM8+IuH6QtIx1GZ5LWFoKizuBjYPb+H6+64jXsmJ/jMle9j7coZfGbEINI4+02ipAYQh40hEWvtJ7TSViBpB4NdkNhpVVOEvvlccxAx28KaU8rzcKQgupoUKkzR/PqtCcpBXjwkGF60FWxVTCa4draBZuJuj1qDpnMVo4GYUccia3zVdrbyQmYQFIkeNQUxz9flNfbtNbMG9YsgajFrEm0zzgEYzho0RiRI8zyqYYioec3mXytgWWu4NmMZSSibzeaU2CaDQYygNQLXYpooihnTWtEoJgjScaj3zL0OzpiM/o6CaAuLBmyaw6ubt4Mo0xOO0iT17ZzB++FzSUh5WWYMq5fYeslmIQNVJkKnw59+7ev0jLKvU2CqASdMLuPSDedz3JIJCud4tVfx8JOP8OArL2G7BXuD569+fD1Xn30+G844g8L3kl8iBj+uGbJ5YbUFcZOl/GJMIjIitBZnnETEHbH0xxhnfKRrJYYxCMRqJGvgVxkmesiM42lJ5tb9TU5HidlEMeqJYjFRmsxhq+BjwJmUZ6dI49/ULqiNVQMT7//h9qMBGiJnuPA1w8eRRKFmaDblUuZA6w3YzAyLMU79XXPfehFaDFVrufqSI+lTStlK8REZFWxaRba/+Sro20e0UiTpUlerfqlxOaPYKGx/bXMyB+kjCDGWSFSsG0AoEyHYdKs6M7iumdFsFwNINBQWBjFSVUI5JQyM429u+jHbqh4TxnL09BSfvfoajlg6TTdU+UUGlk051p13Dh+/6CJufXITtzz+IFEjN/3iPn723C8pfKAokqmxYuly1q09ktNPWgfAMixzsQ9aYUxBkLo0KKZ3XvtZzdyztMt/qxhMDgCOMxlAiTLIjKPBU4ihMtn2DQOCSbhZShodvpCIjjja7YwBa0uMVkQjSBzVgCYGohlWnwQSM6kthrB9hoFjK44SjWJ8RcySzhpLyExnEYLNDBKVQVS6pUV9wLuFAqFOtpUcmdd2SktcxLqoOTLEoUPeTmsR0wi3RNxjjLA/xoGhhlMdg6Czp5+SHtMt6lQbYyBGXC0hMvNHUSqrdIKgSwX2gN9rkAB1cCsJnyRcxjSNEGPEIOzcIajCdCcSVLIrlLKWyYsX88Mtlr5mMZl5IlVUCmMIRhE1/PC++9mybRtTzrFuzdF87l2X042zRPWZ8BTUJofXlQQfOfnUU/jZUw8zHyKiwuy+vQyCYqwhxsgre/fy+EvPc+PP7+WEY4/jNy68mInSsSQKPd9HXInVDDmOWCcHQqPSSzEsZBwBCpI2qo+r2aOW9sksjIkJABdDYx7Wl1MSUaiYlBksFhslOckjZthClAsUCSkMEI1LPozJgEGdra0WtSWKyQ5vbIzGKKBhQKFKNIIzoCEgxjapPioGTx0sHd5dNZVhN6vnirGSAoUq5KCRGX7XVueSTQBxySIZd8HGHX0drsPwu5bWk9axI6fmEnJrshcSW9dUjA5hemMMIYLOefCgBWMgjSw0z0xm6rle+rt0irq4eHR2bCyQohkgQCJBodstebU3z4PPbWJA5Kjlq/ityy9nql/lWFHyHYwqNkYGIrwV4Cf3P8jdmzcRBFyIWGtZXk6x/LCVTE9NMT/o8dob29kxu5e9Ivzixed48eWX+N1rPkhYvoxpU+I0Mi91uBEkBtTYxlxL0X2DyZJaNKKyn/hFRluMGIyGJitaasc7S1Ujqe5FNEHySkS0SqsiaaWMgSom4dIAGarDBNb2u4l+xL/JnyYQh1o7JhOiRhNrtzOJPKWBqDLBiDHMD5TSOaJGfDTgbPbNaqyw/jtrGDTTZTZpo4L3o05/Oi37l/m2dTZpmkyW/rlAUQFrkFgL4XEmy+fWa1Tfa8yqG10a25iFTcZAw6hJE0VRbF3K0VKub/bjKGO2xuKF0BF6u18DlqTncZq4DhDpAkrwDimTBJFoUKNEiZhFskN9VIKU4JXvP7SRQSlMBMeHzjuPSV/hzQAvFqeBMgoexx4DD760hVsfup+9GrACXYTTjj+JK885mxVT3azrUoZwdCWvbd/JDfffw7NvvM6uEPjqbbfyW1dfg1s2k5HQ2HLSSUQzIpVihmJz9nNLg1rVpmitlrmaZXZRM04rSBqMSS9fDKLKbJxj39wc87Nz9AYDKgRXWKaXLGXlzAwi3SwBI2oKJAZMzsQeoYPMOIl+tInxqqbja61vYppvnepjNBMRFR6LxhqtE6yzBAUfUh6ACaNVpZpNuKB1VniLeVRRUpGgtbkGKq9tUrsJIEjHtRhBWGiqEZNlFWotGRPXm/wu2rG/NjJ3IJStUelt024YYDftmJYM//fze8COs0saI0zTWC2h/QlIbLlJYxq4XngTk8pWp8PrkMwabwyvbnuVG596gmdff5XoLOe/bR3HLD0c1eQzFRpwQRmI4em9e/jePXexefdbTJcFnX7kiOXL+ciVV3L41AQd38f1exhVqsKlkoAYOGF6kt+5+mp+/vzz/Oi+e9lXzfGNG37AH3zqM3SMAdFkitTenSbpbnVofunIQy40yUbWSpP01eyES10+EBUjygDl9be288LmZ7n/nrt4c89selGSYlbqBBmAO2wN604+ng2nn8eaVUdgokcyKlhna7SHyWbc/RtvZfMrexd5re15tn0NYcnhR7J86kiWHTHDsuUrmJyegZhM3o7CdT/4BtEPUAKCJWRtYlBEYs7oyFcb+3v0vrnYMF9nw7s/yPSKI0bpZ8S+a62ySGs9h6ULZEukP5glVAOC7yOmwFlLp5gaJoQaqAPbkrWraNLmYsaYzybmk6zJ1ErWOJIxjcTdNZ9DBgJMTJWUUVq5dgq1GJMqvWQrDKv6RFGvBGdxRtCQcmsCkaqCyaJkYCMvzu7hL390HZ0IOwhMT3Qwfc9hU0voxgqNqWbEq7CnNHzt1tvZtON1DEJHBIfhU5dfzlnHHAFzfcT3qFRQZ+hhhhBjCGhpKBAuOukkjDH8+L672a2B+3/5FO95+xmY/hyUybdBXKohj7Ex05SElomG1AhCamkKiIykzngzrKlxQEdgtj+HdKYIcUAV4Hv33Moj921El1iOLJdw0aWXctwxxzK9ZCmTK2fYt+U1nn15My8+9ThP33c/jz7wEKvWrOHzv/m7uG7J1EzB3O4wvN9Y5vaWFzaz6bkXcM6lQrRDGPHZx1GNxByUPfWs87jsmk9AOYkqvLb1Zeb2bKMjSl9rQZLIf0g+ELxnkoowuRI/mDvofc+48L1M1wRb+ya16QaJyK0BdalQsfL4GCmwqZ2VRHa9/Bj3bryFV15+hUkSOtjLKVvGOt553hWcesa5oFNoURJ9D+sM6oVCCgZSoT0/DPHXtzbgcMkfnHbJ95YCHYAUgjcWB9gUXDtYC6fFh9cU4UagjIFoqqZwr1at+zDc9vTj3P7UIwwKlzh8PjDoD+hgWLF0ImHlGghOuOfF17jlvrvYYyJ9YGJQ8QdXvZ/TjlpFb09gflAx6SKuUqx06Ael6FhMzzIoPD1r6PiAKwyh59lw0sk8/ugjbN69i7se2shZ69axstNlNGeNzDjJvxlXxbW/UzPOeMCzhqAVYXbQY7Ls0o/KE7t38E//+BWqGDj+tNP43JUfwHa7lMZS1Vnbalhx9CTHrV1PdfHV7GEPd/7sbh7+6U/5j3/5Z3ziox/h1KNPzvBvyxcZeQ/pWT7zic9y5PHHU8XOAhSrb2zTVwCS6agaeXHz01x//bd55BcP8vxLL/HZ3/5Dustm+Ny//Q9Y32+OV4TKWIrocwFdWoObvvE3vPDc03zxD/+YfjGZCthC9kWUYYWlsRAjxmaYxNTfy5iJlZPSNCZEzRmc6UB/gB3s45+/8xfsfPkZQmcZp593Kee/fQPGFESE7dt38MDGG/npz2/ino0/4YINl3LamZdjyonkb4mnKnvQBylzPD/o/n2hg4xDZBqDEpoYko0uZ38m5EpUGrxdtaBc6vjqnbfzyNYXiCIsF+Gqy65kYsXhfPnrf4e1BsFlDSqoF+598iH2hgpjHFeedjrvWncyy2JJp9+j7CZVGcUyV5ZsfP55bnnycawxfHTDhZyydi0TgzmwjsoHJoqCTjXgQ1e8l7/+0ffohcgLzz3HyvXraWraCSPolMTs+NVOfTbd2u+4TlcZb4ohCJNlhwGWB194kh/88AdMOeHa3/48J686EiuCeA9EpEjCJoaAlQLVgFNlxszwwXddw+knHs+Xv/ZNvv297/HJj32ME49fS1FN4qJQjd3X5b9N6TCxxIlBbTlSqWkkIpJ7KmAYoFhnOW7d2Xzhi+u55cYf8dzjd/Pd73yJ3/r9P8KpoLYLzhKqiCkMNgSizQUPpqD089iii8aAcQUU3cTSLXR9FI7OzFRrasnMM5KfWPseQ6b3gz4rJgb87Vf+D3bteosLLvskp73jnRTdJagPUFisjxzRXcWHT1jP9lc3cduNf8c9996GD5FzzrwqQ+pSkzGIg+CHwIDSmJgLygv2Mw5SDTM6ar9u/BKBEuiC7+AV7t38HI++sYVoDCvKSb7w/g9y9mFHcZgGlpYl0Qj9GFB1WByqBXv7A7pi+KOr3sfHTj2V1YUwWVZEU7LXdNnXneCJt3bzf97wI76/8T727t7Dm3v38Fc/uYn/ctuPea1S+iERtMSKTi+weulSpsoJRISt23dgfftJ0oMMC7t0zJlcmG1sxoCBekSNDLC8smcn1//oOiYN/O5HP80pK1anrAQgOpes8xAaJDJqBSIYcdjoMWI4/qhT+Z1Pfhq3Zxff+u73qAb7z1m2RXrJNqaMbG1y5FJGuI2BEkupkrMLAtZUoBVRoOhOcs17r2H5Ecex9bXX2Ln5EUo/R6EVrhrgRIlxaEJ545LmtWUDa4uxGWXLcLak/1MSXnbQax+y5YAPF9UlQSUBxCcTzRRgShzwg2/9A7v27OWid1/L2Rddg5uaSaC5FRhUSQgKBK+sXP02Pv6Zf0c5uZT7HriDV3duBo1Ydah3NM5HPYVDNGnHh4GUvSlkmw2Fmjmz1A1lhQSLySk2wfimQUZlHNEKsRpgjFB1DTc8dB9aeQ7rTPA7V32AozsdpgY9gip+4NEq0DGKMZ5oAvNmgBjD1ESHo5fOEBEkFEgoCcHx5twsX73zDv72tpvZvncvl5x7Du+64AImjMGWjk0vv8yfffcb/OSJp5gTixfLXJGA0jUzMxRG2LpzG/2yJSPqmnWNIxWRC2tw6mrIYSaBaGwCjy4GNEb6VY+vXvddgq/49Mc/w+FrjmnqaYoQsCEQ6qRG9RgNKd1FA0Gr9F1M91q3/jTe++EPErznK//wdwSTHOMixhEpF6ua+ZLP4UgpNFpr00y0Opb+bxBsDJgYsRNLeOelV1HGAdffeCsBh88BWaFO2qyL2FJmCDEQsw/rtC5kS9qsgYYDLQSthsnynDCMpP5rACxoSnmKGb2zoc9LW1/kpLedwJnnXJoazoRcqt0EPaW5tqqAm+Cjn/g8RdnlkftvwNoBQQIYRYoxSLxlbosFrF0k53Dh+JV9mnFNY33EWcW4kn3qefilF5nt95lQ4T3nX8SRnRKJES8FA9sfObcWQgqYgWdiego10AlKJLDNCRs3v8xPNt7HAOVtq1Zz7YUXcMzkBC4oVx57HF+//z5++dor9DVy0+MPs/G5p7n2kndx7OrVlIMBU0WHwsPeffsWZtW2fJKRKpTMNE3SpSZTrmae0ZQbwQj8/NGH2PvG61x66Xs4es1aHClRNWEI6TpFCFRjGbf5DilbW1PPLt/znHfqedx5253s3PoKr297laMOPxI0MzUsKCdbxNDJvw8TQV2MDGT0uyjC244/mgJlsGsbhB647oLrtK89/rlo6rSKq9ex/WIzVNgcbIYCy2juK9v6PiimW0IIPPXLe+j3Ztnwzg8QnYNBHNpGIylu+Rox9VJbOrmatWtP5IXnn2B+rk850R2dsBldQLHDd3+g1Kj26b/WaAhMEtMHVWS64LanHkWMsGx6mg1HrKVsBUVN/YDtISnStSdUzFc9jJbMR+XBt3byP//T17n+vrsxYjht9RF87vIrOWaig0SPN4Epq3zhoov5w/d+iKOXr0KcZdvcLF+58Qa+dOOPeb3fA+MYGIWys1+nLzWwUJwy0phjdKatQjZSg4z677d6PW7/6W1EES49/Uw6GlJNEEqJEscK5tqSKtFWYhgxBkLIMZiST177YaIrePCJjbl8KTRAxliL8z8AACAASURBVGKGhc3d0yw0AiFVuQ6L7ko1Iw1GUCiKSZYsX46PSiSVbEsGP6yGpGGa45Xx0L0lYm0qJ2/KtSyIrSFgGWYSA8PGGCa3ATXknK38u0WscP/P72ZyaobD1hxLVXnsVDGs/DTSSoI0zXXVloiJHH3iqQDsfmtLS9JnEeUA61ofHZovU49fm2mipqUTI/hY4YzQnwvs7Pehipxz2ukpc7cDdcuUZP2NU+4wgT92pnhaKv78th/z9dtuZ2ZyksvXn4qtAk9te53/64fXs2XW48VAAJVIXwJrZzr8u6uu4Pcuu5zl4nATJS9se5X//M2vc+9Lz4MR1ixdTjFWOm1bsHq7rLqu2BxWfOqIb2Nzrb/JcZqtL21i1ivnX3gxS7uTGRxZnPlkrOuOZO2SkjoD1jlMTLX6K084Gtvp8vD9D0H0GF/3GBslWlOLTdWmHGDYuCof056/6hDU0EhQx8SSZcxHED9AsplnNI4UrLkIi2VIDOcho9WlwrAxB2SNsPCsYY5anZgq+H6fQW8P644/MSUJT3QY9AbAMCu6vsf4HyqO5TMzAMxXFTS5cm7hSabOqFhMhy4+Dsk8s/0CbBjJXjZqk7njIkYK5qoBWlhKko8wNdXFDqAfI84pUDCVM9gqUeb6iqnTKmSCvgjbZvfwle9+Ex14zj1pHdduOAuP4f2nncqXf3oXm/bs5M9+9D3WH3Msn77sCtzcLNMScH1PVRhOP2wl6z71CX740BPc++wTVIVDgao3YPWqFXTEMejNo2UBpiDoIm2X6mWNOa1lJMvZo+JQsU1p9MAWfOfRx1jWcbz39LOSSWYdZBBBxVDmmMSgTnkZkxtNgw5xRF83AXYsDTP8T7//xQZaTvOqUFMsYJxhDGf44o1GPDREZjUSxCDGENQjanAChQZ2vPISImUKqsZAFJObKY5O1oaw4N51cm6TRpXvk/RWKl7TEMcu1YacDdhU7WtMxAwGFGaALac5+rgz8R5sAbgOGj2EVB6hGoYaLMcPxVl0EJjb/joA3TJltYhUgKR3g0LdMK42Fw/SxaY9fm1NUy9ADLXJ4holUgksd5NAKr8e3mz4x2hCq7C0KJjqV5ywcg3/8oMf4hMXnEe3LyyJnm5Z8vuXXsUfXfUbrJ1ZzjObN/Mfv/p3PL51G94W+LJIhKyBaYVrzzuDz3/owywLSscHxFne2LGdWVUmulM4jUh/HtNugrefUfsxzd/qswmXztk96LPv1VfpqWFmaorUa6zWWqMaSlq5bCYskhU8srzpvMmJSZZMTo+l+/xqQ1ta1OQew+ldRApVdu/ZxZ4gOCvpewAJDPsa54/wuRhrOCT4kfcK+T3vr4fHAZ7DdDpoiKhzzM0pR65eSacziSlSEiUZrse2tVdz0/SsPjHSc69sAWDZyqNTLp1aqFE3SAwzUlNz6Ot7iEyzf9izHlakaVBigVnfpwpx0cTDxUaIkVVLl/KZKy7jhKlp7KCicEpUg0ahYyuOn+zyB++9hqVlyW71fOPnd/KfbryZJ7a9ha9St0kbKiarimOnJvn3v/Xf8baVKymBTTve4M7HHmW+N4sRoessZY6RNIuhARdDbrRH01wjwbhDnyblUqXv3njjdSzK+jVHpNSPBebnkHGKERNQsX5c07V9jbpZYPJxFuto0x7D/W6GJdaiAUvOm6zvnQOXBYYSCxp4efMTTEpg/TFH4dywEX0y0UbvU1d8Dp+j7rcwZvqauqNN8tlkxKdp/17TR0L6pChRY+kum+HqT/0hq9evz1WvBqo4PNTWRn19ev49RJz22bF9KyedcjqdMmtla1KZxmJ1OIdumaUpH8pBjdk/frJmtZ/XwIgQfcQYw5t79mBLQzhIt8LmWt2CftWnUFKvAQOp5ZDBB0WNwQfBKpSuZKbscNEpp/Ha7p186dab+P4jG3l5AL3uBNEapiQyNT/P7/3GtRw2sQQfIg89+QTzRYcqRHw1GLHzhxpFc1um3KVSh0Tf0pPN/1V/jn5QTlq/vunsssgKNr8VOmreFGFxkVwzKhpTKTK/mllgom+67NTnJnPGpnKCWOGKyLbtO7nl5usRV/KBaz81LF0IowztsimbeiCMrpsNFUa16eRZ43XDPgMJahbbgpnrfgGQGKeptwkQAyEm0ylgUjmKKsaZ4XGkh2r8GyGhd92CBx64ib27dnD6+vObZFPEpmeXqjm3Oa95kEOk1UM6SkBVRhlANPXZUiEEATXYaJiamKCvkee3vZpqj1QhGkSTdEuFWYY35/ZQueQCO2fQnscUZRJCMWXvqiTt4dQiweCs4K0litI1Be9/x7n8jx/7TdasWMU9m57lr2+4nrs2vUBlLT6E1OCjt4+rzj2HCQyzfsA9jz6OFi7VjrRq7Jss3EZTxAZBSrHQIXJGqFIqoAi9QR8rsGp6Gs3+QN24bxx9q5nHZpA7XVCGTKnj/kIy5+q2tXU7qLoFrlgwodYmw/ZW4y+1htRTW1mXECiFX/5yE1/7+pcYeGHDeecj3WXkvRWa+QmheXYzkpY8Sh91X+y63e/QEA0Zwq/7EGSloLV/rk1TlwQEmIRsaRz6G/kpQmjlqmV/U3MWtAIYw/Ytz/LgA3ez/qTTOeLIt6VjTH3TGt6ufWmy1pNhJvUhjEOL00iFBjdiAsZWk8BkJleU0bF21VE8MbeJF199lZd2b+ek5avoV0rXKEtixfvOPZ+bHnmQHz/1GE++sZVPn/8eppdMgBEkBGwVKMQRqQgoSESNIZiAtRanhlBVhKKEMM9REf6HD7yfGx95knsefYgfbryX8487hklniSidqJxy1JEctmSGLbO7efyl57jirNNGbGubGSbWeH9TpFRvS5GCdCrSNMWo5ensbDL31szMEIzB+dTvrM6vbZpfaF3UlepbfQxpT5tqANYtSo51GYNal/qVuU5jpkUS4KdW2Dn7Bt2dE802jLG9u1jtVKpQBSFWFbP7XueOn93FG6+/TuEc55z/Ti595zW5tKCeZ8p5EwIaJYNcYUEz9YYGMsE1jedVCT7Hqcr0LmpkjAwWxMqDK4nBZ4K1OSCqyTEPykiqkwCagICm+Ljbwc/N0i0LXn7uKW744VeZ6E7y7suvJU5NQy/vg5O1tkqR1GXIXKvQQNaHxjOHxjSSe5vFKBgLGgrE+CQl1IAMEHGEMOCTV7yHzf+wmaryfOven/KvPvFxujsCtiiQHlx53HouPOXtfO3O23hs21b+9Eff5JTDj2JWhKkY0NxbTV2KdIcoWOMpoyEGZdC1YE2CswHnIna358ipEmcNsYqUZYlWcynzNwRcp+DkE47n1SceZlDXiuRg3PAZh7G2NIH0UlJyuiGINomd44RS5dyqJgs6m9t14/TQMilEA14s37jrFp64fyNLS8OewShM21yjNd5+wXl89IoP4zTtPFBEj9dAYeb4zvd/gHDg3eZKM8tcrLA6gzEGay0nnnA8H7z2UxTd5QQZtjUcbT4y6rvXwnl/o4bFpbAEFCk7aH+AKW2r5xupnicGyqrCFoaBjykTQVhYzAbJMQuZoco66TUxllPD1sd/ynU3fJupmdV85tNfhGIy+UDWQJ1XqCQJH8PChzjQQ42NXyvLeXyoOiqtKE2BeX3AmcedyMann+L1/ixfv/lW/vUV76U3VxEnYdD3LOkJv3feu3mjv5dv3nMHm954laJjURzVdEk5F4gW3MBhjQexiA5ASlQ9uAkmY6RrlL3RoBMw2/f4EImiTZkCPuCiEkJkaY4X9GZzSaozI1Is9YHQoVkA1AhZan5uU/A6BiyphiaKMDm5hKWFYfvOHaxYvhrq+LsmzlksLcOqctJhqyjPOrl5lwA96eJztx+rga7OMyvTvPDYw6x0nVa72PoRLFXscvU1l3D06pPTPQ+Csi1ZvgbnHMoERdEBjbhpYTCnePUUaoZ72uQQgztQk/M8iujTnkKS8+x8oOMMFs8cEaUYbSxiFMKAfqdMC1AAgyzQaijaCiNbbhhIxS6ZeSQic3Pc9bPrePqJh1i2fDUf+8R/T+xOJVMRTf30WpWg3qQ2XQt8mV8BCDgkptEoTaZsDMl8ae6hCcIU44jqsTiueccFbNr+Gjv27ebp11/mf/nnb/Gbl1zG2iUrGBQDKq1wqhxRTvCvL30vz+/bzT/e/RPe9H3+/Dvf5IOXXspJS2fo2qSyK4Q9tuDBzS/xsycfY9fcXqa6Syl9l4GrMM4w1SkwJvU18LkTkGuybAMTnUl0kBo87B5Eus4enMjGa8/rjyFXFRqsc/SCsu+NbXDiaQsuIaT0lfYGUkLkknVn8s5Tz8ZhmBfByuir8ES8sUQx/MkzT+Fyn4Ha8Q3ZZCx6fU5atZ4jVh2b9sJpd12R9n48aaOoIDZtvRhT/2uxQn93oLCpMcgQ4ki+jWJGOtq0VWCZA04Nw0ADSbtc9rFvV49br/sq093aFCKbukk+7RnAGWeew0nrz2CeLoybf3WLpnoUBgYCTqi27eD73/5zdu3ayTlnn885l1wLZZcYkmYxkvL5Gs1lbM6v3H9P69g9ONp7aOaZWBSfnxSMC2h0Ke3E1Pv4SkocMYFu3zA5Mclg3z46quzoz/E3N13H2485nk9c8E6sV2K2mY0JrF+6nD/+jY/xs01Pc/svH+evb7ieU9cex8cufBdLJybYuectvrfxPrbseANTRdQZ5owycD0mfCZga6hicio7OfN13rm0G0EQev0eFAaLYyZUSNEhqqfIGqHKtOZURzZzNQhRk23vsHhJQbwOhhg8R09NIAL3v/wK58UURQ/UQdHxJobDYWxySAOKYPCxGuY9SRJSRQz0bTZLxWVm9ViVEai2CqmFSfaG88cGp0rV+FQJFcSADyHlxgEaNIU9NPl/QaQJ3HqTAIhgLDZEgjWp8YZWdM2wXS8kxlEsXgTjAyKKiwP6VY+XNz9L8D5tRRIDSkglC24JHsMxRx1F/9QNQ83f9FBLu0hIUaTcNpsFHRWP3fYDfvHAHUxMOq669rc5/uRziUSMH3Z0pSmXbpmbi3JBCxc9BDPt1zfPsrRouhG0uuAHEfbt25NehHWEqmJWI4++9hLP/uAVrj7zXM477mRKn9CegUsZule87WTOWXs833nsAZ7d+jL/6btf58yT1vHQlhcYDPq849gTOO8dZ/LtO+7AiEI1gWiF2rEdmQuLDSk4J2KJZcnu3XsQgWVFl7KTunRKne+UX1YtMdsZzdr8myVoFnoDUqP15TPLKI2w9c2dzEdliRFSYW17b2PFxTiy89pwQ6bcpV+GUr5OGPXA3tBHqz6mBQEv3iNaE6I5jjqNNRaUVr+2nHM9kknWTvA0uTTcZijZxIg1ZdPEsD3qjDpDTKXcQE9Kusu7fPHf/ymSLa3kM6Zd5oIUydcXJbaR2TrJU0A6RQ5YpsZ91fbXuPP6L/P6q0+z6tgzufTqzzJz2GrCoGrJDFmshmXhqNdJyWXPh7YF+yExTdASIz5BlWKbDUJzU8gGEKn31IwFzPd6lMFz4dvP4szjTuTmh+7jqR1vsL0IfOsXD3DPs0/y4bMv4ORVR0JvQAVMlI6lnZJPX34V37jlVh5/42Ue3ryJ4w9fwwc2nM+RlMTpScqqR9GZAO0lH2ZMfgyC0kUSWOCEPSHy+ObNmEFkxYppTNVP5giQuH+08V/bo2l8Dq0fNlWt9jRijGNJt8Mxy5bx0q7d9Of3MTU5kc8fbpxLZpDUQ1nzVoRDLZSs9OwD1ZPI8PErLz7T9MiGmtmkyX+T9pYdmqBihYVmTnN+2slg8ba7msGQIdMIo39HPKqBkjji2Ddwei4TiJJarAQxeNvB+IA6Q4XJaUD5nGqAGpd9nAxtS+rxhu2ggwpEKWLFpl8+zK3X/SMTEthw2Uc45dwPoGWHGALGSvLBpM75y0hgXT3QMvGGbbwkCZWaWQ622VIev1YajeaKu6hK0Lz5TSiaYCcGPEohhg6Ww5nmty65is9cejnrmGK6Cry2dy9fuv1m/vLu25jtCtEZ5kLgNenxF9/9No+/upm10zN8/rL38fnzLmdt0Un5R9U8nU6XECM9B1pvX9guCisdAYONMBcNNz60kTcH89iO4+xzzkqbRzUBw/plp3PrAF1NMK2nhpwx0JB2ri258l2XMlsFfrHxQbQlhev4TztBEhjpNTCMqMeFGsQYbntwIzoxhK1Nk7a0PzNCR4h5fGuNdJ3AwsyFZObWm0i1R9zfbnPRU9ZZ4eqp978xKkSvYBKIYGOV4j8+YojY2Mdpn0KrHHCEuumfiBKrvAmY91gnSOV55O7bufm7X2bFilV88nf/N065+KNQlo0G9kEpWzlbajRnRMvQ2R9ZhEVI/xCZxkEqPtNGIxpM2sqytZgpAKRtAABS5R4xb0WnBOOx0RGiUkjJbunx5vxuXBGZiHDGxOG844qP8Mhrm/jOxnuZLUs273iVP/n2P3HZhRfywrY32bT5WQqFD51xHu869kSmyg597aUtq43DeGW+P09RdOmWJdaHBE7ESGkt875C+hWFBryDLTt38dDzm+gLrF92OG8vlwIejQErEV/3HnZDM6aIHm9s6lJDCyzICZAuQlfSZrYGOObwIxERbn7yYTZc/E6WWAexItqy2TfH4ojEViJkvmTdx1gcEvqIsUTSBrPzVZ83t7xEUUvgrI3iOHM1L3P4dtrx/JpxqrZtrzlRsu6/xqh73CR3amp3H4S083F0FCoMMMyZLoO8Tu1uoIKnY0Cjw1PXLKWYUq25a6a3JvWdltxrLmbMPw4CdLuYqsc9P/oqTz1+P+vf/k4uvubjuMmc6uNDNnEj1hZUgQQxh9F8P60Lt5yAV7wVRurRVDIMfWgpX79+wmYecRGEqdt1TJcONZaXd+1iYCx7ej1cmSDIi45dx3/46Ge5/MT1+PkBlYG7H3qQF55/hivWvZ3//QOf4vITTsYWSr8bGHjBhQIjJQ9s3UqsW0rNG6xR1AYGCF6UrnPsoqA3Mc09O3bz5VtuJArMWMflZ53FxNQowblml6vFkzYNowmbQAMUOE0/S0rHb77rYqLCt+66CY0JYCijR3wPFUeQYbvYRbcsjBWFpHww4ysEuOVn17NioqScnBo5tvAL03UO5UW6secYblw1OlTDSJLnAo37aw5Tb3O4Hy2pKqmHQlEkQdWf4+E7vsdjjz/Ahouu5sqPfCYxjM+e2CEUjMHY7mstpz9Ki3YPUcvAIWcE7D8LuB4aI2JSKXS1WznxsDVs37yJnbveZFY8S7WLH2jKlhhUzDjL+9edy9knrOenTzzA6plVbDj6bazslBgjBDxqSgZ7B0zNLGHLjp184747eH3Pbnres6YzgTUVMQpSSd4SIUKELW/t4Mebt/Dwi89gOhY377nynHM5cdVSNPpU1x5D6uYoqYgqxDpFvCbsQBCb8f7x9UheiI0+bcsRlQvOPJcHn3yCxx57hkcPO4azTz0FokdsMSwwrLt2thC1Yd1N0iBRU5T8iRef4aEHn+Rf/sEX+dLf/U2CcAG1EQkG60ffSd0IsXmxMRDInzX3iguAgTqvDTHN7gfta6ZuPDJ6fPZpOlKbihVGi9E+GSSN46LLmRFZW+YCtzqAmkoJPCr1VvEKroMEJWzfyX133c5FF17FGe/5CANbQBiAczQep3HJJ8lJzMmpT2EQRUnbY8rYvLLlZJQQcyWsDE30g40F7LV/wG3/VzQiOGOIPv04FTac8g46IlQh8M07bmZvd4BGwRQW76DynhLlhIlp/sWG9/D+k97Osk6XvrPsMwHVIkGrSyb4yr138p9/cj0vvvUWAG9btpLPvesyUJ/Uv8C+uV52WpV/vvFGHnzmCUJ/wLIofPziS7jk1HX5hQM+pM6KzuYExLyr2pgkNk0e1WgjDVoZz0EMVgwTGvg3n/wMh011+cef3c79m55hgE0VoS1UZujjjO6EZsWgUQkKT734NNf/4Lscv3oNh8+sYPlkMQIGRRsJLdp3WWMUrX4HqWfA4oHV9pD6ORfd3LfBPlqacbhONvTTWsS8t+giJCJ4DD73AK+vGZtM7LoGRzQgJmshVUoZ8P1v/RkzM0s49bIPoBMd8FU2lfNciizz61a9o75Dwxja2lsGwOYsa5vfHcYkWjvE4WDIiCbDf43zRIINDfsQWnuuqGnSdpKs0Ba9pbjG8u4069cey0Mvvcgzb+3kkS3Pc8lJp6P7+nSMJRATBFkpVejTKQoGKGUFhSt5ywYe2LKJnzx0LwMFCYE100u49IxzuGT1MXScgO3TjwLRsm+QqvqCQM/BlLFccPI6Lj/5VFZ0unj1eG0Ff9WkKGgz65QQmTKspfnMtCBYp5pa4GbCiTmbM8RAgWHKOb7woY/wVz/8If9w6y289tp23n/xhXStpYhhxO6vdyWoV7HyAe8r7n7iMW6956ecfNKJfOY3Pkmlkdl+1YAKybUVvMRm8zGptZCmLpipn1uuhmltHJXe1vBdqbShBx2BoyPJTEttdSUX5DnahmEkdeUcEBGqvIJ1OUB71BDWwlH3FBBS8qmq4BzMvr6dvTu38cFP/SFueoZYeWzHoipEn7JE8IOFJlqd7Kk0dQxahZRhHQJFoQyqvJsCpNhORvKiAWmhbOJoUE/IrdoAB8Ns5cUea146CdVRi9RxAHWY3NScegc0QHLzCdVAGYR3n76B57ZsYXesuPmhjWAsFx2/njg3oJO3ovAx0ul26XvPlHXMdh1P73qdm+64kx2ze/EamZ7o8I63reN9Z5zNdBBcoQyih8pijDC3pOS5rVvxKIeVXU466hg+cuH5dHqBwggiHhNSoEs0JzFIjfTk9kN5N7AQGQ2GKY361vz6I3Ub27QVoM0VmVX0rF21ii98/JNc/5ObuOXxh7l389NsOPcCzjrySNYuXw05VuMQgkYqU/DKrl289epmfnjvPczt2cvFZ53NVe++OptYQjc70ElLZVtcDP1+xfREiUZNybpGUoUkQGbu5Cfnak8A1ST+xBC1boZYP+so06TjY9bgBhGbzSthUM2mHmvUfpFFSPU/StHaQCoFvutCyYUjaZcghujSVn2qkXvu/hHeTTI/9xqvPycM+gE7XvJajxBHrkdUOi4yGFjKiUlWrDmBpFoKfFUhyXAlgSo0WdZBhOF+ZDFxh9Ds4Ff3vlvg0+TdGujOrKG3dTe6d44w5YYOMwk1W2x7DSAFHcVApRw9OcOnr76Gv7/jFub6fW544Oc88szTfOjyK1npI103QdkxzFthMF3wUuX50W0/5IXXXmXCOEzHcURnis9eeQ3HyQQxpCRFxWCjxRrH3n7Fpp1beeXNHUwby4aTT+aa9WfRqSrUJhA0qqTshbzTmMRhTBYS40SJTVsqcrVnQ0zUuWkJlnXkLQYhmyqpM32Bw8fICRNd/u2HPsbDWzbz13f+hDtvu4NbVZkuDMvKkuUzK1GB3Xve4q1ej3kfKazjmNWr+Fcf+SQrl68ieA9FgVibthQxiSAU8JmpS+fYNzegNNlfCqNU6Rj2X/CZcdrl0ib7K+03WTdYH/dvXKyGOkQDRTFNP4SUcaCe0VYfdSPbev0CRm2CoiUTHwmKDjlJ02qgjBWDACWezc89Q6fax+3XfT0HfpVK5wg6uSjd1aOQXc3vfV3OcceeyAc++gV80aUapH2EIJlmIjbTq0AWBsOg8P7dEVH1GjGNpokaMRj+/k/uoffUblZPzrLuiH2ZaRSVAaJl6qWVI78LgAKNeZsJUCe84Hfwf99wHbtypeKEsXSMcNiSpdCZQlF27t3BrFds5XEGlnUnuObsS3jnUccA4GOkNxjgpkuMr6CCWHQw0wX/67e+xr5ej8Mnpvnchz7EYQNPaQyVpsRPFXAhmS7NFOtEBh1WfkSJ+PzyCysJ8UoyfsSBrlq06UWw5M19swkTBcSVTHjPLvVEW3DfvXdxx3PPsW9+nt05q9lOCoeXU7xvw/msO+UMnCmxeELuK1w3H0eEQd4mJGrEmJQ/Vpd4qRhMqFDjRkwxb1wqPyAxUP27thInU6vZhSO2dl6rR9+mfWssgtqCEAZpPyFxeDtqgo1rm+HnqeJHSf320hzSfAxKX02K1/T7THYclQoDryCKMWbhruF+PIofoQpMOE8VDf1epDPZTe5QlcPZNfhS9xkImiDnwjH5hqd6bCduSvk3f/E+YjHUNN4kcGS/6NkxZeTZ5kkN7TSZxYaQtEzIzQqCBqxJu0mtM6v44/f+Ns/ue5nrH7yXPf9Pe+fzY9lx1fHPqbrvdff0zPT8sMfGI8cT29ieRMZRjMfIsRSMo8QCIbEAsYhggWDHBiT2iD1/BCxYIEVhg1iwCCzAIRukYPwrRsSSx4kTZzzT86Nfv3erDotzqm7d+153Dw5i5TN6Y0/3u/dW1a1T55zv+bU4QBV+sr/PKuyjsWPe9+x0gRzgysUH+f2XX+NMmHFTYDctCXRm262WplJFQXc7/vxbf8Ot1SFdhm9c+xX2RNFZZrE0ECX20SsI9SM/ROEfrQiQICp0dZ7t0tjpOkWehteUnXGMdhTurRbcCgHiNjNNvHLtJV558StkCdxz7V8FJM5J2OYVEUzZM0ZeLBdszWf0q8zWbM6y+osUSYkuRiuc4T1GzfYYxhXyii7MKrN8GjKJY6rolmeZptDZ1g8zm70mugT9pDhFkc4nUcw9WYNV9NTEKswJ884YiAyzyCz14xZJbZtAaNIJAnRw4LwU55F+5WE4czFVzs7/ZgACOh77uWOgNGsfqIJaNx3z6gtwPqChI7EFUgrtuZPIFzHXs85PDgtGq4lMyRGXLgq7Xcez569w9WuP8NPFPj+9eYOb/SEiwsd37rI42OeNDz6gl8BHt/f57vtv8dUvvcDs3oqVRlK/ZD6Dw1lH2t7lR7du8Fff/jvuLA7YzcKXn3uWqw9eZL7sbXylQatYWdik3qh8IhXFjUCkKXSH1VpWhKFGl0JTNQaofT5NQfOkKO05lEgkASC6EgAADx1JREFUEDIkXZlU8A2VRJi59MoOsxZ0TrVHxSrkA5bfDpbZig59cEZU5lnm1VVEKrjOvglFKxSzZX6qiJXGcho3kHJ3ZIGuUYP3gTnC0p/dpUQfS5/PFassxNCNoGjx8F6dqHOBxMKfN/NQnOKsFKAvacsFam/7a46Qv+wWu1UEsocHN9I6x4uX1Q7Kaj2KZCagAbm5QFIknnbpl8tfmUAHMuqEJtZvREwfffQXH+Wdf3qTxTIjGhHp1+2YTQ1xfHHbapZ9UoOlBaJu8blTD/DY9iVHe1w1mife/Px1vvVv/8ztfsk/fP/fef2tN7h65XHO7p3nga05+4crbh8e8Pb7P+TD/U8QEbaz8sWnrvLa1WdrCMxRpCo+vvVTpB2LzcKtgVykTBihaopXxaSAArAp1SBgxQKL2jQqb9v8W/za0vKD9r4UH0+onnowRDE6sDDEkmU/xDzluFQRlVhxr1wRtfb+av6qhnGkGXc5DIvnHkJ95lxD7bzWpeRp6sIs2FwMvBgf7kKmy03ujhQctlm7YIGcSoPqTrs7A+O0aBiKq4dyvk++b6oZCsHjAFHc/2OH/N7FXV+3skpNHtPkdnYDES4/dZkU/oNln+upIBLQ3I0YBLUcFgk6YRwPD9Hs7dnUagWE7OmzJiOT9taYRxNPP3iZb37tNf72O//IjYMDbq5WfO+9tyEbTCruwJyHyFZSHjl/jhcfe4YvP/kUp5bZKzoer0aqhrq3TeqUFR1j+VBwQSGXxKcCPdewlG4U3Dn4MAxnKy+met3cUVqih8sGr/LKdofXK2DCgAXgH9ocZQTJmRBjTZcWT4soMHlN5UaGoFTNNZ1DyN5M14NJ23PQ/T9d6DwaetAibO0COlmzcv+AoBVgsZG3cyky3UAYX++8spYd1Vi3Fa9NuIDaibltVIs44zg0aqVBveStL8wolFtGvVdFwtBM9zCT05K9y7umOEhzgDpt6Llpp+epS5Gw1cHBIbcWgYs7G1hWkuuCVnx60wkuEgwL98XK2RE2Xwerl2Ye4pgTT833+NPf+G2uf/IJb33wQ37w0XUWqyUHy0NUhQf3znLlgYt84bGneOL0Hludh4yT6URsSjpVWtcpuMMrZ+q41TfccTTTXFtezNRAgVLQorZlt91riIxE85sweOzLI0qEgB2Mtr6b+uDUtVQ7xUtAZV82EoP3JFEYp80hkZG/phT0y8MXmvkNOTij9aI5GPyeNDByl60ovHrGJCWCu/pMwpp9I+QR04BFDIykHRnRUNMoEGrVTi15N3XNxUZZDqoicWQ0AWAGYeVlBgyxEomwWnHn9oIdMmcvnPX8SpN2bZRNZy/DF8HRhFLbavvSkvR+5vYB7G1v0cmhIw5+ruXOB5pAA5oE2WhAhdqGGyAHr06SIzHYz/veTucVMFvCk6cv8uQzF+GZ55sFHIr0lZVa6aqsJZIMe4r3kZ6bkhBCWi8tXQACXyTzHCTIFmg56hGjfbVvRgGLE6chGOTdT2oMQGGEMehQSy9V1CZMvu8hKD4WTdlV62J/UdWy1KhlpYpNDjO3eSwaXfIKFYs0D8k1itHp4XMoa1fGgrrULFDkeDE1eBgLkHLv+3oYY6GuQafAJE4KsxqYWhyypuI177ac463ZIIFaYlia74jaIV/CbrKi8wBqYIbSIweJ7YMleWfJw5+/iPSgYpHW5K6m6oQqNhWXFqGGyO6e2yLlc+wvPPc73Pa1KSHX1vOkdXpMfQV1Lq0B28zxPppGN5fFiQEJkgLSD8/viOuw5BGU82Y0TEPDPNXQVustM6GZj78NT4lK9TKvVe/0702rdtYYsE9BbeXOKRkYMEiiUZ4+g9IkCiEFNtHGpDMtEocq+eIkCDU269UFrTUC7+NM2zCPcbVSe0D5pQzqWnPFmJrfazcwuPRmS/bC7kc989UZyMqlK2d83B257XqgMrmzG1ipU+jg1d96mRwStw/n3Li7jagt+Eo96ra41yekSTYyjzGOWJ/NHFEyIXdoWt+8RzOTJTHVInDl3n0g+RkYiaO608dRzrF+6r2aMCsU9+UoHcmRnXayfbVxOlUPtbFfxco4lo/fqdsJ3hIijhjHUqXbSp5lk6xFRGtCNNH5p8i1oMospdH3S4H1iqjlo+tXF7Io7DGjhAZkcb89a61L/NqYswWeAkGtmLuoEmWdcYTN4E3Mq7VI7hMPlcI8IToUHUqYuv++xb2a/ZNX7JyK3P7vGySWvPT1XzYtPzI4vNvH2K7I9gli1ke0/uoXH9/h4WsXuMc2H99WUrZK7DO5C6EH7VC21m5aSDec+EVKaVY3sDcvhzL0xF2jaIuj3dw+rjgo0HpjJHf+iWOk7wjKOTZjcomu4hmXwcpVbRitoFXiAN5NwNSJyjjOPJ3bqJKTVbYZMcmQHDeMoSSpbbAXGU76Jlm6hno4FGOSzBlHKuNM72dqWv1/LA+naxjDGEdH15Q0gqi5ShwBurX1LvZXQiZgjWAJbFPNviSvDd/T+hxRMc9rZP2FFKlTpQkN46hJl24YE2GGvnuXUweCzhJPv3jBAm2ChQ+FIIN6J8qwC2R4CUHxNiHCcy8/Tp6t+GRxjpuLbZa6i7IiMzdV6T7SBsZU0CXTXLIKx91hY6p3r+7FVT+180h/zs2f8rRcgK0TaFP+vWInjoqiORNS8ionzcjVOpXFEi3tnxLcaTcvG2f6zAYccDVkzDhm50zzekTzRqzQQuLXma9tRWVla+1na+NpGGXT78Qlop/llq6t1r6wjDEgo/FaJHVuqo9aBzn1NbS2Jr0fUD6PbCnrw4Egtc6CFkBAbJ/KmnqG2TfVlBAvilACyRSkQ3qBxYLVu5/Q9ZFrr1zh7KN7RM/0NNy0MIcUm6ZAC4H2d2APefxLF3ji+Qc5FOW9H8+4cxgRZsbxaOMHv19qt4j7OY6RAhsZqkCIGXdsZWOYLEhvgYrlg/9Xy+RPGt2mmCMxB7A92zaHNehpObE4wArjaf1zEpIHNOnHNrkwUn3W7aDy86KetQllJbx+fErkhmXKM4s6K+MC6+2z1xi12Bba7hyoK9wySnNtw1AWIGypz1ObLzaMYzslN2MYegYNBdd9P02ZpkqZMHzH5LK31bB1jgLbb9ylO4T+zJLnfvMJx3akzm046kL9+TGUkU559fdeoHt0m312eONH57h5eNYbkm7aDO3iAxuMbXMi2qcicUAJZZnScdtOaW0bn14/nlYkENc05PulxjehYmqa2zcAMmIc25bFXml7dxZ7Zrq5juq8VrqzFbXsKPumUGXWVkqs2UL92hoEzZXFu8bmkcb22VRPQHRaWKNQu6FtvKLDuILbPILUqOWoY+1ZMMYpIqf0J23HbpKsNxyqHK2jBaRKhlH6QJRq28x0Rfzex3TXzff3zT97le2LWycecScwjYWPz88Jv/PH10jnlITy5nXh5uICi3x2NFKROE4thY3GIhhKVz4g5N4LwGq0lusNJdfGjrJxrFHfDCsEZUw0ZRwLojlhuhREbQPjbjJ6cSO8hqbb5qgbHbwt4bA5Oi/SF3OTMJbNr1RUlyltYpw11ctVuhk6aukxnXGYbHTxzViOlE0tPTrNRxTo0BFAAIOatj7+8byKgT2rjDG5N/36HCeHQECqy8IHP70JJRltAAdgLgl6WH73I7qPlqT5Pr/6h89y4bFtck4/J9NkCET6tGLvkTl/9Be/xirCiod487pwsAqjiNGfm5rRThmnDumYGU0NzPuhtAGsyDmQc/Swm+MpbFIgNbl9c8Q192FbgUmGo2gK7+JGcqHCOHEDTL6GSh1RbaZQjsfbrVPGAZhWtBk/z7I9wwmugdj6mrMgWely2qgz6HGW8cR/tPzJXeLf/4CzH3ZEZnzjD67x9EsP088BZGj2dfT4jzePLVjCPewqLG5k/vovX2d5/R7zwxnzuOTy3j0u7x3QRQvs7EIga0/Opi0DlPjqVh1rhmFwdjO3Loyh0cSQO9pcZoXYS7xFfXcVzxzV6Q3ktZN2ej+VnhDWX0CLrBezp/BUKiOLVo5IGXJerCjeVN9252FxTlLyTEJ9wYpY7a9hNm4ED4dTH4LBu2Ie85SVGEJ1flr3TDUnqEiTTmCTLfUPJCuigRTd7JVuFBVQnKs5KJluo21oYx0DyCKxevdTST8u6ykyKgyfZP2+fRhL/U12qWYhdSXSQsxJHsxap09+yioxRrbfuUV+5xbzOzP62Yq8veJ3/+SrXHpiF+blnQtNwNlGOp5p6n0UJKMK9+4t2A27vP0vH/Kdb3+f/oajbXHFbojE+W12c2LvtFWxf+jMAVHvUlCGUtTACh9kM7wlD2rByRqULV1o4M0oBFGWTQZfjJuZYz1CZDz9KEf7MYZrlb7xCwNNOVMhx26jiO+DdaZR8XTkwjQhVqRNK+JDrb9cKLdVOAEdlYNqgzalRhloWW+nw5FRDDl4ct0oFbujKCkqQo6RtSwSKXCHz60ZZ7ux1d/5qqkuCgWRHLeWz3HOdLcayO1Mj9DHoTtCFiE1B6WmjCwzerAkLg7Zvg35Tg83emR/SeyFkCKLcJMXfv1pfunrV9i5sGWNnj0crISrHbcNT5A0DlGViiLBRSsJyYHF3RX/9fpH/Oe//ogfv3uDuZ7Cwwir2mJdWAxnqw+NhlyIi0EFhs67EAhkTnLCNcFE46jJ4TlFkPseUdX1SO3p6pyAoE8X9Kiv54kONgqP10CX21x7I0u7tqfEJv1cS9rB+lPWnpEb9M+uPyEPSqXaXAUPy5P7RmT9hG8UomITtVdNa7O1KlWZWY22GI33aLL0iKO/1YuSOiUm11wQH9XSJP7pezz/lWf54quXOfPQNmkLUp+JnRWWrL6YgrIdQfehnuXhdSlW2EAzEgU00yehC5H9D5Z8+N773HgvcefjO/zs5g3SIpHSnOXPbAC5S94Yq4El66td336jxrYTrE4YFr8dbXv1p6WqUqLoWsbSGLELFdBufRtHoYDD9tBaz3fT2O3OR5HWb7RJxUd99/itaJkrQ/g/khnBDNojdGsgitarj2LKUYTkfZE0nkrFIelmfkocqbpV7lo2HyicOn8HgJ0HzrMz69i9uMPpS1t87uovcOkLZ0GUfrVkNtsy/gigIdNnCEGGqjSfWj37jP7fqHjrB3VlgOHLvz4dZP4Z/V/TZ0zzGX1G/0v6H4/0lg8lc64lAAAAAElFTkSuQmCC;" vertex="1" parent="1">
          <mxGeometry x="258.82" y="80" width="142.36" height="50" as="geometry" />
        </mxCell>
        <mxCell id="JdCS6cSA7xMhqchfe1WI-8" value="&lt;font style=&quot;font-size: 14px;&quot;&gt;fine-tuning&lt;/font&gt;" style="text;html=1;strokeColor=none;fillColor=none;align=center;verticalAlign=middle;whiteSpace=wrap;rounded=0;" vertex="1" parent="1">
          <mxGeometry x="330" y="45" width="88.82" height="30" as="geometry" />
        </mxCell>
        <mxCell id="JdCS6cSA7xMhqchfe1WI-14" style="edgeStyle=orthogonalEdgeStyle;rounded=0;orthogonalLoop=1;jettySize=auto;html=1;exitX=1;exitY=0.5;exitDx=0;exitDy=0;entryX=0;entryY=0.5;entryDx=0;entryDy=0;" edge="1" parent="1" source="JdCS6cSA7xMhqchfe1WI-11" target="JdCS6cSA7xMhqchfe1WI-6">
          <mxGeometry relative="1" as="geometry">
            <Array as="points">
              <mxPoint x="120" y="160" />
              <mxPoint x="120" y="105" />
            </Array>
          </mxGeometry>
        </mxCell>
        <mxCell id="JdCS6cSA7xMhqchfe1WI-15" style="edgeStyle=orthogonalEdgeStyle;rounded=0;orthogonalLoop=1;jettySize=auto;html=1;exitX=1;exitY=0.5;exitDx=0;exitDy=0;entryX=0;entryY=0.5;entryDx=0;entryDy=0;" edge="1" parent="1" source="JdCS6cSA7xMhqchfe1WI-11" target="JdCS6cSA7xMhqchfe1WI-13">
          <mxGeometry relative="1" as="geometry">
            <Array as="points">
              <mxPoint x="120" y="160" />
              <mxPoint x="120" y="211" />
            </Array>
          </mxGeometry>
        </mxCell>
        <mxCell id="JdCS6cSA7xMhqchfe1WI-11" value="&lt;font style=&quot;font-size: 18px;&quot;&gt;음성→대본&lt;/font&gt;" style="rounded=0;whiteSpace=wrap;html=1;" vertex="1" parent="1">
          <mxGeometry x="60" y="130" width="120" height="60" as="geometry" />
        </mxCell>
        <mxCell id="JdCS6cSA7xMhqchfe1WI-21" value="" style="edgeStyle=orthogonalEdgeStyle;rounded=0;orthogonalLoop=1;jettySize=auto;html=1;" edge="1" parent="1" source="JdCS6cSA7xMhqchfe1WI-13">
          <mxGeometry relative="1" as="geometry">
            <mxPoint x="480" y="210.59500000000003" as="targetPoint" />
          </mxGeometry>
        </mxCell>
        <mxCell id="JdCS6cSA7xMhqchfe1WI-13" value="" style="shape=image;verticalLabelPosition=bottom;labelBackgroundColor=default;verticalAlign=top;aspect=fixed;imageAspect=0;image=data:image/png,iVBORw0KGgoAAAANSUhEUgAAAZMAAAC8CAYAAAC9kUM2AAAgAElEQVR4nOy9WcwtyX3Y9/tX9TnfcpdZL5fhDCUuEhVKpChRskgtprXYgqJYcRzLSWDAhh3ASIIECOCXvOXFbwmSl8CAgUQCIkSRDUU2ojWRhWghJVGiJNIizX2GHHKGw1nuzNw791vO6ap/Hqqqu6q6us/57v2G1DL/wZl7vj7dtfd/X0RVldfgNfhLCqqKAPlL4FWxxny9hvQa/KUBD/zFOWfyGjF5Df6ygwLeOQCMMSACqojI13dgr8FfYFAgnS+fXf/zS1z+bBGTPzsjeQ3+koCiqIIRQQmSinmNiLwGryb8BT1ef7aIyWvwGnydwHmPIBjzF/RNfw1eg1cZuos+kAtnoIOAJoCoDDd4gppAlFHiCDfFG5TtnTN4+RS/2aLnPZyegYKyBRxuAwbFI9iJ2KKovwQ6uIQ7dPFPkngqdyGaSvy/vkrimCxMrNWnFqL2HBjAF/O96OgvsNx7tSXFadzdQn2/osNeDNcrFZdk7erMSOsrEkd3rxDGJ8O49zovc90uPFqfF53pqSm07RxS42yJQSo+NqCK+TWb/pIjl/y+tFZ3s/4FRmv83upz/m3zYiaSro8nylgw9gCMQVcddr2GtaG7eow+cIw1gkqchTcgoLGpgEYV1bhPEnCqiGnv0dcALkZM4hr6NKH8Gh7tlc50OO9wFlBBNBCUTqF/4nluf/xznD75JPriCf2tl9GXbsO5Yk82sOnpvUfZoOpxWzA4rAPTOJCXhoj3eEHaBz2MySCourJJsct9FqfiVQDdcaKqfv1eaxlM1aZAyBd7ac1CP822vGveC6CixTzVho/ZzvUh5b4urL0Rg/FpD3V4Tk2b6Ppq2DWhG657M7Sj6tmFiQNhM8NQdce4AcSMZ08X1m+4v3FW2mg6EZP9z6yIBddYBxPsUnVTXuaJcH12HIpvrEXNHFwEEk4RhK61LjK3ZxnzkRFJL1IQEzUdW1GEHrFg7SEYQ9dZ1usDWBvc9Stsb1xFrhwj11/HA29/lOP3vg25doiu4ihVwqGTtI4OvAYKZe3XRZV2F2ouF6ikA6xA/GoI49/2Wzrb0bue7lzZfuJpbv76hzn98J/S334Ro57OewQ4YDtsS4/FSQc6vqyGVTzU23iKBbQnGan0z6tKQhMi2Q/EXJDm+372tz5bMgGsgtE1asvxiDcBh1bX59q+6BjnwETk58XMsMFVv65NtNX4BsH0uAus+75gjUXcHki769JAZm7gQkigdzIhvp34P8cqecX4/ffH3wU7afdcnUCo5reqBjNoXfYH4y0rVXoRnPEDNjSsMRhWgHEbzlaOW2vhwW95Jw984K9y5QPvwl+zGGOwxmE2q9BgJ9BvoOvg6+CNeDFiogAe9YInchcAXoMkIYpFOHv8ec5+59Pc/tDvsv3CF3F+A4AlbKZ4weqK3oCzHS6uxYHpi5dJaWxmwlk90C0vmHgwEfepCZ8cTG8R9YGyX2ANTKZ2SODwo5qP0SdjUAnpKKPKDNunZvxB1GTc8Nz8WpzTFLn6OTWcpBdmHG2CdKVcf4PNxt3PvJe+Sx5RYBo4ViVIENVgwJlqLyQbyRRMdutEosk4XE+Sqab71gYbxjh7LKZI3CRlmJhxPBNklM0l3Dxpud1lkmLLtUht1yuk9ZUFbr+5vlk//YT42klb0zGb6nvJgJT3yyJBWETmYvAzUlUTmtqGqr+01F7wujy2oi3JFIPqM9V+jtAScghvXNdvUDqcPeXQvUKnG0znWPubWNmycmBsYNPVKR6HKLjDNVe/590cfeB9XH/vO9ArgnQmMKjqEWMwuzQjrwJcjJh4QDx9fElWLqiw1ARxWk4dX/25X+H2b/wx9vkXMc6DMUjvMfR4OpxV5AGLPVjhRXBW2EQCYSWow5qQJGITNlpRxEsTMYsfRfdBPSAjFyM6ohRxsnD6ApgcaTfsNNKHlyc/1iYd8kbbJvWZtytdEFUBqoPgsr+LX7IXyUvSE68n/fUTYiFIQnrZ9qtYVEw4tJFkDr+hUcFlCAjCDi/j9H1uIS7JqKKgFWJUoBfbUFsIRlfNNntZZc/P9Fn8ZYdvPvve1HKKZYpo7TDWsu1AXLx01HJB2OYotycKKh5RLdQ2YY/bCN/ToRVBSOdLK8ImxqKYoAZptSXl/ToQ7HyuAmLQhqVyCoJOtOVZ+1L+ltrzGYek2b8tDaWnTVScSvP6xLqq4Xk3QwSdTq9BFBSzR9zCYvQuX/Op+i6H7eoU7Bbjt9CvUFaBkKhDrbKWl+g449rpUyCWY32Bt21/FxXHphM8njUee3DMnbde5S1/9ye59l3fBivJtvJrL59eWM2l6hER1I+aST3ZcutDH+NLP/tzHD9xG4vireDU09mOzUGHv7GCg/Dirl0p0fcmIP1Ni0kiEpgWG1HpYnPCItXOBwKSvXSRcxa3IJ1mCH9Arb1GnV51MLfjdzu86OBFsRkLb/z02TCXmpscX0IvdsEuUSIZH5HLhDuNs6gPmRczEKJhLs0+0rdV9VsgQLPjq0QQHwljSZMTOygZZ28bc6ilgRwhRQ5uuLVEkLmUG9D4SEymkKSMSNw1tO3FDraQCcLKyHxOqHyBTHMkHtZdyBiPoHiMxCdveySWEyWWCCJTZK6YhkQqcZwy2MgEKex7Hpn2UbQQxuyqcyB0FX+UnRn1E+ahz4hJC0mX+zUlJlr9O3lep8QjXZ+zeijlM61xuXi9/qmPiofOj6+y9QG3jTdNxXSVFZJUyb1DxQRticBZt2IjwqHf8qj7PDf0Uzx8/izX3BfY+lfoAMXjO8vRB76d1//jn8A+dAPTydfFCD9LTJxzWFsiAtXgk68SiYgDXnqJx//3X8f8+h8gp3dAPc56zLUD3IHiH1gP7pY+6BoG5C3Z/8MNkKt5Rt5LgrThx+eUgJASKk1tqY9xAxpVJqrxZdGJ3kJ8HJQ2hP1Msij2xaf+BO91kFqaHE08dDYnejnBqzklr7G/WkTNkKIELnWOE0+IZ8p95gir/jv1IcPUNXLTHo+JCCjIdm21k5f1AjMW37RsR0d1XOUrFfdITc6pm3g5EgzJx51ascW8VVoIPxvPMBYTX2BT/D62YyjXK+79wNEztFMOKDzji70c+0hnOMEgvTDOM51BLzIcx0Ja1OleihhqdZhGdY2Xri2FDS1IZEaSpD3uF5KtVwtJU0qP+R5PJTnoFxxEauF/jpgEaWMKc23n7frh3zDLOQIz5zCa+u3j7w2N8zhWDVLUPqAS+4ztJsZ0I4oVuMZLHOtXudE/wxvcxznqn8ToCX3n0Dc8yI3/5D/kgR96L3p1hXhFTMCD4hVsIJZCVL6PG38psFMy8ZXO1HihN45OhfNPPcUf/7Of4g2fuUN/fgfYslp3+AcP0WsWf+BxZtp87hBhaoNAohJELihtgmM4AUZGKSONL0h2JhA8r1jfRWKybEIzUVU3gYYHyvBM4s6isdD6UVIb5mg04kYZDsQA2fxzlZt6RabGhBJkFVUq87YEPyFGicDk6q7W85mEYzpaJ63VNgRisgwyqLlKYpKNUTODqtgRgelIWGoOt+xhVE1plExcE90k6OJaCqJdHNv0MNSSV2JzfCGNtB0QvNSSXBtcLV1oKUU6U66X0YbkIabpRZiIiRNbeOJN7suIX2KYIKj80tlpKQjC9Xli0gI3ZwiM4BkReYuYQEAJrbHMEZN+BtMFNdoCcWOeqJzvodfxC2Oag1zlZwlzTQxIJ2B0y+t4juvyed5x+ht07jk2WF6+f82NH/l+vuEf/R3kiCBGmUihOhmdpZIh8WtFTNJPg899RILqPbc/+Vme/Oc/z9XHb7I5e5ntSugPO64+fIyuOtRsUUvbdW+CTKsZRYIiSOTUpwQFwEoiKJH3jqor7xWjNkpBgdtVNPhsV/3NEpOcOFS/5y+a9z5IJzUxiY2qyqDGGO7I5w+QCEoy4C8dvAHpSGFLyaHNPSb1V87NtqWb/Ls3tc47cdcN7lS6GfVauqFEkL7WpxfEJN47yOuCqp3YDsqR53YOM9zr46GZEoqcmMzbBzQ3qjMSk3wtRvtCa11aKrsS/MDFxz40ccyjlOQlzSkQk1oCTSCmJGAaBhGP1rxtJjEcNeFMhFlJkm/r2bZdq97j4brOSdfjmKOgXnxymCMmSQqY3J8Rp7qvlkqsNZYWbLU9vqL9GfvOEgQiNJVic7if29zQT/Po5sM8Is+zOX+BzdUDrn/ge3jwH/wQ6xsPolh6G/bSJM1QtAko6RW7d++vvWwmGpGxUQO9585vfIrP/8z/xtFzp5itQ650uGuW/sEOcyA4XFCIqAxq57LB2Hm2uoUUAoXCspBetvkzI9L2OiqHFIlcvkSiEhcuSimSSTbExW2OcxhL+6DZ+HKhijQ9ZqXwuBq+pall8zeZ54hU9hMdhPFMDSJ2lpiEZ3IucWyvlCzyeZnG9SkxmbafI4WRmMzSw0zyWiQmw7BG4qlajl0niuFE5rM4i6yPqZQSJLRkv8ilp5YOIBCFOKya6NY2mxwpZ1JWy/toaB8zSJwmk1hzgkJhPxvVUAVilig7195fKovEJIHLpCwztBOdDIo55pDmW6nG4/Nt1VjGWOwhTdS7N0dMYETgreswtYfkf84RljnJBgJB2UUsNheUTiDT/Mt8/x2e1/ElHtOP8vo7f8yB3uT8uOPor34Hj/5XP4lcPaK3ho4xXqk3Pp58mNdUXAz2UnMFI53AVnnx00/y1X/6sxw99WW2656+86xffx09hs2RD4FkMHpTLex4jcAnKq9sxwuJopJQAIwoPr6ASeXl3XiT+Mori0ziAsw2zTf6jFegmYdYDbYPEpipf59Tc+Uwo/KaGORRUi6ARExyWCIstWpqt4G+HO+cymu+rVHlNdElaz0WM3L+i8Qk3q/j33Mqr9pJICHQtsorIECXt6U2HJiGKsaLKQz/w/XJGpvJuuSxOMs69BBf5WVEt1qtmzQ9x6bcfi6l5Ai79rLKwVUqO5HkxTf20UacBqGbRapzUsowJkovr+E5RjVTbttYIiYJ5tRLgdgsj6VFVOZUXvsQkxwuQli8Tj3ahOC8FdoK/76BF3i9/BFv2n6Kw/NPI6sj+h/+Pr75v/7b4ZXs7PDwRjw2x033Tkvmm8htJSKCquKfv8n5//zzbF54gpPVBrcGfdM1tg8q2wMfAm9WISq120rwYtpDpzj0KSMxCqOToOkI/xvVFBZCRE/5fJ52AhjjYAh4wc36HY94IwXmQjn0Je+IHerfuwNJ8uhwIeO4PYX7GGDVLfCMbvb1b0PZTghsbLcdSMnugL3xAVeIpLmCqAm+D59WU+onKTna9zlCsOvCPTkaXuKA9oQgqyz3ufx8ML4uqU9qsp98uJba3AeFWfrZdnI/sWl7wbox9Rlsj+VuIO8zMY5Lr9/cWITwrl/Wq2skxdFRKFsvCwZbSfZ3r6MtxQo8w0N8Rd/Ni7yR3r6erVtx87c/wpP/8lfxd85Q0+OlR8XTYUbp+pIGG1iFIfrJDx4S0f8pBM/1it70fOR/+Bke/NzjrFfK+drQvekYud8HzZMqnTPYyDr0neKzDKytLARqSlXXBKKysM5PNEDaNQXvBDOovMDkgUMw2E9yG04hCVkJ4wksSWH8KyQVr4GySAzIiydS+tAGsMzypEarqdRSTZn1LPw7tS315C6wRj0t43ytB895yzm9e/G8ukhN5wz79fNbwtHaB2UE9aMhcP1lbAvUgrNEcVY0qZYUUS2kFM2QuOyZMchEqahQnaXDqTkKY5J6JryUOUG1kzUHxtQmM2s5tN8y4lVjUXV4E1DlnMQc+uwHDy8RHWIhJMY0JTvKVGHoo0WoC4wkLqq8Qv8mXilHqnHtE5qvnQbc4MxwEVKdPPGdjsREs39h3J2arTES3qRW3I1p3H+3YLNB9Av2lbuB2nMsQVKBCSMD/Dyvw61+mI1Z8brzT/HgyXM8/2u/xdVHv5EHfvCbwQqyFXS9DZKt2L2zAuwCgw/n00dfMYmCpBNCTAmgJxu+9Ju/yuHHPwn0eBHso1exx9DbFM5mgo3CB4OzGmVQz86xRPuwSibphRXfojxFG6NRqXVfK/2KiIzqLglrseijHaUlALGS6Ep4xik4bXqwTcZcgZfGuDX9b44/nV5rvaYSowemz9b3zjlb6mB3avU35WKXxtyCcG899sA9TvRkzfalyHN1N/3Pj6seU/vpss+AjOu1jL/vkKZMzGlXI+qaO1o47dV92bhEI9PVXsccZHY9w78Wj50NG2y1e9F9yccSOfPxVZ38PgcG6GaCyayEdvdFpyaOYwnubobzYHcoeII8GMBjeJkHedp8H8+u38VqfZ0HXnI8+Qv/An/bB69FCYy0yWx5lwGRhCg9YwbcTm0w1mCgh9PnbvLC//tRrp51uJXn8PoBR53AgYT3wgQOMqmotLFxKm11UMX0DUSjSE9Q3L+gqlIZOBAPIFKougDUjien2YeAr700NY7TlvfmuYGcDQRZTSZlSHh5a0KhZNxnYuLieNJ1MfkJTwS18eKqB93NXy1puvcDxSzk/JpCT51GI29rWSSdQpNIiouf3W0Jc6q6KIrG7817smhYUR+kXko+qZQbR8ImNERywEak3n6Vg8rSRk/AudfdqA+M266cUOonOdWS40pYF1cR4+y+zDLhUbw6vLrRmYU5ROwRtpOrYf3uXh4wtG2aaSx3q7GxlcortDUXVVPwlBNYyZLceXFIaqx9wSu8JA/xJftebrqH8ecn6OOv8KWf+xXkJO6Yt6CCuyecUILBhIXpFLYI6j3S6xgk2MPLP///ceWLT9OxxR2v0AfWuGuxBoQElUPi6rMUVMCI/L0qrvmiBgRch1dokt8giGYiGDXLIv1wuxm4AxHBWNOsmqdoZBQbRKtTsBoOzczBCRyBRt+1MA8vEfdYCR9JqoSxjzy1y/A25k42Q7BlkH52SyflgbAzL+v+yoXk4bA/f2UYbTajp5NidDvTTgNxqcfM2DYm6cqH9RznL6oRKc6NETrV4TPpAyISr32W2sSv5O3HuecIaCmePEi0rbXJiVE9h1ESDPN1waaVS3bSs8scHKQ+zfr3M2vXPgeaXW9LJ6mfUE7iMiFJB00kfw/t1ijCDJ/p/HfZhTqB9cINK9nlLJ6Ni2gmlv2IigfO1HDCdb5y9B28Yt7Clc2Wp/7N/83JZz4b7rFbVBz2Eq07gx9nND0Er6CEv7aw+eRzPPHBD9Npz6lV9KqhfwB654K3SXwwIcz0yUFFMSaohCJB3BsUJSSSjBJLCzEJJDd3BZz6SFAUpyFTrM+IkxoJEgrB6J+rz0KUvw5Erjbaq9XlU4TiOgaVFxACGEVxlYRS/53A5/urZX+BdPm4MpmhWLfjh0BQTAM51Mb4pI7Zl9DIjLqrGD+5jSsQFKNTLrU2xg9j1L4xHm1wtOM9MoNAQ22cGekgN0JSPm90hqjEj4kOD1L9OtpTRuQuuMoYr4OqK3CdrfV0BNtTsAmltnyUXlsIPHHT4bsO9qWx2zYBzcclOx0VxqxtSUqBHPE22sQhbKp22mOx4ifrelHoaEsG3aI0OC8BCMRkMSUsSSfpuaXfugsQlGF87Cf1hLNoucODPPO614OseOOL9/P8z/82/sXT4UxdpgQVz15Adh0aEX5cpQ188hf+Lx7wAcGZoxX2jWscHm8VOkLSRdWg6oorMyc9DFXssnuLBZgEw0fClO3anPortZvvTq5vl0piCv1NEx4WNpQdYOKLVcQczD07o/Kq72mdrixlVRp5W+V1DxCIypxtJbtP+1nuvzTsT/eprY3ZrfIqClXlCH6PWh2hBxcJb9Wuuphwcf6VNppz/L4Yq1Gd9SbbpVas69/MQx+I0ez92mwrxW2lUNXQZ8+ujBD7gtB0iYm/7bZByJL3oShG/OBQMwe7PLnmnllSMSaCsm+7VnarvJagE6VbIHBzfXYyb7tJBOKUA77Ct3B+6514+wbUXuGlxz/Hy098Htl0U3XQPYJxaec1FAMShV48WzwnH/s0Rx97miN6Nl7hzUc48fQ2EBNxAj7o99UH1ViSTHKCUnyXyTs5grSJTBipZKojGSSKQrLITtfIwUcN0gzO8qKDlKIi0dukumcV1j3lAsMEFZhn/DSdz6MkFgc0m8k1/hwYxzhGb6KEIjJ8xAraLayRWNgjfUfLnTellBh5pdwYX0ojoj5kPC2eD9x/ajt98hnW3GkaTWtCom5QeakGz0AfvbZ2vXptBK8o2/gJ7fYihCM8mi+DhDKO29X9Fdlux//iTBij43USe2Lo4yd6Uvl++BjdLiDP4AtvM/uJS5G20U1StR+ISoiOT5L8xfl8iW2l0Rg8NlQcguzMp/+89iRFX4qH2F9BujCOPVpZkjJafnxehV6X08sLpYyrBJI+B7tck3cRlHCPsr5APRRhPogx8V5KiH85MTf4yuHbcXKNwxdPOf2VP4bzLU4cm+z03ytEWUGG3ReEDsPKwfNffhx/dpPz8w32uMMfaMHd+8wgXRu67xpkN8FUqxN5tOXpNSaqC+0aUwkOAgYb8ngV0oWZSigScPXsdtfz7wLhG65mUoeIRtVXIGZOylSMZN/r/mThL9RFNVcyjuqs/ST9Xurm57y5Lg/mDNLz9++PCqXwUtoNnSp21rMqtLMLoQkj0svVXEEddFlrue96BTfr9C6E+Kzd9pPLgKRiW7IlBGbi8seyO6Y/G8OeUsBFDN67oJaglmwp+0JSebWgJjJf4RGe5x307iW6jeOpz3wSPRNsD50uyeUXg7EeV+YeKwr+5Q3bT3yOjWwxByv04TWyFvyC26s3oyppYnBu2FKWIE/jtKjamns+5v4xYgZuycPUe0w8XlxYiUZiyBSwmQo6FZVGzbz9JHFvohKkH2FibBXRKQUZJKtx7skgj8bcYnEsMvfqpiC9HaqU3DicuhZqhF/zaNnzmcprHilXfWo/xDgMbS6ouURdFMwi26NzhuLQ1uimvDSeFA8RYMnLy2gfvabmiU49nvy0XpR4tiFJTH2jrXr9opoxy0RREDz1jRLT+xOrubnkRDc/S0sQ9nL5jAZ11H4SSgsp1gGEQY2lxWefti3togjjOAufmwl0EiSU1YJKLNx3b/aiFvRYbunrOOd1eDacvfISz3zw44i3oSTGZYiR5Ouc74ZTti+d88qTz3PkYOt66GAjrk73g7c6EpglZamOwVVqQXfFkmU2jsKzawG8eLzxsIrPajo8BisSgrbqYVEROVXwbjTED5fD94nHblR5URnmsydj/sZAhcS0yaKLBKetyJVCpEpG0GUYufQ5Y3w90jQlGRQWeTt1u0mdFDn4i1Z/rscgbvw0QCBmi46qtISEauK/96tYIj+b/Uc1/9SnVR/ckJtOA24gKrkt4UJKJvULyG1J4mpfH4N9c2SfGKYK+Uc7QlK1GbTpWWdw2BmX71ac0PSePlN3pr1sOVyMbc6ZIZPtIPXV7i96fzWuL6GrVjuZnmP29yW1W5JQWgXAErQzC7TBSpBy5u7NJTbHmjtHr+e0O+T+M8NnP/gh2EpbPX+XEIIWtdSOA2yfewF57iZWwR9Z9LrBrQPhWEwtIlFCoTr+LS+vpP+ftQGMKq9m0OIiiQc1wZsr12ubKA1M0oCZHhUJRb0yD67gXJClQ4+73dyCRFjSs4QUW6KRs+4keLOZUV04kU5gIr+OayijlALopLJXverKPmlERm+uclajmiapv+q+iPaTdh9WU9ulV1QiBkZnhLsqnUnwPGkTQ4MiWf/hjPlMgll6WUYNfyFlheLS2X2OOmamZX5O86oj5KcBjIqhn6xLgiUDsVGH3bGn1id3YQoPSJP1pz7aWGKp16KPwmV4pg8qAhDXOvVxsRh3oo1s3qXdisdGo3zddu4mfDcm5WQEz72rhDF9Sb4PgTAFZ6U5SWWXAX9fo/y+sJrpL3+LNqx50TxGL28GwD93E3f7Ntr1i5qBi8AwhtylUT2c/O7HODhTvPd08YXfig8xISWjPIVIBLzRdmqIagQXcRUu3IP39M0LxlsmmUmNyTzMAG/C8ltvAwEp2goJCTW6Nu8acu7lZTQU98KN6WXydcltKANk8vmg6qqnVwdkBpJLS/bZbT8J3ly1nr/8e3fsQvt6jQCCCmn4fccREZZzcOW2LUWLIMal54KH11Ly8fknNaV1mXl6cMzIwFQEORCT2lEh/cZOb6blIYbEo1ZLKbbIWBBVXkueZUENNUfI87GPZ3QfQtJGti3372o8ZNLTvazP3LgqIm5kV5DkjKSy41DtIihCMMrvezatLLfZ0XPbvwXX3Y91R/j+Jc6+/FQTV9wtGGe2II4uSieOoJd/6YnPEOL2FPfGY9xBeEA05LDyuTFaSmP8cDmuqMtcYr2E4EXnFZ8+qrvVXkXD+Qxk3lpmYFJlNmvCEwhNDiqKE4fX7egp5t34yWCpxkHu5eUSUVWg1wEBuUxCQUHF46JBfhhkpGnexBiDRHw1rWkKm3RZVPM8X7Ss8hph9OmqeT2XfUopSPy28PJyEmqJuPhfghEBb1Bcu0qd+EztFfqp1S4mVlP0e8S+7Ad+R5yFj/aT6EEl/UBUinFlbq+5x59vmopTjjFIker5Zw6sVvaTScyOR7XHi8dlHo+a95eB+m1wHZ7+0uzfRTSUZhPm5/Ha47VHdQva8t5LrbaM8TLUdWmBV4OLn/B36L3OhZX4sHqlu5nr45hCluGLnqSuocpMks0cLKm68jb2VXml+7oZonKbYxxrXuYG4pU33Tzh9DNPYNyaewv1HMEkPVKiUBaDOMezL9xCdIMTWMf8W11Fov2M/j+HRFDydCpiAuNvjAyfi8CFVV4Zl+81RtOLiR9penktzaW4rS00jJBC6PPnlGm6emgcyWUwvmx63kY8z11eDiyfAkOdtr3U198LgynEffFuoq4Z7onxIPvadXarx3LQpppgVzR+bpNZ8vparsg+M5Ysq6rxpVSXJDsjkO0AACAASURBVJOLo8wSxpSc09xsuQLwYmkdl5mCEHsyjT9poY/cRlGrqe5GFXZx6fVyoNvTSSDBErG8xZX4zSJbw8afofjL4cMAkwYqEitl9Ip/Qdmc3gSxuLXgrgl941CnqPYE3ipae3tJUMdIIydJ04YSP8V1S9NduCAoubqqfrmrFQ6pXcI9yRqwJJbmqfFVNUhmq/GZyV7UUpqAWgmR8XE8zfORCSRle9mH0S41NL+TsfA7KF4JuTpm2b11v1TtCbmMapF8f0J09IJjXDm2iTdYUgmVrtwhZ1fitEdb0n5p68NZT2lXWlynLQhFezNrJGoKaa6MaUk2lBqWCFLK3VX3OxKV0LYFuuq+MZV81r4qGiXLXM0W1qy2GeXfp95sYU4htYxFm1VOgjG+jFcyMb5ozstLGG0oY/qeMYivlgYSUanRRyundeDsWyriy3UVBjiQ8fNqQvIgAzjhcPzBC/7pF+B8e3nERJFYVEqiKls4e/aL3LgTvFM2acskDKCGGtEryzaQnTYUIt5ryHfa0BIkVZSio2+elZg0MbevMNZAGYjAyAkple7dSsgyXBAhXxBFNVHKyqWD9GVGPnVdMMq7hnuJ7Mo2XEGxzplMrBMV1L1BsnlIZeuIo9jx7L6wQXSDWVCN5ONpeRrVSQRTOpcplGujswkpU7uJoJQEYFIDpVVngbQt4c6EwMt1yVSFF9qzHqEfihzNJYUM7sChjkVL/l2SVIojpv3wqeeZnAlaMTcJUo3Ieu5pPabH+e7O774eUXP3zEkDOcGqnwsEc7q2Mdxsr/F+LeAOj+DsMQeywt3u0dPLiysb3OczL09uP/0iIDFWIxp2I7e9FCsyVj7V4lPeVP45m89rJofXHKGqn0+VGYf208HMCJLPKvt5AFNlGRaGtPUTF+I4Rl8R0+HpodjyAuTEy+QoZT/Ik2qKkYKwTw3xnl2eXTkYRg+qlMK+7VGVuOz2qFvxGVK0PSLaWZhJXxBScsyptoIrusFn2YVzo/8OIpgRJUM7jsaoVjEo03FK5U1Y/DbMPCdOU2It7E4tEp5vq08TWE2RSa10/+20K3NBfmF9xjaS80bw3ht3NETSJ1teOwtvIObbCZHZFYMyB3nMx5Jn1d2qvGA+nsQ25rdLstkVe3KZ4I0Fe8y5OWDz0hZ37i6ktVgCQ7QdDIfdw50XngACAr3y0BV6E+t57TjQ+ZhaGYRhijjSSy86Iv4BxzZP8cz1oWPAKb7TwUZTx6kYkRh7Ej4JfHzxjS2Pn1pBjIkxCPl8NRKchfEsQUuyyKZxUTBNtUcObcTe9vK6qK77ItdLrnP3i9SWsgSd7SJJpqN0kn9aPWwp83dVjMPkr7wA1/I8m9IC45bXMUO1yms5VkVJCSFbYGekjnZ7I2dZEL8LGrUk+3+Ir2oQ4skYQrqb1h4FtWL5udBYXiVMfZFm95GS5iC3/ewjcdUR8OnP8CYIyArcCZs7N3H95tLUXJ3xRNWI4oxgHWxf2KAo553SH0DnLWoVPfMhV30EbzzGm/B8B1Izvsqk7joyqrpsVoshz9815Paaazdra9+FyCULTRLIllgsKBjm04apr7hLH16uhGpkeF1kCGYc1FYK0ktQfaW3wNXimA73DkfDxW9RksuHkNeQT5KHxGcCkad8YSWtZ95vRF+6RUISGZwEPmqpfrygFSqbu9cPvyWPLpEOVR+nL7QSNyTJt+zT0UzMIY7aeBZyQ2lIf5Nu0/h8zOEW2owzEY1LJdEeIVl1xeCTFH4N/fT7Fg/SDcg6G+c4folF5mpPpVoNNM6p5N+VYOsZSis0PY56Wry2kxE5h7o8UQaRkfEYbYzSfJ8EBk/BvG8ZahiN0Rk+rnM5Hx8K7cVKmhJkrQEx+uzO0YZiUDqM9igG1zAMmmxuXttOunP5q4p2YCLfCkHd5QftzH5wt64NnSwXaK1tOfvUkBdGr7FkV9pwhdvuQe4zT7PtT+DskihJ7IMUKWtgQGY1eOcmeGSptki4gXnpooILp1qJ/+a4xYsParUx49gydJH/1lwwD9qnFE8T+skRDoFgRK+wVpZhIboNz00pS96YPzMHybV66L61VnlbsSB1+VJPezCTFOuNZievWQr02w0pfsF6Xxmsl2Epo2wNwcDrg2PE0K9Sp5LJFZr7FNNKYBsG+L1gNpvpHIyOCZNgRtVo9whEaV7lFWw6ZlH9F1RzgZHzU2eVoc9pQa1Wf6W6UDN117Rd1ZkSEjtAuLeCWrtgyWaRZwXYr627T4dyGTm7EoRzMv7dVFBv/GUlkQaC12am0wTE88pm7OHQKr0JMQxqgleTNyFtSa6agiBF1F5X3mjw8mos1Fw9D6BpRyl+tzPfM5WWJmVlJR8mFcjwN2PMQqEJrlVY9fMtEPAr3YOSxXvtKNWETMFz3CpDQsi8kqNWhKZo3kAr9Xqwn2xJwYC7EPeIHBLPPFmpbJRa/R2XvtFFXVulGLv2bWN8w9AtKB1uiP8Ypzlf6TH39Gp5TCXnjCBc6oxnVzLGKwYbiXO+9eWkx/iTKa9bI7TAu1eGbh298pbUXsFBwTci5UvVolWh01B0bvi9UAPsg0Tb6kfBt9Ou6L7tesos0zvOaHQbriEZwIWJU2QBS3VCkpQy7XPeGG8b483HMtfPvvRkLfO1SFKsSe6v1GrXz0iidwsGPL5S6/hbr6QfB+8ln6lXxtgRHewdObRSpKiMxnhJ5XQzZLiPl9ciLCodZfzM3JdUJTCl4iqESP064jz3368klJQ9Pvyxm7h4k+JuzKINpqiHksXHaMjZElU7GcISyKvilRNItTL8HlJKVuGPpMfNa6DkCLLVTtugGl6g5USPTaLVzBIdONhCYlxgvSQjStOiXx6lRyuiKVFdN6rsAmH1uLiW/bCWTecDHQMfZQ/JsCa4SWW0L7dc7Gs231R2V2GwLUkkLKUxfmqgnaZa2Z+9VTxe3V3FuuyK/5mT2hJPmUNLGtmFzOdS3LQIRHhH9htLDmvZHR2fj2ffGJRWn5uzHucvTzQJPkQaCUS1V0lk81ZCzY8YTR42TWbULbHVRiDgxBgvc3zaCCoxOn6HkTtHwLNSA0wJSkdUdwWbgmkFbSwQ8Doh5ECQVoEA+2iq2Om8kHlzyQLRU2o1V9B9B6QwEmUvgUAF77TdWZfvPohtTrKZ7mw7ZmKsgdI2FC+oN2YqNeaCaEhYOBf1n6u8dGaLqrxVA+EVbKzVmM8l3T8U1ZIWMUzjHHWhPj5rBs+uqWE+dKGLBHLaxxwC9kUNlFyib+XcGtpL0vG+SGwmfmZfEDbDGUjMwlxp53DPfuOaw9dL3l2BQbyIymselgiKYT+VV5K29oGW7Ui3fUBQzRQUFwcTrPsEmiIJ86UDHlKnoIr2KS9WhvQAFlVVe1yT4p92O+M7twxZI81RDYOPbsMDx1beYDJD4aQJK2ANGIPGf8m94fLhyJSgLksoOhAnzRNAVmq6fCreaEhMWd0jOtIvsRIDGxukW5MNxMckgsv2imVzZAoBXXg+Q05zLrPTZ3bR4vJH1enfmqXxv6hs35LsNPsP9ldPlG2EAzI9Z5r9f+ZZH4pVtWwTizDjZl32nscVxXdpkmY/EhZR8uzRzS5nGI4xGv/i6xckP4bPPpASN45ttPudK/u79MxS/q4ltdYSXEaSk1GLMLJF3uZS9eVB5zEYE9hiMUF8yKPDWSnGg7HR98QAPvLxUQUmOk/dUqLbBGrCvQOii9jWVOfbJxUa4L3OBmTlEAgfQ8VHYFDBCaB+6DRITzG5VmrZR514SLeSrs0QJsBLTBIokQFNgTYyEuRhzLl04tuiTloCAyTHH9E4iDTH5F1SYVebn+bCw7UQNeMaFJEAjMbqMP6QbbZtSkzpPZI80QafZjH2EZ8OaiuDLniQ1bDs5xEpTWY4mzhEJLXskLZemCTyXITg5SVDoregsnOVWnMEx96haDraBgchluhltgOdaPRG2yMFwgASz/vov6XRK0tG6UTT/iYdqo/v+9hPWTU0qTClua8pfsY1ax+WPNO+pFHUodKK6tjxnARC4TL+6yKm/aCmUvrGobQy9chKthNlmlI0vbItLy4hqLs2em8oP88IsIkHzK3WFIkHTDp59wZtX80FEMOgntoFKSHkTu9KiYboTE1jtFKjCWNalrsAhVG2bKjchlQlhHiT5bYiAtCkdooEKakgYvlfbwTfSjS5xGYLmc6fyQ7tGyXfivFBgpRSziUkikx/7fs67z4BSUppPBvL/s5XES/B6Baj2533jffP18eYQm6M33XnGM8RVAy1mmu8cx8U0Bpj67UejfH3DhL7tVkUfq4CTJ6dLVC/HT5z9oN9wWu/l1QaIKTcuQy4GynoIu0uSSgdOthRGsqGJuyj7lrtqXqbtnW5K7GbpbExhXViqk0ICKRjzLgroLVokYGflDtre3clJO8ygpKP1CdDtozXWm0MDBVlSpUh5YoquPjSSLxeMZJO/VALZbjPjNLY0BeEOJR8LN4t54ASmgW1hr7rl6waW14DJU23MMxn9/oh2mm82CqxXBqa9/fySjzunM2jRKrL7aW6H2X6lvz3hRdwwTbRGpM0Pb00U8PtJggSje12IIsltz5EHWR5siZtUKZdL6PF01oEGGuglHnBjG6L+2rIPbtSmejQ3piby3qH9SGfcFJzLRnJ1W+RmHRxtJ/oYtbl3H5istXKa6DMpXRvD6Jd5ybVPpk7RzCtgdJau1aiyPH5tty4Sx41BKIyN5YWrGXZNtLgOYfry7Ds0HBR2ElMxApWDRNuJc7AR320iICZd+dVMxKJkEG4oUNNHjhSIcfUH4mgyNBmKwmkRgeA4e8UWY/EWBTABLG+SJMy6x8Y43DElBH6cVxqBMWHqpON8FzfMe+hZbTpDuwYU5en/BBDckdhDCIbmsl2KMWuxfu9TNVi4/BDOr5yuoFIjOnW5yEhnfC9ShwYeiePocjB+L5plG+nb1FEt4P9ZJeAtlRsCVqqsCzOI8syvJz5N43LDx5epZeXHw3xwFzuLhi9rqYFt2o3aD8Q3eJ52R0TMRYkk8qDMiMGkaCkMaf9bcaN+LEWSl5QS1LRrdYY8rFnhblyYmLxM55QW/JzFFzbUwzK9P68emTLbTivXlE7oEp2bQ4tJG8qW0lpF0yCPhlLDUIgOEtSihVllXl3hWeWpceLxPbtA2b4391ATdKlVGmlmJShs3q15hYveXklDqorb1WT1T+ZWy2pCApVbMiMZIQheK0VEs7484C8m9oNHewbeRDdLnl27vDVvPFcqv79lCpzfSR7QJs/S+lWlolKLX0sjSb/PSDspfrxZUGpXRSklgC0mStpaDsrtRvUXUtjTt96WokhU6XGORWRpHZmpRSNnHYLppUe59Z5CXmMnPoo9U9d8hfWayKphDFP+9aI6Pcp79uew9xJN7Qkgn1Uiu1rsvD3rufnnhGW40n2bad1z1yNlJbUfrlKrN3QQaWntZ5opWO7coHTWdtZ/aZp2E/m4k+AwiDvTXTHVFk0I3gps42KCj4i7YvWQqkGH4z1ZHmcFJJaK0xmmNXsGgBFDIq6tKKaUaIgq4qLaCBp7AZZX0snBh07L3wbooS1a70gzENyN44i5YoW8wsEZf5Ip0A4Xxl7W3lgDX64rsVCJsN82UKK7C6uypzCoM+u7zaiJyN1WOtq7GkTGPdLwoGgHSWQjRmHZP376HShDcnM6LgWPm14YmyqtDfTM5avQTS4k4zz2XMFsZ9fl5xJCymLkmSuw1hU/Xg4L5h4Lme4Qh+ZPSY34OcsWitoVILz9ZTUKYG4lnOUZKuMDtWtvcultrzqqok4SSGq+dqkupV2pW5rGA+BoOyTzuUikNKizLWbpKn0sxVFddHB/lLHVqmTdEA0zvpwvrK0lk0CUf+d3TNHUMZgO4qa6M1BVp5cKorE4lqpWuNFII+AV8sgX05UXpMx7dePDkhFy2uVR54S3bwTLismqcOJzg+3yvgi5qV+i0eHe7X8YaBcOu7zRNUxD3Punc06HM3rrT4CkUk128fP3HiS2mzf1yNyyRnZG5iSSUGaSPDqCPumustP/gpP1ePO1TJlxq1hH4rR1p/897ytepqeXG00B0kqGVC5JtSbj8U3yeI+0A5oTJ9suIzzy2tRDpKyemwbddPa++SVltpujm2QzMo7DGOG4XBfm41pxGKH6wuc3T4p6Ov7l6XL3SxUHq1vdozvMuGeXZmTnaAwxltfpJbPdXM50ShtD+WEk5F41zKYFEnf+K2QMHZATq6G8SaFabqe/avMqLp2gF+FdCuaUq7M6hQqKSV+gpdbKPkbxq2z8x+4KxsYTJ+i5OdAyCSWnoukrN/feyrZJvY/4HM6+3m46MvTIJLio5fXfm0tqylGPjcYw9tENjfGh/ay5JWTtvLMAyUY3cb8ZvNjSUlWF0tK0CKO0/ZCQa2M+C7cmyAY4/dhYOaut8r+tuvc7AtJmrhsEC5mR9lHRbbeH7V9zWB/dJiQ+5wht0haKNGtYUpQ8gSKOTQlEyOLUvZgUzHSzPMVUriQJ3BtPg8UhbeKlky6Bqop/mTkuSclfxtQp1oZ/l4RXa3TD1palouSvwqqwdWaLNW8BG7QZx9gOR19MZb4iU4Ed8ePhhUZU6vkcHnpGiZ96kx0ddPQPV8fo+2iGxF85iW2VAPFakifYuOnXPl5N+kgETTUPEwReQq1zevMzBHZUANljrMPCNdUqmhhVO6JgsmM8eMaKXOeaUM70ehdSylSlY9OjgRL1TyDjWQG5+CQS3KZHttcroOyj2TQgrqtXREyu4iPNNos2v8aSSM5XJi3TvaF2pitXawhkieiq7BsMsan+JMaWp5QyH4JIY2RkBaltdMyQ8Co7CBzO7hiOEEhh1f4npQtdbymNtkbKXTG472gq+GWhs4wfYSYKx90mvpDJKUmjOMcPNhK8C1uVBifLH5S0PlaGVMYU6OMH2XOm6utmZ5vu0Y6ycjbTgg5NXRL5FxbXl6lMb5qaigBXKukyhoouRotJYcsYWxjKYtyPpZSGh7frVxSWYpBqT2NRpjua3q37UCkStVgMn4bFdhDatvFOedqJ0tf7K+i+BgvlBDnlCdMEtpm51guAsU+MvXyahEUK9pMBplDbjwPbSxLhfeiNrqM6Pmve59qs/iTujO/u7u5+JNdIBIi5efTvs8QmhrmZMxqd21tzK2nVhGwASkMNSkWDt4cQcn6cl0iDOM9efzJTlgQpxQ3fKZD2x1/UkNABBV3e8kmwX1UK3PPFdrWCyMlH4lKXVwrtVePbLT32LxKozjyWBnDMsG5HJNqqME+zS6cw5wqLdUjiRoH34cKjTtgt6t1du/MtV1YZKmG/NjOvRGfuXF0SSqbea6WeDqalXuA6O4981v6Pc+EvCsW5dWGMb/B8J6bCWbcuC1uFTh/k50XLz5LX11CysKb0pJouj8jKDltSUykmpEgSPTyEpExEaJmaVZk/D5IJwvEZPgtIvpW2hU0fK+TRQoSosd9SrtSGfFER5WYl+DdpRTFmcSb6M0WX8AsU3HZmDYKarVuk2RhG/JDCMF7I6gYxvXwRsNeBMGGlDpjsMFL+GNYohyHFCVsuzgcmXh2lcM1BelYfnXjWGfAD4FuJnqKQe0gKjqWffWSpR0Q39BzBttEX7chxNQilpDJoP49uuIhZX2bbKQh4K8LKHiWYAdiOvL+uZ97el9GG4tKeX1cy1gBFVNw9T6ilVTkLT3tpZXOZLqPIcYr7MnI8wgiNjivFLuZcWmqqPaIaadNGZ5QhxPDNJFlXfgMNGaBNpjJfpWzCF5+GtdSolqzLkiWwIjGVEm70WwiHDUZTBJKTbYMAa+4GTVz/S4YdJJqZRxnPC2t959RmeIosi5Nxpmjv1cL8mQ78d9GrwkvyZwKJ4Ocg66q/zXvHWXoxnWdXAtESQfVVx7Rm+5rRXgX06k5fcrn51Rl+b/NjZmyudV66bxEsjTkxVMwlaTEBJRWaPAyG0uzr8yBYvw9fdHqE17W3fEndUcX4ErVDRUbq4HOLFU5vt0QaqAUHkNVoaf2i7Crj1yyWHIn33esM1L+gB5qkt2aw3Jf9Ypq41s4u33lgpz3sTze6TP7/qbDpeXo8rn5Xw4soa+L2FCEtpHfopPI+IuA6vLbtUsFdxmwl5prtVoP34MrrxQG+RoZFx5QKUKeKGHMRcg3FlhhEik/RyiSLSAESuo0jXuilTXRGvrfxTtHW0OWDn82QG2C3M2s63NaH98F28vAXczVQDEjtve5M0M136TyyoPSfE2c63EnKWWYXWtTopfXTjVCnU49vXx54Fsh/tBGCGkkMkgoQS65gJon2U8ahbWAiXQYbBYKPkVyT8/GkjE+T01jFio1BmfBlCI/GtZbxu3omlzEbKDZDt2Lk8OYor+p+lmI2h9uqd1+swh4WVD5TNsZMyHPu6EvERVFKlvQUs2YYIac+Q0mJZDmXIPnn784Ap9zNthRjolOpgGNu1K7XDYsy6MtiKusMNRGD+qSbNjZLBSG4F1Jv7XOp4xIeHhPpa0AGdyGq2zCdUxLkWY+H3+EGLMVx1mlsrBJDFKwEquw1hzc/CFNwZkhoXK7VobEetzEIk5CRohqySyIYcUc1GTTMfGHXCaOAUvp8YxOhI8r1yA+MqxbWJMW35Vas4OEslRHPu92XLVc8J4/8ibm0AqJK/c7rka3MaNsM01B7Fpiz4rVfkYFRESKdhhi8O4SVJuBSBHG4MIQQDaK3p66dG3IqJtE/xbTkSPDNGqfzS744e0Go30z024qKxDen66U9Ks30GgI6nRZ1mWp0XXMMoz6oPLKCErKem1j1t/WGo5Zk6O6jlQQbFSx5gL0smzshy2v91h2nL8hLEzGLMMXgbkgRwiI3zekiWRfTNDXc5VKgM7AEm5MAY35GwYxIeSrKKDckwE+V+FMClJJ9onFp5JhXsUXaVaGNlLadamvzwc15mqu3AXZGw1SzQVOQPJSG+aSZFIXNmEIGLQMhcJa0OSZxeCt4LoxeLFUecm8Cir+3MpnBpQ67MbzKRvzxFV4bvfzmKEynz3FadTtTgllTACZI8RcslDGGihzaps2MU6JJhs5GAYv6zkOdpd7K4CRyF6oo1UCeJQWpoPLfevCfdEdF4NdINAyjG3mrVcH2mMiQUl7n7znwtqGCpqtdTFMc0mVY9hiK7fylC/LZmtt/di+RoI4jQeK3FS+97JfTfXk4RW+J7VeOjvlnrfTq+yPNVNiyJQccjqWkuuvd2/pte1kvhrikqQxPE9ZAniXdJS8z+oxp3FaNUht576s4lgXfaBUae2xGjBd7SVPokuY1xDTEhlCiW61i7aQRhv5XFUUtTpV66XfZyL98/aNGoza5iRVBLXSdJku2mtAQixLr8/cgZ+lXUaywNFphPJkDEvqhJkYlKnKaxopPUI7TiTFXUyJSshnta+mQWaKghUlgPOxZMSorfIKZX/3h5Rcc5TbdqXnb6XwH2NQNBKUcl5p73alkBeYMh8VpFimpeDHtp0l9lGp7nZCRriXvAolEtNpf8uF3+DuVFNwMRVYDncTJHkvGaReTRjlPhP1HgbqSlUnbCHzSspBrYmM3n6HIncb9sZP3IWT15ZJ3l0X3duo6rbJwURiIy1sWsuB+U/5i5R2vHaXWBGWTBU24A8Fbz1qFe9gdWLpXtli1mvcStGuR3qDx401UPDRF8dhkJA/KnZnnQFVnI+Zji30hyngzLA6t3jvh/gTEUG34DvFGIP0OtY/0ej7Y6KUpYIlSkqA7cvFMXGuYhiKiqkNhKv30CmcR9e+jmN6Tuh0DbKmx7LSfjagbvQEK50k3ZB8vy4uFdQhCfmoCCrhfmGNwWP9Nngbac/WGISOlw89K+c57NeUICTxMKi5PMgW1CBq2RrB03E+SXFQzscuiacRzgsitFSCuByjSkZYG1G3viAQwODFFGxVqg4VwznnWDkCwt4Z7UACr5vsGdPcUtvA/0cvLz9Re6WvqTyDxWioNhrq/CSjouM0pgU61A5rVsFRkUPgHBWD1S7YDMVjtMOZDtRhVfHigC0y5IQT0A4f10r0nJWeo7IGOSjWyNCj8YQE2aojKW+XOGC3Zy6ynOdTRsVm68QHKaFdUAuCBOEuqIFqFeK6a7ik4lgXtpnktoUl1+AJZGOVqD6Yi0eBoPISDTRs1gEq+s2pBlWXDRga01HujB2phnaRLubvKUzsjKNmPxctGjsoMbHFMRin+I3h4NyjBxa3gtP7LWtjwAvuqMM89ACrGw9xcPWY7up9rK5cQ+6/Qnd8UDTbn23g5Z7t7Vu4k+fhxRPcV17CfPkF/OYcr3C6chz0YB2YM8P2yMJ6G1QCGlWDVpA+endVm6EEomkgvB1ztta4fOIEJ9DFRVvrQdTd9xxwFBfORfnCBgFdlNJ20Ra9nHRIITqO4+3VIXaNUWVI8a7J1fkcpOPOQbAFHG6PB3XMA2ddJD6byMdqtBl0jJYCg5MOWOHF4CMBsXjWC0FLITZ8qWBTGM9az7KnAvEJyCcdvCg+74jRqJOPeK1e3VxS4gCRUHz2UI7iCzQGQarvw3mQdg5e4p2lZWYeJPNaG4gKAmo5FsL8IgEL7MJJkKQ1kyBU8HqGuD4wVxIikDsOcCaGCMRMAp2eAkIvK7ZyBXCIBgKoEiKMg0xmMw+pOCoNUuycjUyo35UROomy8xQFDHxpx67C1W1I/Oq+iSHjqZmV478eQYsXN8DDkGG3JiRefIz7aGxGYq6yd8YkNdkeC5jiT0yt34sc/qTut+ggXeyTt19NqUYfS6lqmKcyULWk6jJqKHCChc5AvxJEFbMVDg+vcfzYW7HveozDd76FgyvXkfuPMYddKJcMeFxUWMTGnA4xAohFOmFztsHdPsHduo08e5OTT32JOx/6OKunbiOibK54XLdh06841KjeCRQ7Fm8KL4l6GVQYTTtKBG8Yc0EmZ3cvuauM3wAAIABJREFUMTtrh2eNvv0xNPpYlTVRStNmrYhpwWionoIdFjjbH4DHn8f7Dd6Ai8jqzBxyoI6z7TkHqzVJzyVY0E1EjkEFtFLlzCrrNx7THYS6A1v7xqh62eDMleZ4hjFdCPLUJVn24D1htwyU9xQkuZe+/AKyPcBiUVmFmI1ht1zwJJyJFUqJE90eJYGN+oDwCeckqaCCzB1G7glEbFBTiWVcjXhVBEcX44QM0LGVVTjGYuKYkkk6ZjPA00t6Jvj8iZ6j9NHO0iGyQunIc1ObKLnVZ85kMTatbMAmDHNRKjCM0koOKYPvZSUYSjaX1liSvSSV/v1awF0REygllCB9GqT3y8RBgBWoU9QzBDQm8MYXqetDXEum8pobTOzTSVmrIScoxdjnDLO7xp7G66cyqfOwVTgwitUOc+U+Dt7+Vu7/8e/n8K1vxGsI0gpIXqHv2fYuGMzWg98IKGwF6Ar/atarA/T6Gq48AG9+M1e+5z08+Ld/iDu/+Qme+7Xf5uiZ2xi3xYoDEYwZpT9nFCsGcYpGYiyATUWS4vfJOsmAi0GgN57bxxZly/Vvfxtv/Cf/KVxZFUshXgulrpr9HFcDDyyjcmuHDTUEzwlytuH88a9y/uSXOfvdF9g+/hxyck7HCrzHyZaTVUAcVzarGJAavKa2Arfuc7z1P/sAD7z/0ZDWJhYIF6u0KnDVIXu7wJA49d1PtWwgqjFAckFKyoMjjVPkTHBPb/joT/0/+E9YNHmgRem9i8jSGTt4DiUvqxpChqPQvltgylrvk8HjdBt0pT66ZqtBzMFgBDash3s9a9QcY9ggxiOd0tlTHCdYC+IF0WO82nA2nMVvPdafY6TDqscZGwnLcZgXWwwb0HNEDtAB5eUHbMruLKnDgtqq7Y01txbpukhgZy6i8gokUekbLbdaWUn5+xxaC4Gel5c7766JCbTVXElvWiaQW+DCUsR7Uu2nXFveTNuR4NklymDETudbRIaCVIPKK7aHLo5gr3lK4iwzNiC/frANEfKnh9d46HvezQPf+z7W3/Awagw+0VjxiMRcr12HdQ69fcL2mS3u5BX8Zov2Huks3bXriDWY6wfIqoODNdqBHoS1EhH0vmOu/MR3c/Sj7+bsjz/DK3/wSfzvfxTjPG6zQexqMm8xGusblFKJk4DM6/u9GXFqp4b77wgbdYhTMCu8SXHfUfQ2gvHD9iCaEFK2WQ1IFXMKs2oaTOMxUcEq6OGK7p2P0H3ro1z7GwIve84+/Vk2n3iJlz/2GTZPOK5uQ0COFxsdV9LcPb2eolcdamFrHcYo4hWDRWpvCAlcv+Rjy6HGAPHiVDqjotTzIOm2ljp58GvPuCMjuGOQY8PN3vGgnmM5wkmHso3vRiqGNoJJQcATJNeTfIQS89EatfFjzrokCyqRSKgnT2YZqlUHSXKrp/jVhu2qx64Mr3+rcv0tx8h9W9b3dxw/cB2zfojuWJCN4/zEcHbuwMP2hQ3nz1jOnzvhzvNbXnxqgz2/xqiiE+CAnqPw7tUOINEdf9YtfAcknqkVeR4IwLSk2T5gZwhVh0YVcrlHS4Qt/b79Gkgne6+ixpK8Uqf5yO+xwWAsvvTumIv/8FHvnbyeBCnsKC2pAiKiSuoLH1UwEhAsWvoPzNVTab0RGuXTlIGjmXS1fiYSz/5Icd/wAG//sb/D0Te9DbqDKMHEAlVOoVO2L9zi9MOf49affpzNi19FN+esneA3W+gD12tEMDYqNlYWK/exfcsNrn/nu7n6HY9hr11BPAPSNutDrr3vXRx+xzex+evv5YX/6f/E3LwVgrIQnCpefeFeGYzgOkgoQKlozewnQ3EyA0oPZoW7lVCGD6Vgi5gYgzMadcgm01AtkfRI/HcveRxecP0OyhCQbR9KGz+orN/3TRx8t3D1uXdz+5c/xbP/5g84fkkIyQ2DvcSoVnpNwASfsHU8RwHfzhvNE+INNkBZEHeX51wOopUF2TSbKap55ky2CroNxsYVBygWI12MjdkweJl5g5fVPXgwBfLvo/Y+pPGxBWc/2IayeTkJsUDnbDl/8IxHHr3OY3/9BgdvWbO6ZrFXA2vhbWDYRkWlcFXhaqzB4tQF1ff5VdwrwvbZLS98+GU+/fvPsnrh4RiXFDJLR+VuJplcDiS1Vyo/dFkwh6Nmx7Gg8vpaQWdJCBG2CGsvRdIsvWZQ42ZjHArIDrzKCtGQDqO2peRha8P9WnI8ucqrj7r9+sybFmGTqWQiOkbei8a09ibYX7Q+BeHMDX0ZNXgbA58cmLMOuo5T2SJHPauN4K4/xP1/7Xt53fv/Cjy0BixsfUjrvjnnznNf5ewzT/HChz+C+/wXOcz6TShO1CBehzxZLhpuxYP3L8NXv8RLf/QRvuoOOPy2x7j2Q+/j+psfwT50Dbp1UDoeHnDwzrfy+v/+H/OVX/glzB99AXeyjV5HPa6Lc/CB3e1XoL3hMOLLxHU2VV6QucBu6e4LUf19+vHmGXc+/Al4aVs+M92h7Pf81wUmJdsge03oDh5Brndw7PGHK+z1Q+z1+xArIZeV9uFtfP2KB//Bd3Df+9/B4//8F5HHX+Sw3+A45M5qizeOY3eM+71nuf34OV7OWZ0fslmPctKyAToG71YzDYKzYM57FNgcnXDjx9+NP/DBW2ILz3zmKQ6ffBl/S1jxID03sTzEjHizFww5eNXRv+x56MsPc8JtDgHxW1Z0MVokIFSDx+g2aVcBQaSV1CMlpywtN6OXlwv6aIJRfQxoVIzvY4XLNU57PMKZewX7gOXorWve8/1v577vu8LWbulMBxqYBBHBeMV7gXMPfY+zFl0L1trw/qZuOoscw/p1ax5954M89ndv8PQv3uHJD244+6obUt8LgpMVW65yuz/hvm5Nhw/BnDGztdKxJTjDhPxdu/dAsk+9dnPCdRfVy3PqxRa01FxQEpDWGAxwIHBe/aB5Oo9LgHsm0yoJKUoxkURI9oXk4QVTLy8Ty+tO+Dijk6h0IBiMG8b09L0wzGv1HGESLkbO4jy2Dyq37cqjhx6z6TnsO063Kw7e+6287q99gNVbH8EnO4cqYh3nn/4itz7yCW5/5KPorS0r37PykZOJNo0h6WMqG5yth2oMcOwEs1HsuXC47nF/+jlufvxLnL3hBvrtj/Hwj3wPq0feEPz+vUcevcGb/8u/z4u/9Sfc/Fe/gdw848hburNNsI/0gnjB+lRkK6kM59PdhPUG9bDtTNBhC3TeIGew/eoZL/7r3+PoCy+HBVSHSjcx8CZONZyVfO/my+SOWlCDi1kDjHrWB2f0x1c4f/1DdG96lKP33ODGd78TrlmCs1NUS77jiLf8d3+Lf/e//g5nf/RZVu6Mw77DcIic95z92kd51m04WK9YxawKLmV3xhRzyI/mOBcfOfLwdy9K8rQ+0Z5bDxp++IfejawM3oJ5Bc5/5SbP/c6XMf6clRyzEYvh6ZgpWBlrQ4JOzP1NxRlKGPc5JxwQEPOBHEa7TTDK52vua0QiAYHOJSgcE0suI1gTVXge8CYEaTo2iKxxuuVN33kfD//gAzzwnqtwRfDeYzroNz3mjvDsx27zyhdP2N6G1fkRnCi69ajx9MdbDh8yyAoOHjrg9d9yhe6Rjm4NSLAf9dd6bvzHh1x9v+X2hxxf/r1Tzp9RPIdAhwDXuzXBExDgAM8qaDfUxzSdQX4fS/ouzznyoBOHSBv/bsm3IWnFvMvw9P4k7ZWQx6ooXz/p5OKuwbZUddXpVEQE7SQY4/Pncg+oCpK6K4ERmRCUOv4ktBnGA1MpJXctnswhsyoX0lFSfko4FB2jSVQJnJg/sXRr5cQ7rrzvO3n0b/37mIeuhw49eHHoyRkv/vLv8eTv/B7Xb93i6EzoD5Q7K8/h6jBEU/sUa0JmL4pqLjVDoJyqIucaqiVasFvP2lmgRx5/Dvf0C3zwF/+Q9/4X/xHXv/9dcHCE056VKA/9wF9hfXyFp/+Xf8nWb3BrYYWyNT6oLbuwbi7SfaOCVZm1n6CBW0x1OtQEYtStoRfD2YFhLQakR2SL6UMG3RzKTLHjHifniR6h5I1XuCxa3g4xF5bT7TV4GdYvvUz3qec4+801Hz/8LR76e+/nkR/9LjhQNquQQM8+ZHjXf/PD/Mn/eIL+/pc5XCvKBmeCAXhtrnMuwrmFQx8CJE1UkeTIxBS16cfYkHPjcFyLx0dZRWbqGj10MUbrDKwI6jxycorVW6zoUD0F1tERIhb8khBzHmCJMTOQ6fwtcCUa1tIqBrXWqpHdNlzxe/umxdQyLZCUEsaEaH81dGK45U+4au8HFfrVOTe+6z6+5R8+it5QetdD1wX72xeEZ37tRb7wwefY3FEsljVXEc6qjgy34rfenPBpnsE87HnP33yE+3/gQbi/x6D0nXD41kOuv8Xw4Lev+chPP4F8waNyPZ4vhxUdcig4LKpCR8+YgTikC5LsJVXaXl7j6KYEZZf9pIsEfPKMlK7CJo5gVBxOCUsuISWvstTEwcUE3QvDXsREGBFbOC+Ru8/V5JS5rbQbiYY4LVm6lHy/nxKSsc+s7UKaiL8rRS6vlj1TU0OVGFjck6u6x7ePlTGYbZhR0P8r640BC2erFde++z089uN/A3P//fRbhxiH3Xpe+dST3PzgBzn7xMe57xzoPJtrAWkfeeHMnNMxmj+jVisw8yni3KXkmGHd/ToqIRz0XUgVI2dbzAF41/PNYnj+p3+J08cf58G/+r10b38DdB3e9lx5/7/HY0d/j+d+9pdwX3wBS492iukNerrB2NEbKzkr2JTaHiZvhmAxzg9uw1aDFNhZz9o70FOsD8h+UBUVebv80JJriNgCVTpuh5DiIXIJ04DbsjIdgmMrK7zC9VPPKz/zhzzxmdu86Se/lfWbHmJ7AP2BZWWF7/wnP8Gn/+n/wStPvMTBnY5VZOss53Teo0QPBzzb+Hp4UybvGEe3za4a1no7nvPRGfuUTVAnCOiR4m3gwvXQBMlNO1RWrLD0eFRWMQo+7H9ATlMJr1gxjVLd8B6FOApHj2Dx4oL9zA/yXaZyHm1ooRHN0tJN38tUWMw3cnyNqEtIYXzX7QNs7Qmb7haP/ug38rb/4A1wwwUToum4/SenPP+Ht3jq11+E7ZqOK3Sx2NmW05AX66rDnIRYrTVHCBKTonZ08jDdsz0f/6lT+n/1WR79gfu58d1XuO9tx0MtsoN3rnjff/uN/Nuf+hK3Pn0Km4fjyvYBr0iULDUpCrcspZQc08jMY+c5ldec0CDx3Zuqw+alDalx7qTNEu2+2rCfZCISMt+6yNuYSDyyqGnNkgrWi6ZWYrqh0tNLDbP2zSF9hY6SxGDvoLSdSiJwtQ1FovSSuVtIbEfSmOMjxsiQEikRTmc1JFYTpXMGjLCh4/7vei+P/NiPYB68DxWhU8v2mef4yof+gJt/+HmOXvwqnQPtPJsDz+EtE7yPRDjy4HP3j3hYckIYgrZckOQwmN7g1g63tqxPYhTnYUdvPbrxyMpi/Zaz3/goz3zmy1z9yR/m/m97B/7qIVaV4+94O6+Tn+DJf/Gr9J/7Cle2HusE8Qeg0Jv0cjC4j2aDGfZIReklyAmWsOYKiAEnwlYMR9KB9vTisdrRSx3Yd4U5NUkrFfpGg6ujRK44qZ+sOg7FgIa4+U4MW6+odHSbc05+/9/yxFNf4LH//AMcfes3ol0gUxwbHvn7H+CJf/ZrcLLBR37RcoBVQ58OljDkhrJFloZxo3ymmpMoVQYiElYonDGDS3a5IHDEhwPitdoTkuFvogZbMPRYtTEFjQ0MQIXYpwQ69JE8fYIxfLRrWJ9KHI8yp6IxuDS1rbF+yG60YGKtkAlCFU+et8jrhpPVlm/5h9/Am77vDXAgyJnFnns++4tf4Zk/eJn1lzpW3Me53sGzYYUgphvn/Eowcvbioudg7p5tcSI4PWV98zpP/vKKr37whIe/90W+6W++AfNAsK90jx7w7f/oG/l3P/8UN3/3FVTvD67IEvOKqcSAWCWvidJKijnyvtqUVGqJYBzpfMKgi6q8wljGao2pr5wRe5UFkQnsb325IImbTGSgDZXPvVCU653UQLHBTbj2ymrmsJpZPTFjbqUp9Q4xGen7kLpeobeKX3lsdATYrOHwu9/NIz/2I8hDVwmGco+eb3j2Nz/Mi7/5Qa68+Ayd2yBdILZHdyzuCpweeW6tHN57rExVSHnmjt5mqcZVoVMOTi1Ht2F7oGyOPL6D7hQO/Bp7pqy8w27O4Olnefanf4nTp7/CyvtQzKx3HH3r23jgR36Qo6Nr9H7NS4eGl4/ArS62r9YypL4P0fMCW8H2Sqce44O6o2ONyP9P3Js9X5Jc932fk1l172/rbXpmumfBABgAAxAYEiRASuBiKgDKQVFhUTbtoGxLDw47+OZHh178ZzgcYYVlyUHrgQrLpBgKiYvFVRBIEQRHwGBfBzOYfeme6f4t91ZlHj+czKqsulX3d389M3BO1PT93VuVlZmVdfbzPZ46unR4al1Sa0utTXFY8mCtykIjC43UGqlwVFQciKdOmpynZakte2plks6cZy3GJKI2iQivqYJy6Syw+M6bvPDr/472uduoQPSRZk+59NFHuf9Hn0CqmpwsKhpxuqaOcxhhQpQ6hRenw1VoOiyqzFCWJTm6W6kGe9KkYNu4cuCIbp9WatbiaMTTuAWtOBpZ0IqncXs0bsHa1TTOF0dFi6elSodnLUvWsiQk2BBHQ6WkNW3wuk7YVCG9B0ojSpBp44twXh1xSdhc1lv5ZrkE+hhQTnzgvZ9+gEd//GFkX6AKqEae+51XefW336R+1tNoi+odFtLgpAFZs4onWPXKSCTSSkutFZV6fNofHofqKVGPcbKgkYYqnBJvwQu/t+br//hl2pej+VV9pHq05oOfvok8+gYqIZmxFggx5cxnhGpLgtwp+z/N28tUWd7NlqMPL9KyjnTeOffMPN45oMfz0VNVo2FAjb+vdDCDjLgbJANtF0zCSWf6UjEsnj6u0/CkouZYd53k7LlJNN9J9OlIKx2d1TI5rw0Kaqn2dcFSbREwJ2odHcu1SZir/cDRJz/J+//rX0GuXUW1JoSIe+MOz//m7/DWn/0he9oQ6zVtnaAraqtT4lqhDsJB0pwioUNPzcfE8nZrFQisli2rZYtvhaoRiObzCD52u9MtFvi1cPjaMc/8r/8Xr3/+i5afXtVQCQ/+7EdZ/sKPcOcy7McV+3FtQoI3DK9cAyU4QxnOR6ftZxNjfktyQnOttAtH4zxIhgxpUF0zBIXMkB5CEJ8O89EMDyEYCSHS0hJTPJHQokUldTA9bgksCG6P1i2ITqgQaoXwzVs89xv/EfeqIq3Hraxe+M1f/hS377cN6LRGpaGVSJMDEiZQQZ2O7qyhO6Jq0gralE/U4sa+DtevAbdbfLiL00itrQFRa6BSpdLWUHoTs620wQ+OtWlNXY2WfhymF1UoNSouscWaII4oGWm4QYFKhUpNExrsudh2xzyRMuAQpaHSJqE0m6molSaZoQKX74dHPvMg4Xqwff+G55v/23f5zm++SNVWVFKzlAQlpEbclX1q2SeTYyFaQqIE09jFTKjB4iBxcgWRPSR5JlRbXHuJVz/v+Kt//D1Ovr0y5BuBgyeX/OjfOaA9fJGcKhtkH6NYTdJSJvNVBy2o646NR/w2WjUDwLkN3NF8PrIR7SWwGxbvLpG6O7R3DcLF1Ee5Z46puRjI1G9upJnI8HOp6Uw1NzbjpMUs0WG9E9ZV5GzP0IT2rzzEQ5/+NG5vD0Hwa8HdPeHZf/lvef1PP2egjEWL3pjpBjT/TBu7jeYqWpYotrFiM5fNKU6Vo2dv88av/wHrb71E0zY2z1q4/l/+IvUnPsZaHNSe4Ap4dzHbrSQHfEaF7USji+wWB0OJVTkPrr6bI/MIxF1fKCGs0vkBT+hrpiu0KGfhjDoKx1/4Ki/88V/iooGkUyvuwQWP/q33c1qHtH/MF+IyRtbMc3MaJ9GLB+MvikPt1koz7K7XnYcApRdC5M1w/hvfJ2FnrKVk81muBO+p0RTRVmmNEjm9FHjyf3qCw5tLKlfhouPbv/syr/3JGW5dEWkICR5FrGAQqsEQjXfIffGqyZjYYjVUirx1VZAlbz19xrd+8yXCK5hpsRbu+6kP8J6PXULrt8hIzeXbFuXehfVdYOXvtXmZZioWqzeEqodeO/phoQy/bWaiXruIqo3fZFPD0Mp1lHNrDRToKewOi6HVbufZfbX7txxb1mwsOdMkN2mExi+5/J/8LPWD9yXzTkT1jJd+5085/o+f59CPKjj7iR3lsDB9obOzxsLhFie4rk7szFJ7mpxv8h8t3JLFy6/x8u/+MX4du+i4cFTz3l/8OfSBB+mKD030E9Ct8Bnl/QbjmAgJV0KhoWTn8va+y0qNm3UywJLkMtPJyZfagQ4GYN8f4ELDtRPP9//1H7P6zh3qemEgEi5y4xc/wxv3rVm7kPKlrd6HyRalzSIWTrrzgkQvRkxkpq5Kl4ulYUYgs0z2rmzyTBXJrK2M22adGU1rnrWvZIuPbccYyzoodl9JTEaItAn7y7SDlax46CevsveemnjUwko4/tqKN//iTSqUvRybJA1BV3Y3zbXrrU5OZmSZsVhNmH4fdCYmlWSiCmkseU6epd7gjS8GfvD7L6MttNrAAm7+whVkaVqqGzFm0VwOoMVpOyk8eImzMP5e+nDdXF9k3Kri2Lx+ugZKlumqGYaVfSj9fvkhet95pzSTRMDGLUvmOSy4A0909JFLCT5F0cEKD4qwnaN3dg56ev5jGfvDMY5L+ZZVGoe5KPavb00yv/T+j/PAT/44ulgkaAvlxT/697zxuc8icc26CoN5bm1jpqfSOxrTbpGCieo5YoW6TYtMdIEz5xDvOP38N/nB7/6/uFULXvFOWLz3Afb/+kdoWCBROnPW1MjjeQxF2BR9pKiuMv4tvZwuEcJdmEq6cENyrsX1mkQ6p8oSqli4ce1qWj3mvjtHvPr1byZcCbWEtz144NGbxfXZnpe85bPtfKlf0Bnt5KIvuOI04lUnSwCbNlVofxMalej0eGUQQtC3ntFstpwtH5MzX9XMmkECLTEBWNZwTXj0b1yHpZnJEeWZf/E8Jy8e25woXoOUlDwQGNSCAfIce4bSz6UHy0xVSjGk5GRIxesJAH59xNd/5xXiCw1Oa9gTjh7d4+gJQWmYCtot10tGf/ffK26GqZSvxXk+j6nf7PpkBp/43ct8n062/77RLuD039beOTPXlp56KSuvbq+vZYf8OFnO0gk2nfFTLfdb+k9KyJXBuYURsbTTb4y5gnVUePAaj/yDX0KP9mjFMnzPvvMyL//hF5GThmoh5pBOEW67IBQP7sPAEGRq+g56aYf4KrJh6nKt4vZa7tx9i33f8K3f+Cyr77wMIRJiRGrHQz//N7l9fcHaZ6bOpLhzL7JNzj3Kn4UM4Ths0hHKebNRKT0Py9dGqoS3FFDaQvepEm7Xqj2hFY9z+7jjO7Rf/g7xZGWSaGxhD65/7GNkYtKThJmMgKICoqQ4qPlUS6aZyRazpzmb59dicwWzJ+m8p7RNEyyrXk430diVT+6uEgs2yJFPt+IJ1TWPaIOj4vL7LnP5A5egBX+yYP2VE57/yqss3X5aQjNjV+rw7PV+1FKDHRH07nuscqViGrSK5a8JVufG4bE6KCmSUDx77f189Z8+hztVmqahvs+xvJr9e1mjky7nZohdtinIDNZnw/5izQ3OmW/TAci9Zfk8k9+9uhK69g4pMJn0ApDl9I2FK5ywWulO5XAH2dyDz+efX5688ZjSym2r7pabMmS6KptMOCfqEYtqemrhu+3VPW58+peoLx9ZtkMINCfHvPwXf8LR8QtUXgltkorm4EOlZ6Zdy2V/Z3aRooPKfuqlP1x/UNSRUNf7T8RXECKHVw+QRnmi3ue53/sDwmlDjRAXgn90yWOf/GnO6goXxdB+i/UpLY5aHnbb4SoXf2vGkdLx/N4pJ19IIbO5ZJZNOkjV1aF3RDzCgT8gxjNU19Ruye2v3qK53eLwqHeog+p6hfhI45XgMjCKnEOgh+w/55VvvNQ7wMyHro++BLCilNUbMyvYopsjxTF8YsVwKPucmtPAIN2d3/WmRnadqJkUO5gV4Zrb4+TWXQTl1fgW7/3Mo3CYEBXWyg9+6/vo4hbNyRrcAZEGYUXPED0ZOn84rN50l01enRU85YV070Guk5RSXxFo4m3QBkG5fWtN+1qgqjzqIzc/fA2tb5FDpknPPfcybuc9halW7omypO628y7aXC+bT/abTWPd+XE33+WFx5Fv2IV5wkZ0h7gw9I04Zv0k57W5qyah4mXiPtnk5YbXDIAlu93Wm990zhQnPWGQShDvEC9opSweucalD38AXAXi8BHufO5p7n79a7aBU5b9GMuq69OJaQ5zjG/i3QGLZpvTTlRDd5TgGOr7I3gz87gouADaHtN+5zmOn3kW2mhZ3BUcffqTxPsfsOudQbdY9JblKGQHfBnZFb0O11F1CJuqjQUIxKxdkjL730n7rb3UAd+98l7bQsMxbqYaqHF4VaoY2Ts+Q19vIDhwBppRHy2plxUndWCVkM1t3jOSqMRO41WNkKo/+mQyyprKroTBA6jZ542hKCSbvdckLYukqLcpFmfyuUtmMAOwjMOjswz0ZsVBpCXQ429l01JmFlkXsPm2WDJjrQGRddIJzXZ7gEM4Rq8uuPLefYu+cpG3nj3l+e+eceXkBgvZh3iGYhh2Sov52axA2XjlbK+PTE6d8z9VyaS1xExd43UFqTxaywIvR/21t/a589Kq05yvPFizPrpLDue2OzfACp1iJhqYLtE837L/JPtQ5kxejovXyBHpKy7mpMYxUyr3ZDemZhxl+E4Jem+jbQN/HG7WLee5VDwnhRVvEF2ZfjEFc6LOaSelUFgSQMucHyrNucewjsQBQJewAAAgAElEQVQ20mpkvVCuPv4RFleugkCt0N455oU//yx65w5hoRZWGYSxD3WcR7NzNcpBH9PmrjLKa1wQDJKG4k3tLyFmzl4+4dU/+IL94SJoy/LGPlc+fj9tpXipuii3QKT10UoQpyTGjQi4t9UiU476uTbtgJ/pdybKyaykyumLz0Do9WB/UMNyYWUE2mz/z8B/u75kMxLrDoSn3XKP3SEAt7X5PixMOMEcMUbXmx7Ppu9AMQJsmkEErl86xF+tqZyjkopXvv0W7iwk89Oa4KS4n/l8VJsE0LlbBNq2GvaedsJ0VxFXcPKSVWkEqO9PcDjaIKzJGMdCnf5db12PizTBtIN3MrIqM457qSP/brS3RxYcA5OXVtsju8bRW1q5DUDIqXDaiRLYkL5S0Q5hOH9ZumaKjocumOSMFxGkcp204rwY/tjyEg8++XPgIYSArhte/5P/gL71Et4JrUbLaSm0oPE8FJPaY5Wl/th93zGcbPIazEuIapHvU/aTySgvcahkQ4f2jMQpeOHKUjn58tcIr71FXEfwFRwscDceZV1VppFE8Cl70nC3hms9V5WxfEM6W3PGRtM8fmVQG2DUhmaaXdtFzA4mE772jR90/MZjmtzJXoJVLHw3Nt8Gp+uu7sXgvhNRWL3GuHtIbj1hUhtHWXmNVKqdDX36pc3RTFN+mr4/S87cHHtM93SdqcdaxifLrdKENIyiCX7bIp+MEK+A93z6AYMtiw5OlPDiMRoygGVjSNz5He9QM1I0nYJIRsxKa6DKeaHWpjUMn58k9KrcT6TiLIYk3CnuKEWPERJDGRdHBsG+79u0/8TCp+O5+7iMxnqneMBY2znXl/cutd2YyXKLApYZSm7JNDXHVOLI5KHOTeZUlOeNI7Py1SLS4XrFglBN1hGCDYRhESO8QSNaga8dwUVarzz04Z+munGJECOhgnj3Lre+9xSLlcMnGBmtCjPaKKpKUwIgTswMlHHNcvRaYq7dWgyivHq8suznMTNdP5kuGq4MFTbuiI+uI+LRK3ilbiP7b7W88EdfwQVHrjRw+dGbrK4KoQYiuLWk/kmFmQQJ9mpMRnZteSsyXpqZJhjA2tgJfahnju6aj/LSDe3EkaHu5qKmdPR35M1n73Z2mwi4vRpZeA5TcmoulFRe6QgpTHQ899KUVN7qYka9/sXXSbNEd15hyvKTWo9NbHP9dGOMbsK5bVfrYE0tdGLKSa/0SMRnRiBVWEjNzZ+9Dxa2/u3tyNlzDR5JTvLYMRKnkkJZ1RzqCUIowx1JeuYGtnlRO792Gq352QKDwArZ/JjNabIRgBGRlIA6rZ31rUxEdlu0rO2CwbCZ9rF9R401nnctgXDbGC581i4sNZ2jlVqW/JbTMqUp80+GJ+Sm5VO3jOP0Qk0BReZzO5/6zJjLMNwmZTLX+9e57z/9GbqqXQjHz7yMvHgXF81pKkBTRYseKxndNsPntnTUCWZ5XuuTFgvNQGOnlShK8DERcRvza3/5Z2izTjVfYP+RBzm78gB3l6EvDlaETFupVMApYRntue44vsnmcj5EmukEUcyEcJqhDKU+k8rGjGPTRKUYfli7tnoiuHRGel4u5SpUoyz3zTGNe01HkY0O0yZI+2G4QdoNRrg556m27TUUWpyGVFGx/H6oqndZ8xoS05juMUu+jrY7VPoRKIqLRrDPLi2Rq47GBTQozVnLa8/dptJFEp48p+Fk4x4xa8RzZmu2m+DynESnI/EExYtwsKhsHArxbtv9KlJZATGy6W9sht3tuQzvuRupnLpmfK2ZyXSQ6zNu1Xk3e5eb617F8yKjcvjrWEreetGmNgD0EvrUcDa66CX/6Hsp3HjQ9OqZ6ctChctxmpO595+4VKXRiyNiddLbhbL3gRvUh4eoOKt6uG649aWn0bNTKzAF1CGh4rq00adM5iTHe3LE201H20Sm117VmGRpRRuvTo5UNZBNM7FEzEkenUWl+OCpW8M2c06R9YrbT38d31giob90yOXrN8EJ7YHBszgEl3JsYhWJlRlBfOvAZ9iQbrFtWk7xZT5QgfJc7pnNiDoFDRuHS7koU6sqI1ODKWHjhL2kfhQEXzVweP9+97NrQc8CtObENSbkumixsi/rOcBGrkeemEPVEdVk7SwV16y3S6gZQkjG4cmgHXhMQNNRztFrhpOcWiVNuSADGMfpc6WvUy/debZ+pV/FZpsjzxTHGkdLlIVlv4tnP0XzeXVIK8TjltXZSWKaiqPikttHNBClJYgB59jWKQBY83ufyKoggwRK0vMoTVuGrOyTKQ96iP00h7phcd8SIWXYrCLx7hkkHK4spmzTDvvntqs583zTbSmP+tExbllL2ZYwWZ6b/3Xou54JX53PO63NFaLa2hKhHF/Xb8zR915BxSDruy42ZcHc5vjZMMqLPs20eBez6UWAoCZxtyHAYsHVxz6BLBa0ajXBw5tvcfziV3E+0vhItXYmhDbWgUSx2uoTy2Mv6EgjEe3GMViLKo2v7bUtyWCSZKLZt+jVQnpHe7VdSDIxaQJxrahWShWUK3fOOP43nyN+6UXilQo5iyxuvWbF7E7W1MmB4yKESrtFlpCLRo1hGxIzEQysciQkjBNHx3PYNEeV/U7tt16YKPSC2fPK3jxCdXVh9nwH0iqsI9pGzNJcVojoR6rd/8MMFHw+z4hUJU0nxVS0iMyrq0IuhNXQ5y9bTx1CwYBxWua5pM0iCl58UfOlP9OexHmwgsOCWcMZ5ZDZfjVzdo1gBDX7GqMqIoFLR2twEDQgvkLPlNh6gmuo1aCIlDYxjHy9hQULGWJTuxLckmYRZ0yZ4nyn3ErKvRINiEQiDq+eKOme11bs7VWoCC56jp9b4Q6WyG3bpxlrwETLd8ZQdD5eQr+Xp1omCZu1aDaqQ0z2SzrnomhI99LeXqXFvAoCWg0h6cumXvta7eX3mdAO+pRUf71PZiyjocRJV/J2QNJSCO5c3fhMdUTShvVqGe7O0caQKvMB+zXupiECC2aVOfnL77J+6xYLSUhE3qBXfA6BFR1pQAxM1JPzHLWutLGIFcKKtrAbarAbCmfqZMBQBME1EL0QndI6pYotUgm+cewdK/q1Zzn72rNGBJziKsfV6HHO4daO6CLB00H05wi42N9ko7VBaGaefzd2LZnLJlsZNFUQxWsgipt9KTPLsZHF1PMw4axjeCgPfvwJsDpmtLUSThrcqRVD8qkPKy6766tnJi6ZiRJxsUK0Gp4/noMoXvfYJD3nrFFxnk/1Y0oNwyDPY9eHSmAzmmWYTzIwmVJqM7bSEaVxwiL2vzhtUhXFFfH+G9CCVBUEYf38GZekwiO00lCrL/oWHBV5k5Uy/FjgzHDw5lOJIC7N2davZygtiLM6SXiCtHitWOkJ1YHj4LGFEdcAL37tDRa3DhBZYXVsrCbkHCOx6C7f7S8LzIgJeHJuf2r3/+H35RMYEv5dmyR6N3eNkx9u1cWLV1pMxAUS0dzFLzZ844u+lI1cETWGwdhZm8/x2jEGi5ayzy5ngqtOorRJ7C1N0dl1lYNKHG3i+9VBhdvb5/LRdRBwzsFZy6tfe4oqCjH2uRheU0iwmwCWTJaPHERT1mMB7Ckrs3PEWdIkusmEIsZQxH62NXG9NufUTFS+te+jN5wxSfkiSBpvXoyguHVaUxFDOk5c13KP7Bm7NhETP62BDZ6R29SWbP55cTLBG0vs+fskd2kkoxBPNUmEcrxKw1vnc6BRx/LmDUgmQIfQnK5wx2scVUqCC4mwtcg4zA6SWUUG9UQymXWoARaWkoW0w9oj0kv7wzHmmeQop0Q6J025JtVLhg5JJZJzXdBSSzG4GZNLw4xZuHcoS3G/Mnkvay9GRn08Q/CoLIi5WBYB4YDVa8qr//f3uX3XnFInz56lnj1eHUrooHv65y/J+Z1w0Yr1KkmxIqC5bozpELanlKhtojFm6oqpIIBVdY/Ew5Ynfu5B5Mh8gHo3cHJnTeWuoCmpMRu6zgf5Ga9fIMfk6UgLdWmu43o0pTmq1Z5ETpHTLBiMf8smr7IGygyp/aG0i2smQ/FyMHKtEjMYF6kiERjHpPYyCAUWe1Vc5TZK/w7umbtxQENfsVEsssvF3qGnkmuikH7vNYfQBsRZFvy6bVncd4nqxnWCWNdts2J1coycQb30NLHtpSVJBLqCjbIQ2aQz91RtJ6RBbJ7kxSXz1uZvtmmHfWcNpa0UTZUZXWPFtfCCGFo3oVaiJhyxNG9BiSGCKq725ALmPk3Ctb1WuZG0lZ7/gE7l5zMZpdprlZqyp6UzpSg9oZzLFS5vY+fbrfqXuIw8iongrv2CxSPXqK4tbD0UqhbaVxo0JBlcBGKLE292fALjkraZgYn6XmbpFLas/jKhAfRLs7EeogQ5o9JF+r1BxKPqkulmah36rG3rJ5Wa3WJSsxMzs9o8L4dHxwSMZ8aerEOkZMacpS9Dr0IrC2rdR1844ZnfeoVKFwTZR2nZZ4FTM9uFifvn1NPkjYE0FxGPdLsim58SY0vRkXadaYeWRSwIS0SUkCLbVtKgy8DNv/mAJYwF5eSFlpPvhATuIai2HVkrdbGp1zeLAjr4PXl3tO3Wr1xXL7oBV59blTQIpS+gNaXJzJX+rUQNOHbiNy/D0r/vZruwGW08rhLGY+c7Fu9GhqqHXqXtfvMOnGyEE/djSd9tYYmSClsJDIib1pbRnW2zgUgrkcP3fowc0RFjpHnmBcLrt3FOaNTAL6Jol2OiCq2L59G97S2jDI+IhpfJSuz93MrzxRiKU8FFSSCVrqMdsYZQ2YlOaqqmZnHqqVqHtgFqh3hvypIrXxEIC2W9p6z2Iu1MdJ6vlXpL5N7Wti34Q5stzviii9GrPW5nrqX6xKO4y6l2RlBYCa995auAJTSiBh7YQ5sbY5qGxLe6FxeEYpvQxqzVOrJfAp3GMgPUuNnmopkswMAXIcPbdDn7fXpLB3G04ru4LgCvkaU2IAbiuOiKgNUIFb7T8FqgoVKPoWAJFRkOZyrnfDi38d9WISWiKe/F9vaQGK30BO5f8WP/+WMWPCIBWuGVv3qDk1dXCC1RlrZG2nYmrmxYzb6Gfi0Cyrpbo4uQvow0/HbarJ94BhDS7vu2brlzq7IaW7a4mUXXwZGcOy4xU9SUdgJslNctmURf5z0p1efoaxsmoBRp4wwLJH1pzCQ6YxxBlLoViELwSusCPokCJ8vAzYc/gEX0mLno1jPfgL03iY2znDtNspoorVd8FFxw0+PM5q6YDDhTwJPaZwIrsVf6XPFUZnAHu/40X+JMSc9RXsUa5Sg4E4RTtFJ2ljuxpPi+Y1u64ulINKe8IDQl846Yua5k1FnCS+a/HKqcQTilJMJdnkz/sKe0kgwKGROxsATKXgNppY/Gqbq+DOQEWg6uVxx89GE4tBwbF4T4astrP3iJBwG0xYuRuDbnQZB9DqWdPy94luCnGYrBoQhno9dgI2JYJMWQkUxk/Rz7O2btIw4CALSYv+xoZOijxwqjybjAk8YuAbYcfo8xbNqs15whvkj7KqRRmXzt5CwVusvCoj03ZY2Kpwe1zKpdSYvE+pSyTIKmvKW0LzWY1UGsYqUlRFpRMlHz0yDwyMev8MDPX0EXAVk5mm+d8r1/9zp1WJjJTdemwSdNyCehMTOmnIpYtj5gYrh2Y61k8Jvulkro2CQn54kSJotqV0I4owaX1+XAmXaxgLMdBnLBVpWbNbdZlrGrMU4Y5JdIkOF1I/PAVNOND7u1bjbjsQpdyGHWVoJTc3Q7gQjX3HvxDz2YnM0RCS1nb512deA1+xCSpU+T3cycYDMDlaTRK9uRIib02vOmPn5y2Vyons4pnwlCV7a4Kzom3cUyGaE0un+ax+SYJpSCnOAokFHBz3kjhg8rI7mWkvxYOwhp3ALUqgSBFuFE4QhhLYG1eKIs4MajPPCJJ+w+0QSP4y++yOXbFijaOEeV/GrlXYak8GJtDklrg01mUyHZzOe23LPs4aJSbhYvtmtxvSSyYZQrri3tmIp2zEzJ8nPPJjvJoRObhmLkeIzlZ7tX6ZB3UqckRgEri4aLJ1TiOUNZSKCJa/Cw/7GKD/7qQ7irStuCvAmf/SffJZ4Ktezh1dFIFl5sTllHSrrOzJOfHr0rzIS7XWEtaw/ZJDWnN563C3N9GTt56KDvds3M+/522z054HFGTXfV2DpNJQvSGSerzfisSd4r4sv7awVpe6l+Mlprm0HRaeeQ16QKjuHtVc0pHR90uEVlkjpCfPMO69vP2S2cdIUCVfptHmUWGX9zHUZRXnnsiiJeUqZ8vocmAiPDgPMNL1yiRKMxqLPnE1U7FJOukmTK95CQLtNRV9ui4qbaBQPYtd/rxtNEBtnxPST4fItiErAVswq0Yj6xKhHjFaahVERO3/8gH/gffxHdc8lk5Yhvtnzzt36fB87aLqQUMVBF0/Ds/r6T5/KD619E1xE0h1OYUca3NumeXWFIkUh1D3hu/bg0aRbjFuiwllX7eiCS5jFRhyC7ym2WYcQWtowx1yOZIVw+Ed3zbB2qORy7f4cDa9OQ1dKHlzSoRFoaIp4mBtx1x8OfusIH/t5N9FDRAO6257v/8nncaw5/dw8njlYyE8/CVomo0HtHXDfncmdms+EoWD75wcZai5ccDymdBjFuW2KP0pXTzvjJvsiYzj0g5LvZ7ik0ONcK6cxVSWrdGtk1o9WUzGPSLyIKlbNQ4bglxFYwjCuzQPTfgVH7HRbyuj6KqyxU0Qs0TUs8a/LgjAnGXmbMfBVAK8pyF9PjI2sN/XmDEMgiyivH7ytqUWW5TYFKyrSppaMNUwxM6KLxJPYbWMprdtXJi/7jyG8y18UggEAwpOaOmZZ7IvRRYDLcrosUhQPQUOFEqVXxtAQxs0zjKx761b9BdeOK5c3g8WfK8R9/lerOMSGuqaWi1jb5AqBKiW+x297jPZo3Vr/RpiK/ptvQrCwaNuZlSlyKQuokzYhqlQIgdKt06YDSnhZl0zlr5hzTu2KWIoSO05fOeBlc118fi7VwtJiZcegT8sn0MrUPXMG8tlf1TDqCus7gpCi+Y0YrHAd49thnzZ1rx/z8P/wQi8c9rOnSEp7/7Vf5wWdfpj65BlLbk5AF5Lon/YrZXTUiOR2AqSivWPzb11QUIqhMRj327GiGmTCUzaac51l2Ltneee0e5JwLt7eVZxK9DpBptzV1SdotFkcr3TSB5b4ldlpLyUDy9500zTn5Jbllqbu4V3QRVbFMeYHlpQRXLcY0mmZF266pdpTSO3PWPZQLGCQ3bhNPEobWBlMpo1GzJkIywW2BYMitgxDLn1MYsds1UXXkV5ZkFgQjFCbHDvuKyS+U6UhnYtK0lkKKkutfPq8ZzCa9tAhBPDUtAc9aDHI+SOD0sOL+f/DzXPqJR2iXio92r+b5N7n1+T/naHWMF5cyNGyDWNXCeSzfTMiytJ50alQaDMXqvGiqeUIC5vitg44k+iRwSIvmhdlCkDb6TPlLYbBxSrOU9J9zVNTg7uWM0zSAjJU2jnjbuH96wGHjPcqmhBqvW/DfuhGqmZzJuWcW8aXukOqycvl9ykOfvs6VJx+HyxjO3rJl9VLLs7/1Os/9h9fZP76KsEBwBBqEsy5FsYqRIG4gImgKrTamMlyFXkubGrPitO2w3u61VdK7JcctBweUBpnMnt9lJWSy3UNoMLMjHWvmOc+i+z1pCFMJjHb9dJa9CUxm7pHQS+12D7mQSSbSm3EkiccxaeP+8FIaiFHWs2rNmV9h6WRJU8hx46L2zo0l+F20tIk2MGvJlt92aCLSw86oMwiZpPGMzeA5glXCu7MJjVmkm07EVJrS0QsDImw6qfOZGqALFxVa1jjZT8CG1k+DcNdVyI1rPPQ/fIaDTzxBOErMWgWO4Xu/8Vmqb7+OckLQIxYCK/HUGvAEzpy9FtNwFibM2P8ziXt7q+aLMNf+PqOXZzyO2ZDhqRYtBFb6xMZdmyUI9mjU/fiG986rYXUvL1qZ47wx2DiCs+hGzwJq5fIHa+5735LqiUOqhyouP7rAHwrHJyfsyx7+1PPmF4751v/zEmfPrdiPS5yY+UJTkbW1rizcRhZAlYI8ShZbMtAsOgx/ebcJtzHu3bWQ/7/azswkCytjIhkTg3BxSARniemYmBUOh3EOSt68QfKrK2iVEvQSxekRSF3/9zg6pSCudSKurY/44Drm1aIsHtg3k0MSz+vThoPjgAp4HC4K60VAAvggSGN5JqGKBq2CEUO3Q932vD4+us6qZImIan1HSaWAhehjb/JS14skIyw6HzxRgkWuaXplXNslNKr062QOeYdrbR1Wey2CJ3jL5vZrEr6REFyX+76hqaiCuJBVCJrazFI+OMtPKemK5ORHJjhGYnhZS5ncPymREYeITxqP0IpHeQsnC0QO2P/Mw9z4+38XefgSDZGqsTBeYsWr/8vvUv3JlzkQx514iPqaE4SFRjIi135sMGQtc8xbbN/mM+0t4L2mlOHdTWMmhTQvi2nmaIQ0TwmmPXb7Oes+koI+LOmxc8l3QJJj09h0fRihLsxcJTlqma3O1vlQkjSeoiRjkcMSByTUZPspM5cW5X4dpGzxsYkuI/Jm7bPijUXDj/7yw9z3wcus31SqfcEfONyjgnuoQsRQTi0YJqLSkiMDD6p93vqzU77yz16geWWJsIeyRyVrchSe6hoFFrKfQF2EIPnZVf3znsnb2TQb9vPUosiX02T+k7H5b5o15FwUZejj2EZRtpm8fBJ+s1ZYibC/ehdCuXiHNZON89jx3Nxy4MeMnTC3zt5ejCVK7OpAU4M0pRq6Y9tb9gZLgaiBGEM3pk4yGz1Zr9KtZCeF+yRiz4gTWatpvUmN6iA2KbR1GVMGvRBbpZLe7GUStv3WWSMUCBBcehm6e5omIpUzYhV0YCYUIsFbvRWL+oj4BkySdfhU0KRK2e840KiEujOt21IED2tFq0jjPBURl2hVKHJwJAqx1m7IfsyYQsr8hw7ksg/QiGh0RFdhLM5T6SVaOcEvllQPvQ8+ej8HP/NRDj/+UcJS0RjtMawDcV3x4r/6M47/6ltcxfwBB/6QNjbUAoozE4c4okrnC3M61OayQWwqofGibXvVvhzoPEdGshmYLedYc6kWSruhyeT7T2XlT4y3eJOGhtPE4JO+mBnL5LjSek7NPIhYNre0XKlusffBR1h+4hLLulBjXfrQJqYrGCDrasGbf3KXlz//Fm881aCtBYXX3MEBqwhRjAm1cU0ti8RUAk7GcJmB/EKXZq6yDWPUxuvUpNXa1Y+2W9spKJLNrPgfVrt4NFexittCXXs484v03W+aMhdlgM0FVgM92UPGL2RneijY9RwcuEoyqySfqBwd0sFdCMSTNbFpLArMRcsn6UYxMwcZj2e+haSVVa1Qr53VGcH8OAhINJXcxdhBtmQflWke/ed8o5xwmddCYyaAghvAemTlwBlqroOqMVNIaBuoHE2dHJGSs74FAjReUJ+zIbGKSKGiOVygOCoXYQGh3sc1J915JbS9AtrukWEs8pfdCLtllP5PcUBFfGCJv3IDdcKlT72XvY8+hn/oEv7yEVJXqA9oTNn9Z8L6+bd4+jd+lytffpFLdy3GJUrNWVhx6FyybdddrFIUSb6TnMwYEtGqurW0lcsrfW9MZdEl2/W2eMsUyubBHlplbJ8UsX1iGtBuhCNHqfXmKtPFDF0oGVO2gVIOaqBkx32KfCzP63Q82WC4gjm1N/0n4NUn7LzIsXZf0qS9LzF273Mublc5QYJF4i1/zPPg+464+bdrXvpXb3Dryw2yvkRLSxTLiakRalngqEEjQt2tx5T5r/OMJTywbPCLhQcwWxZm140SWWC3JkxHYM2ZvIRhlFeGqi8vf7eTF+/NOzQelMw442Xaf5BNW3PAkJ1QU2gdZXLf7BgoTF4zghEM42nyq6zlzuhEDsPiyiHBGxhcFD4YcnTKcEwlMGX3tWbok+JcB60EQu2pHn+AeHAd7cOJJtvB7Skmuatnxdp6D+pTxZ3tc/f5L7K/FlxTJRObkmPuXXS4xjC/9gO41qEVND4iB8AHrvL4//xr1LWD6JM3v4X6bcAjpJZnGQpG6RB8FIJYomd2Xakqi+CoEOLdE+5+4fu89r//Pg/fOkk9N6ylIqqwdAkkpHCSClYvnuIbkja4Sf/KYNGLv6mZBA/8I9onSfa3SeY9N58QN9/6sTkNydySk/Fip2n5LPMqBCkiSWYL9GinGdkzaelJWnnv3ddGaQhArTWX42VWX4zcefE1VmvP6pZy5WaEq0uqG0vYF3Rf0QOhWjrEK3s39ljcqIhRePzJG7jX4Xu/9zov/9Vd/IsLZJ2xzBqiZHS2Tc0iWoBxMtmVjr75ttmPIqyxWvf2d2/yOh8qKPdZ1ijJkCtTV+bvMkMpyZ+Oznm32tsKNegYxTmmr3E47G59m4loE76+lyBEsr0L1E9geeV9MBrjQEV1EFSRysHpqX2ZafjeEscCWKd7FeMo/B55XDE79qFz8scuE7/X5HwUiAbJp2l9ohpIw3p5gw/97C9x+MkPdpKM967Xrs7dEVsS3qbWXyM0gTvffIbX/ul34M27HDaCa/O2tTG4aDAtQWJX5RFv6XU52i1W0mUymLmwvtgzLz7L4HsjXL5klKpENQbe5QAoxCbQPPcWb33xO7RPfZVbT73IYUwwjKoJ70mIusbJklYDGSG60tABF/aMrX99RS23+522IDgJWK2UYYKmSaCFcSlaAELWUixiLjO6ucRT84VNmbGyptLDu5u91CKrsuYx3zJ6ryayXKL+9vdIwJjdjEBTiV9Jmo0CUc1AtlKoUWRV8YPfeZG7VOxJhWfBS9okAScQpKbdg6NH97n62AH+2oLDjy24+vgecsmDj8QHlA/8Fzd49Ccu8fwfvsBzf/4m4bRiIUsaPWMhe+Z304ReDAQJs2mK5LwicWScMPpE90gAACAASURBVFu13TdEr6VcnPR66SO75jC8hvfqd+9WEv0Obei3F7eWWvZhRJ/s+Rete7LTPWwbZa2ji845ryWaoKKbmlCRNwKgJ6fd5wD4ykPtcAEonPg2ntSnvRW4kfa1bWytL3wVUfArR73yOPGsyZpLjasSAYgFcS13x0Xb3DWNzWs/Rhbr5CNRoa0ibR07YcCpR1Z0Jq5OG0u6ePQGDpjp2hR52yXIbSwLZ6e/+XsSzIUorNsEElvB6yfc+dxXeevpp3FPHRNOT5AWLmtLRQBtadyeBe9qS+WEQAZ1tGWtkBRqOf3aZTPPuWCK99wEkezu70nUPCGIKXLvAneYQD3efsEItn4U4GIQLxluxgAhN31JORYsXdeZy7zR5vRXhcNTp6dQodxhIcbgDCopAqeYw/6Q6rRi9a27vPwtM6XKv1nT3lfx+M+/hxt/+yrxMNIcRdyTe7zv8ce578m7fOn/eA49XVNLTcOKSq24TWm+3PXVGkd3TbUtbuCdW2ZZF2Fa/XX953lmci+j2mwJ+k+TqG1fesZJPJg/Q5jE3NoKE9Jdn84tpfkteSbb2gDPym+SrOyM7y+gC0duJFpmdONo62hYXQuhjUnwaAKxFjyRZr9mdehZRiWuIt4JVSOJkUC70K6sbUjYXwAu0IXzakzRXQUDyOYyHy1qq/GR9aVAu1A4bNG2RZsV6jxtkvomX/2ZdQ8TVNy3EV23tAe1OZcDuKWRT1mao3ClLftRWS8MVVii+XJCZUKCCxlHy6GVwEpgX2kF4qohPv8qctzS1OYss7yVaBI1fb5BjszbHL8H9QXD0eHeCsZAVqu7hFfucPbabdbPvkV87kXWr7XsS2SZgA7N2yRESXUTpe5qVbSDkrO987lnItsJrcSWkKK80sDwanZ0g3jJ5GMzCsxtbHchaGV5DGKb0PwhPpmbNs0n+TobcwBnGm6le7bnRq+oFjpDX3tjYE3vyKI9FFsJp4suFF5QRCpGFtuuldFdritsvYlpNRiXWnBLTGUGpDMN5Vaz0PwcM7D+HrCHaNXhdgUaYAWnDvfCku//xus8/3uv8dh/dT/3f/oScU+QQ+Hqpw/5kfAIX/31N6jurtnD9umZmJXAa6DSltZdJuBwukZoOq2qWzeNuB01i4uG846jvKL26zhOYMy7r9RQSi2k7Mml5NH7am8+zkFH92amHbe3rZmUdTve8fOFDoqlhF0pfrY+LzDechzQB285B+tX3hr0C5j5i6QZCcnWOtVh1paKHsSsEp024XqNRWJSr0MyizVQtY7QRt743B/xxtNP0Swu4dsVEhsWE09q3Rr8dBmJnJ3kDiA6ojeMKgnKYtWgewtWDlb1Pu//b/8z/HK5QfAmASkTowwLpV2EDnvNRcEFpXn1TV78J/+C8J03qCpFgtWYR0FCdjTnMWJmvvGbpn6DEopq57PyiQFl+XGVYHGqCDXLQTDGXEGtMk9kvg1eQ8YE3B7lO49vlMffQ+tb1nUOuu1zv02aUdFkYrQQBlEzvYgWxKFjbhkLqENrsz+hc+D30WH22RGS1mP1OqJmH8D5hKfHGTtfA8qE7kKt9KNKhaqiElA9JsqCcMvztf/zBa59+4iP/srDxIcE8cr9P3+FDy/hK//oBxziOT2+Q+2vW4lqMXMz2iSzXSxYYiDMkMv+2Uz91pK9UvfSynoocwGi+QlPfX8P+dP33O4hmmuUWJgkrQ7ANjGA2cz4kVDUJTJOnV98lRlJ6YwfkzytXOordiGwHRJxGrfUEdq+1GfUtBmaSDzLhXyKVkCZqAx/C6IJobYbpL22Bchh6ZTPpjEXwDejuPMEv1Cdwuq7zxLlGVzKMXY6DTsWo9KMAhNcEl9y/6EOtLUiAdozwadNfXL5MvKrfwt3sBiY+sq1LvvVRIRc45AqoHsCizVaeQRHu1ZOY+BIT6ExU9mUxuqm1Ka0dm62fk16iyCFJ9vHZZLErf7FmuxI10IizmjDQCfpg3ahvdOmmXJndZi+g99dbIgulTjOiMwEzEdhpHhbuG1drcxeH1uDHGGZWFwkqi8VWUpvxDpVFLV9t0AJKfTXzMCta1GUKtZpTOO3JOdS9GGrRupMO8noy2scDWv2OUDwGCLWimXOPSma2zFSyRW7OFIGPfT5ELszlezpEczcVwOGAnzcHnNUXWav2efkj1q+8N1v8BP/8CO4hyviouHmT11Bnz/h6X/+El6W1BqI1HitDKtLm5QT4xIbHXoijbG2KSvekb1B2RA3HqewiRbsilIBu/pPBHsVOo2kYCyZXY2ZR5ZlfxhM5Z7yTKagUcatjHzKpqCtfWZMpznGUrSB/2SyvySt6WgJKzoNAbQHh1SQ2vF9/R430k+I55K/ylF1hbvxFrVzXQixkv1D/Tgl2S80cRS/7aVwEKo4CJSxiK9UCTthkMXWEvk6/0wmL1mzEyAjIac1jh4aUZyENF0hpMJhrsLyb8RMmtX+0pzYjMYxJwdoZpB54JaT4UXx3rGP1VFR7xL3U+JCBzb9kPH+1SLC+s4hLNhovpUkddJBvoi3sbRyShUFEshj1HWaW58kWGorYwj3IRZt/3mzlZv3IhJ0O0FGptpINxxFUWXo9z6wV7DKhnUieBGvgfaRAxZ/7SZXrz5S2J7Lp1uSnqyZCC6+RaUn3c9NdZP1GnyEeOuYl/7oaXyzRy3VrPF9zn/QS+a7RTBNNYPzj0SphreWSKRBEKv17g6pgMveEXTNmTZUUrF+JvDdf/4DnvjvHkOPKljCfZ+5nyvfPiY8tYfQ4GhpxJINM6CKFf7tx2zIbQaZ4wZSdPZxafcJ+tfUeopQ7Ibhjtq297asixRCfPqu1EZmHtW71u45NFjHQI+OWd9JBkgstRdk5vzCtNVdP1NDfnZsXiDmqha5QpwMKzqStJwKwtrhgb3bp4Pf/V6N30sSXNo0pWbW25MLsxZG/EqMofJ1FhUz2+UcmHRdNKWKNtlx6tolLKXUR6E9ZAklxmw2S+aP9IOL0knwLooVXhJFndAs1ODpAdpqjDE4aAbDMtSshkTPpy8URKzmSxCL6/fgvMc1U4KE9B1OtEEwQwc8aIzBZV4n5rC1IIpYPIeI6MqSG8cYU6OIp2HZ3/7zxEqkY1SS9SKe721NzWY/NFSoAQ2OtKw8ulojgRVKhUjE07J87wGP/Td/HQ4k5QaNtMsBybL/BxG6XJ82pCUTJDo4ddx96jWe+YO7HGlFTcrKnyAb2cS2kQ9DztSIA5OXdLXWBUkhy8J2k1fW8s1KmueSo7DWtg1T9rrTnGtxwh57vP7vVzztn+PH/vv3wlFk8aDj/T/1IE//5Xc59JdQjTTa4KSiYklnNtxK35W+nEPWWbR4Xj0zMY110T2NATNJMEEX3U2m0dnnHDa8rfmLJP3dQ6t24oa7MMyLMNXzzh3/npnX6MmOzTHDBzWGiKQ4VynTcFWEuA641yPamvpK5ZGDPTg6GPTRJW0WZumpln8uzVx5/CElAxpjScPBsr5pUuhwA7UKToTW9WWqXAG30NnYM0cCXCtW3Chhj7lgini7CHZfTfcVgbZBomfKnqtOelOlcxDBRYhOO0JFnl8E0TYVPgLnnVWjbCPUxbPRZC5LDHVOXY2JVvm2PycjzHaPLaYXOb/HmXGkaoISbc/EmZDZqTYfjTR//kUjbIZtjRTOb9svFCG5yY2dkGsdwlLXhGjBBEEyBH+D0nB78QYP70HlwoCF9OMtWzKHJlbSWaAEGhzioHKg12uO945YnhzhWOJ0VQBODjWSbZLw+Lf+OtvHmt7Jnl1MrWuTRpyjwhx1kvmDrLgbTlk42JNDnDtM6xKJrCHAy597kVd/6hrX/toBlVbc//Ej9JFIeBGyKc8IO+ke+b0br+Z4fNv/lsF15bdl20ZQziE2E01Gn6cSHd/pVnVhcfnuE2G9nfSconqy1rCpQdjJUxqHOnss56IMKxtMAzBJ2w3De7OjuA8TLh5g7CPSXKpwlgl79BZdXzVW7amtTOJqeIWzrz/D8seeMDl0WXHp0Y9w9ytfZnEqrKvI2kcqEerGsLpUNhM2JXvER+swVZOlDEjQFEDeZs+19vAiuQ18Qb53c3bhuYkQu8YYUXSARoIaetAy5ZBcPqhgz/XB693gE/GPSdPJSrhY2V9Lhs8vc0tne0/+g5jKIVfaa1/2jIwRdRAqBdqBqgxQhklPUrPiE+217uqy0PfZhdZ117nUfcLTkXrWGZ9nN2YgLknNm9eU/hMZmlELFa90zm9z9N9dBK6eeYveSudGHK16XGfc0kTgXCLYNYhw4mpWtFyKkUpXrF3FXnsN90pAF/OMerNmiYK0/T4CKgISPKwj4faa9aLh7PSUw7g2s48qpwKOiqUa4zLYxDIPKNKmfeI71jFudkUgZQZrXj8zDG0LX/bJ0tB2nhPPJW94XfZcVimicmlPS2G/PeL1L93h/o9dgn3F3e/48b9zyF/9o9tcdvdxwBGKR/UYA7f0naCmkoM2bKZh5PNB+1ovLkXMRXrBz/4t8dOGNl2rfhon/SemgaSwdDZroZQkQjBzU5Z3+4o7+XcrQ/1utLcfzVUiAV+0TYkyWQu5YH+TMPRitqPstN+QzZLJSptozvsm8P1b3+Aj+gSmMETuv/kYLyyc5VdMJQ5uUR1lan4bJ9n77WIi2lkISf9OIgig5sgfxPtLz6wQ8BBb85WoKFKZWcyJo6mV9eV+ww1kd+lT/rvIs4LjbSvcA/RJmpvTnF6qNFcdPTvFnums70mylqjJxzRPeMr68WHnHJEiF2KHpkmivYgEedDsMVX53Esz2K8RyUoYXlIgb0xEQyMqNbXC3c+9wJe//tvsu90jh5zuFQRMO8fwmgaPxzWOx+5WSMy+BE8jjoYWL3VK6s3XRtAVHmjZS1qhUmWgyNG9e1HonYqMUzp/k8bE1DWzZGgdP/jcK7z/lx9kuVeDU67/zIfhn32JcBaptE1AsZbc2lsx1UysY5/NliZY0eh2Zm6ykWF/7y3LrorJlOPoLjf6991qu6MGzxCJjZYJ4Fx6ZkFgOz/LxHla6XQGfP7+nAAAi+zSAjG3ZzYxpY9mH4AKeBeIQYjf+Tb6qYD3niged/M6ztesqjOD70hbX6uhY3mKMVoo8SZB3Fo1kon1OI8paa8VGj/STkSJraK1dbAX7fVtfM21x54YGQc37xmT5rlLPZS5FjoATNNK48BslX5z2kPHDIcwaNHRaSfdCZmpBEM73rhKG+jKqEpXD2Vs/sq5EZuEbTqaa3OEFzdFVLHtpVopI8us7xxx5gmprro54x1KhYGoI7BCcVTsRUVeO7XIKs05KmMBa6glRFZEzlBJMWiqyY9i5qOGBuEAy9FXPMpCAwuEqGeEFCociFgMWPKNSGt5L0UWRNb4hB7VzL5vU8/9moooTnQCwyuhBST5W6bmmGbeTZmkgYoS7wSOv3rC8ueumDmrEh664Xnz+/acJeXYaGxBxkCN/XP3WwAto1oMmIgf5IKM+8pIwzrQUi6+j8p5VjJdUXEXufbttgszqxz6ex5zUcdGfRPINvdhf7NrJzNMzDGAru/76kHsMqHUIgmjNIvFyv4N0WCZuxDiVUN4826vci9q7rv2I7QJA8oLvTJfzC86W5PxeMUlKPmJOVruih1zEj2ktfTT69ntkFhoJYO+6TQep0KMkWOpWTxp9dCnsmbUDdctjtP7B7cfjrvLVodBEIJKYgaaEJFGMP3SedbT33P3G1q1jEnFZFp02pvPBheFTtuyvnWgrZT37PGyyjGUcl4p/Zz/ep4fzWUMJM9lc1B2X0+kogWNBKBBWDUrIkIjniCOVhSoiChRWjtcGB7SoukAiHKGyinCKXCK0hjwJeZtyHFIbTLBnIjQpgiySEQlsBLlVNZc/eknuO+XHufaL32Io08+RFuZWagEl5TBWhbTTOajjfWbFWRanIZ0TJltNJXgLe8B+77mxS+9lVRy0+APP36/CYf5GvGTJjbRAEWfZsgKG0Y8S1WV0Xf9MZ6P5JBSLMxaNAxANe+1ZfNWaeZ6N9tO9xAniO8XV2VE2GSauGctZXvnPbGc+m3bCLUaEqBs/ukuF8BJlyW/EXPvjAlYgp8xitP1HV6/81zq0MwLD37qk1Cbf8VF1/mEsiCc/SVjQteNaxvDvEgb9RHFMtW777WfY/RpLaqSiVqk2PIIDh64zJhkzt2nu5cHrYcO+HEXmSk6zBFftsGeOWfnZRPcxvfSM6b8d/48b0tLPWqfPDltxc+6SSBHTrnu3C39jn6LE0Rxrs15E3rHY/97pYqnYe0cjRP26pqawH5sidJYbR2aAeHyGqmiUkf7bBhrzvZx/ltryyjvXsKI1wavkTodBzgWCguWRKQH3dQGaHj1+m0e/vuP89CvPckjv/YhLv/0o7RuleZYEtdNZjKLhUV6pOdEIZk3o3QchMTEN59D3Qj7L91GMWBVaqW+Bro+szXrwBh3h48Xpup1K2j2JI0EzI0ehuaZhIw2yEW5SPNJ6L33YOx7a84IcPGNsKHqZ8vmPbcNVqyTRLcjTBdYgQExzd+hw1fcdiQiFmzgNIXPqjGcVpWQbiwna9xLb0KbAQA9/j2PUj38HtpKQVPp0GSYFKTPkenGNDXOnpgOxqaFVuRBzzM8btHi8iFIweAKTU0taXFx6UGqowN0Sh8u+svjdOqHQQODiXUnkdMQumuzoT8fmtZho5Nz2jlvxZQBar5tYwzTZ4/vYd/Oa2uiMTlUt3QINC52X211iibGkvOxvVrehV28oqY1XLXoNsKfVX0vP2tOtDLkWjs8VgBoAbIgyoJWFrRS0YjQCKiYPy/S4nWNKNSq1Bik+35ywtNaqYRYC37vLku/SiHDDI7xQsSpVbYN1B3uPIaiMkwQHmiPpbXC88LrArGnQbq3JtRtit0yJuQ3yUrqY1ZnHg6di23xOY2tH3d/npfYCTtzI5m6/7vNWJyW0AsAooPsVAA0bqiMMKONTLSxmUZnzFfZNDaXizjZksmrHMtkTRGfar0nf45vk43Yp0foHME7VFte/N5TxLAithGJnvrKEVce/zBx4bp51MsaCf2LMCigNDE3A8AsxoNlymdz1K5tdm2cdEcnYEqvKUgg1QFXFjfuozqoYW9ouwbQKoMZdt8QJQy1kf7sXuryAbdI61CZZhS99qYnyYw4vbATjExE56XQd+pNGJm8zj2dXQlDf4bXiKhlppdmERNA+wd4WhdkVNtzchogiENxLGJgES16KMgejdSJ0cQNKV8kdAckxiBj9tuArkHXOG2MUaTD0yMLG0tpUNaoeFpZdBFLAPGkTZoOLKpDxB8Zwxr9BybNz2plaVyqIR27wK1kX0q6OjOKdD2AV5NL7ty+g7RmOgTwHOHYI2ry6WjA0U7uxflRlIhyG+LsDi0gkzgX08q224JJFXWYHf/DcsC/rf4vbL65R4KglZ4/0i19G8+3KoPqhFgNT67qZA91AiK8+dw3OHn9NXyl4BVxjsNHH0MODmijEUJ3rKmQjxqTckOGEs/xKwlDJ/TQPLd9oXZitqNKOOqEU1GOF7D//hu4owP6ig6jgZXXjbodJ35Oji9ftWkcPr/JjFlji8lTR6ft2vysvb1vQ6Voypwx31TbrRr9pdUINmWbWWO2DnZxCmplg2M7ZGIXamNBTHC4DobHQYpBSimiIqzEWTDLKkW0BUW8pOz0TdDYXe/djyFaqPeWNg2An1tMFRMToV+3Zp4uNpQIeEmaW7HWbkPAibPPyW8wg7cvAZnZbfrZz5GJ8ut3C996qjknFvbWa4UXWwAtTFa7OOYZEdy59Z51OG8bS+HELZ3xZYtiymz0ibkkqcUJyLrFNYE9V/OtP/hNYtsmcBvPAzffz6WrN9MmFNZJknSVEEJ/p7kHbPkodDb/rA+qaIfl1bULmvkmCXyO4U19R4HF4oDj/Rvc99GPEIPhIG2VDROl657vroR0LlEw1YRRJ12UFw4LQSmpdkFhgxR3nWJO6btYnBerMKPtFaaPc4hTqXVlPrY5qzJrfde1Kc9rZuVXMTnGtJzuyyEzE91CQDUaUxm02Jngtrfehm+EM0vw/X8AXhucNkTg4HSZpTaolPr6Ic0DcEroHOUbc0wGuNxsjVsyRtnY9He+FVytMmb6PGbAmiKw3P6CDposnb6KLSEziRwaqX0whkvRZef5bzztyE+SM06yaeq8fbIpsNicp4IWSpNX33fllEp6RjKUw6Z38jvRHDAMUZ2Y6/pgfgHUjcw6Myas8vwBQ5mIgJq+Ts83qxVj6cJjR60HfpRuvJFo0CQVRFW8OvTFF1h95fu9SeRwn4c/9guw8IRKDS09+01SIEDcgQGqM8KXj6nw4Oi0T3ycapm4F2sZJXbH4H692Ms6nPGeJz/I8pH7kcrh1M3nfuR/u6JgmxEqkLbLDsyvZwjSnR/K9XIy6Kd8afNaAVks3jzIjDU9fx+JfsI0m+KU+qlaZJfToaO0c4KOXm6XCIMbMBFjKk4DVWwYO1TXejtfPG2zKMeSpFshpoir0RwkdvZSScxhHDHmSmTrGMgx7FLsjW0MRZN7vTxXRswgEhA1ZOgFwtHxPq++1OSJUF/17N8YOdp10xkNFOuZQShnmIkaoe4I++Tog5mzkg9lSNgjSODypaM0TyAK8SRsCEAxm9hiu4nxR7JkbNOkcnKgxn79yQEecdYNmFI4R7+pPeeZKK+8HnbMrHEmdwrjUufvVNuJRXUv/K4Ss/R+jF38KjmLfKqfwT3fhtZoMfQ5aC8xlMp1BNl7g+rwFeiqheaEV7/9BWLTsm7X4ISjT36IxY88SUIQASxDvUweVOm1k7l5laAR0INCjv0nUjC8DfPTTAXXARhkHmOlNqiD+7j59z4DToiqtOHeokXK++66LScfnWz6IwYmqzkhY9d9IToi3tmwl7lPA5ojt4yp+EkJejyyeXt1H/nVnzNFjIbnZy1pfG2WNscEZCy5WpZGyVREDAFheoWz1rGrpmLXiVpAcEtImdVGuLzCgcKr33gKK7qhyKGwvDyXp7HZ99xvWVPZGPvWsfYg+yaV53yUSCTw4I0R47izYtnEZObKdyo0nEHPpb/iIkR5xPAxIWCaAE9nPO1yv6nXok6BHtXboJ+7NFc6xQDwEZfgFbpH2AYr632PBjgd5RBsO2+cqzEW3AfnTLP2gXaSw2fzv+Ux6Jdem3GV5UvcfuG7HL/2Spcepd7zoZ/8BY6uPYQLqWJipRv9jrUvHeXWIPayS8pOj+OxjPoKyRQWp/qWTW0ouFQX3VnCootClAX3/8RPUe0fEEPkua98HteE9JB7Yhe1J8DZb27F9WwOY01q+rHOCAZTQRekIIZoSaDR6cBkNctQtrxXmYeIYoED6ZjKNh92uZnMaEPPZopt1/e/x5Qk6SYIzrRQ2LMrJQOZ5z08JzX0BFZzgExiDKraHS4BOXYmG4nJIR+TppK+102mYxpKKYHbOU5tVFEcUfL6CM3rnngaIQjUwo0ffwjR46Rt2do2BNCzFPZq2e+t5JXLVKcf1xjWxuYVOd8nFAsLQEQlEnDcrd/g6FMPgCYwywDrV9QQv9TQg22/FPtAdUY70a2Re1Z3NAVRa+ifU/d7WSyhXPk2HRdvZaBCLsRWJn7KlijEt9tczj3o76ZITmjqbChxjmrs1na8tvMnbJM6S9PG3GqP6IF2L+ZmVEluUXLlArtn8JGT41d5/U8/Z2pnMvUsHn2IS09+nPXVGllb5IoUZpbsQ+osRHk+U36RPN8ta4ED54zxxDS3jfUZaAqKD2IaoYOwFvz+Q7jrV7n6cz8KGuAk8Mq//gauEgYAWul6kaJrpdMgjNyOHsiE2cZemBmGMtNC1hAz3plTwjbz5zYrYMFMiMUXBVGcc2puy/U/P98kMxObzFSuw/TVOvhkekZmMHMGkXFPWZMZhuJCL50Pmz333pyoo0dZEvbhtWZpNF3IdBOjFPqScPf5tTnotOXqxz7Eq9fXaAfkbjnwFnKfmYWg6ov3cXjPjRySxBi3+e9aWdNK6MKFNb1ozgfqK9e59PABLJKAF+GVL99B1CHaGnFXGTErZcy8zMzWr9GcUGXMJD+PzfWULTOZ+v68/JPMnnyH98YoEu5eWNRu7Z3xxEgypWxpZT7IbJLi4Hz682eEs4EuO/fb5E/2Q5Rofo5cTTH/J4p6QWPk9e/9Ba89/RQ0LU4Ez4IHP/kpVo/cZG9/SR195+e0RLCkbRT+gNLstTGW5EMYOJqnxizGVGbNnalv84MIzdrIx0KV43Cbh37l71K/50FCDcf/H3PvFmxLcpaJfX9m1Vp773M/3afvVyEJXRFisBACiRCBh4uGwWB7HIRtcPhlPOEHvznCD35yhF/94LDDD34YO8IRDOGJGZsxMAPIDGYEDBqBbg26IamlbvX1nD6XffZeqyrz98Of98qsVWuf3TC/YqnPXqsqMyur6r//3/+Nb2P15hsYTzfVJ8DjZJVTGTUN9peYWnKdO4RA475Y5cAkJwIL1fUsIVKEXJE9v5fJC5epb78xR/W6SxdUzkAlG6qlhdeFW9Prt/Pad7tuWozMwGBz7xaOX31ZlqsFSPQDP/mTOF1tcEoDCMABfNOuuNZ62nl6VD1wTRiheJhcLwHoXBA9a1Q39nji2Us4fOchuJNY0um3BmxPtuiowygopu74ynNthwLcM6oeUrUeK9nTtaRrZxmoOKYGygInqvcjXcRM/lqzufY9ocnYd1Hiflo0j9pdfxHiMjX3yUxmWch15zyoHCwLCKbXWvp44sU//hfYvvgqjDWAVqBrV/H+T/0KVleewVYz1ocRWycFXMzIJQfUXHne5ZW7r6YuOelhwhFwMtsv+fgMuRUB/bDCRh/g8U/9FC584HmpTdta3Pn8CzCnJ6kyPSUNpKlp3sqaowEjbEcTV1i+D9GNNr0IiEshSyxwGTRq6g5sUWbdkggUH39KA/DsGoLXYwAAIABJREFUg77VOEkLciUKjzxLJ5KeCc5OxmPfiGkMrjSvIcsc5FwpFSZOtrqX3h9fpphTNQDOoQZFjplbt3fEZQ1noFjgDFdbi1ufuwsMJMdqxhM/cRX6caBz+FOEqGXJegy0A4KM2VM+5uH/jpAzcVoGQiZmuf9iLRnnYVFMYBpB/Yhr7z8EXTIYRwsegK/9H9/B4anMYknL80EGihyA3wyJ9yHP8KoF5hUMfM9Gv05mE/iQj3fld4vBGAGMVdcU8a46nchOuj3q2B6EzoTNZTUC1HlKtlsWcA9j7SGYZq2ZlqAiCOZOVxcsmSDpFFgVrf6UBZsRh2/dxct/+jvA6QkMpAnQlSs38NTP/yIuPP4cXunuiWdUWVhlJ8w0ee4zV55AnsS1ZmurgEMyMbSe2TCS47ZrC6UI90C49IEP49pP/giw6kCnwMmXvoYX/80XsHpYg9+8VR2G3VhElO15TZikBXA9OsmSa1gfgU8RJO+1NjPDpTU75p+4AUnF2NGEkmeJCcgWUK6H4JAGYsWzfM0hAO/TbnXx0rYqj3WILZROpnmKY8U1+JXFYxw4PW8nVhDAKFNgfcaQrgggnxVUjkE0ZkKlTbJfuRvNooPC2q5x+4Wvg+9yiJusHj3EIz/2PE5Xx1FzJ990ih1TtE5wp9c+3ec0GF/eUp/NlK5TsRcsA+6xwfj9F3DjE49gJECRAr9m8eKXvwuiERajS6TR0FYarEmqq4uhzNDk8XL4Wn635BiGwhCyAOXyDWxxj4oERdTcjH681jPmWZ1fV3TJvb3014H/lREXtSXBnVVlVI0srxqd4Up8zUk2p1oBpGFNB8UdelI4Hu7jje+8gO/+5V+AyASokvVTj+L63/538fC1d2VFgiH9mPKkhV2aPROympOWhk+aZmFXmAC7Ylx67wfx2M/+OEA9YBWGV2/iS//7/4UrdgTffBX64YfrwjxtJ6wjQ6956WuvmVXxutPkgF3XL7685CAlXRqz0yju00SwpM8RcVHpjWb5i1s1/BWWAmRK5/hyltc3WVXxhDaPXy7AgHmXl1hC6e82aMe1Km2/nhWAwzeBz/9Dl9VFBmZtceOj78bV913FiAGGpcEVALATXsEQrYArhhTbvaiHqCMKwAAmwqXH1viR/+xZ8DWAlIYeNF7//Vt4WF2AhQXxAA0RcopUUBoUK9fd02uDFmx31ShN9yZSGg+KRcNeAcivPZ5TLf7kqYv1b5KUQi9+SzWCMACsYHmdH7Wqc65adpcXAFIBvmAFhGXH+fFncJpari1pkzvPyQgAKeO0pg7Ua4wK2PYG1DHU5hSv/8Fv4Bt/8mmABgAjSHe48dz78L5/71fx8BPvB5OC6TUGsoBi6C1hPcrejYoxEGeMWiWtjIGojVoVLRFiAht3DQ5TzH+olhehCOMauPKJn8Iz/+mnsHr6UWjVAcd38dLvfBr97bdwsB1gx6vi5iEG0AE9odeixVhlpTlWUZMhaCCJ0AShS0yHASMsj+Jecd9ZxeF5mCgGZUZesEoA36dEMWV1JsGtkMRR/O9l9EGaIyUfcu4ulU/KsOLq4lE+C6h8iSOsiHV/LX/JNTMUlHOtzcdACGY/l1ciGC1z+LQcwNE64ZAyLDskmUmWnLuKT9HbE/R2C4sOA2kMrr/JnRf/Esdf3gBGw8Kie1rjnb/yEYwP3YciX4dzAMYFWOqEUVIHRjd5nkthmhY6+nswoAODoOwGhPsYaQvpXG0w8pvg1Sm+7+eegn7yEEwEzYR737yJr/zeF9HxCozLsHQIAOitoDKf+OsmK/kES10o6V6ymSJMQO6hDW8XOxgX57JDEjifnDcgzbyk5B5le5ZM2SnOaoQImLrhz9KLqkIqPqpOs2FMgqpNeA/vmy5/DtbGDrWrMt7iY+bmbZ23c3x3G72rgyjLnqJ7d3H7X34a3/7TP4BRBkZJrkZ3/Qoe/5m/i0vPvgt8sBZ8LADD2uJES4rfkelxZHrAJjUqRcoweWaXWW4MXgFjb2GYMcDCOPC8sWOMPWPo5YHXrMD9Go994ufwyE99AurKBbBW4GGL1//sC7j7xc/hwmVJOgD1yWsqc1JiH7Mm+GdCEUGTgiYlBZqV2wFE54fIknhclqWXWQ/IGaDY5Pmnc5Uhk2cyGR/iFxeU6OKW+mBPkqI2/xgwpDp+X42vlIp7WC4sWXLLXNtzY09dXu6FrpzT2oUdFhlzFCjeQiMC8wjLzt314ohv//YfY/zuBj166E6hf/IA7/wHP4E7D4/S2563AE4dmOQhiO+D+DZiSrA8Tx62pbYHBAUNYGXvgewGrHpo7tHxKRQ6GDpCt76Bp/+j78f1n7uO8XCANgQ6AV74314D3z7Clk5dvEKSsuWplwryuBNW3F1708x9mvm79hj74wTTbDlETei4kr5zbxM9sJuLNSIEePmbs1KW1JkEkMeFVeQZKOSusZMCytZaAlv1DM1fABOsAy7Uo0F/9xRvfObT+M6f/RF4uwWRAPDpp2/g+37xP8FTP/1LuPbUe2GsgmaCUsCgGceHBvf7QVr8ptdHjQQClTDgQVxeSgHoGGbFGDupEek2CquNxjh26J59Hg/9wi/gxsc/Bnv5EEYReLPFK7//Gbz+G7+Jg+0G4ykwZPwmMaZVHVDPa7OeRs/1dvYXmJLtnBssveSZxIwMiHIGFSCzTJJnItPCkuAVMblnh0A7XgPiVjC+Xm0stH8+fy5nW05EwGu9y8d11dNpQsVMnQYlHevK+hOGdgFzBUPuAzi76h40W1yk6zj+3Jt4+ff+HNi67pxr4MoPP4QP/oMfhnrvCRTuoeMNet5gxIC7xAD1Sd3GvGQluOJJMpKkAemvIo29LkExo3+c8NSvPI8n/u4NcGfl3d4C3/iNV/DWl2+D9AE0DqB4C+3gdQaigIgA3yIb5JJ1onuTy0D7AqiV9rWQg7RKEw5iUvhO73ArFT+b4+2Pmezdtpe1a6m7j+KlACRWuGee1OoHX3xt3Zwt6A+mRCEjgDvOesVn5NYSXKAue0vVJJjLElHORWo6C7YA3bmDN373/0H3ylt4/G//DMxqDW0BvnIZD1/4MPQ73o+3fv+zePHzv4HDEwWYLQxbgBFqRTQ53hYV5nzP3FOkrLiS2DBGLay1g4bqFPQxYzDAyfo6nv2Zj+PyJ38Q/YUjWKOkRsMCr/3+v8Lr/+S3caBEkPWjICVvAGhaue55u9UVBsMwSz+hANbVZsJEBNvLPk+yilDRlDS7+oRyXvkEq6PBAzkZCt6o8uf7Ikz4TeeYQYfGs8wOhZb65osYg6DtHvPVtZKB0ae7jgIcQ6nVmsSen5V5yVS1LNn36IkQgVQr1LTSroH9RsZxlPubXQ08O5Ha8wYdrQEYdMw4HDq8+htfBx2NePqXfgyDGqD7Dpd+6Abe931/B9/+H7+N1//N13GINQ7YwOIKBhrRs4chAYiUS3cRl5WFhs+IMgCI+nA9li2UZVcIPMJ8+Co++J8/h+5RBq9GqFHyzv/qN1/DN37tO7hMl3C6GQGloXDqrtrCUo+exb08QJ6diJrB8T6zSyN284fH2cP5QDw84pIkzPWzp3CG/9uP4WetnSP1O4CWO+DdykkV/1+HAEnpTD3ga8JAqqPnz2EFqITJ+x7s1eMd1toCkNpw/KJkFDcvFCYCJyyfjKQSgqBGgFiYhVUGdFWBblvo4y1ufu6PYNcaj33oozDXr4E6DbXqMXYaVz71Mbzj3Y/h9c9/ERe+9nUM924BPGJQJmQ1EQVFuSow2VWF85pgCBgUQ48EazvobQ/19DWo9z6HD/zwj6B75jGwIcAqkB2BN27j5r/6LG7+f3+IdT/AjsDYMw6Ywj4xW8BYhIAoMLFVra/ATDYo27WK6hQgZZwg8anMnnn7miPiklXVyerE9O+kWyQDoatjOE65ki2rYrC9fCb8prsYCsBgsqDMykpWxQPg0GQ1G1iaCg4pFJwyC81bAOu4TxmGnf+3zBUtAAJj66yl+Z3pHKOy6KbFr6GDW1wXpcxwJ0mFPHOXWSfsqlh9iHpwzEtSfkcwSc5SB8KF8SLu/KNbePnOX+CxX34X1EAwBx3MQ4zn/pt34tKfPoo3/skL4G/dwWazhcIaCe4GwCMU5SzK599pECTG5YUAYTw6xMUngCs/TnjiU+8Er6wkSQ8WtAVe+81X8OI//hIumcvoYHCBFCQmKE2Q2WmZ5IEs4dMOJCYncEzyjFkohAImmmbZiOBuQ+c32/6yxwnzjZOBKfpamxSPYIpFrz5z7230bgU6kzCZEDlmvq9b0e/jgp0KDGgmWBSKBK2zoFIQrT3IFy5KTJNglYb0gVCgexa6UxgGC61GvPqZ38H9r34dD33go3j4Iz8I9CtAS0Dw4rvejQtPPYnx1j0cv/hNHH/5G7h982sY7rwVMsLmiFyR4hYGZFwPlYev4aH3fgTr557E4eVrWN14CKrrJX6sCaMxuP3dv8LNf/xb4K++jgO1weZQGEBvFLbaRkuLB2jVhz1iYFrl5IAViUV5YA3Ml1fu2FtfT0MMGkrB5FyQyT1W8DXdkZRSYG67FVhZgF29SyocRydAUilOTsglQkcquuvM3KcM12BXilXs+L0cd3QWWKVdrLNSWkhOcr6bdeaxIjZAwmj8OoktyqZadZLaBwUlChatMiAKAkKu1wiLDgQ7Wnzvt7+K29+5g3f9yg9CP9uDtAGvgesfO8LV9/8Q7n/+Nm599g5OvvIKhu8NaLE+CbjHSh+DNY7Z4OrlETd+9BGsPvoYrr/jIvShAhsLyw5K6XsWL/36y3jzT27hwuYhbDCCaIOO1+5+dk5IjVAMMIkCwK6fCxAt5LgWdllfGmOCQE3VDo1iBZbWCbmixLn76ueqPoth9N20R4nfmUmECROIe7DaolTlTi4OGLGB7Tk2d2q4uWznmU57Qtuxy0ySv1mxs0B2MFfarcVmVgx5o3S5TPbV3b6KHASYHgCMZBYZsWgME3RPAA/oFHDv9ndx7/f/Eb75nT/Bh/6dn8fquWdBqhMBe3AR68cvYf3IY7j+0Y/iSR5gXr6J+1/6Jo5f/R7u3XoB9MZ9jMZAdwp2tBh7C14R9KWnoY8Mrl14Dw6fuYEL730XcOMSvEGloaBGBgaSXPk793D7d/8YL//r38J6q2EPGVvFWG80FAMbA6y1BrHGKZxwBgnz3jLsRgG8BuEUliyOlTzqB8RYDR3UAJiVhV4JMi1GiHuKR5ysN7jXH+MqABoY3CkYtiATY1SKFUKBIEXjntmFQ1KXl78nBoAV8WUUoMdwe3OFrnh+fFq1UZIRRvCxvShElOu2J7c6yXgh5BhKvoEc9aJUVJ4p5Xp1Knb9PaBgqMPRuMVVd7xVzg3CGmo8xN21wsXjDY5ISwIsKRjvWmVJbTYwIHRQFRHuheyDJuMErCsi1NJzw3GkQdByLwgAxnCrCB0ABcnPcEyfNCxpHAzA3T/7Kr64vYl3/dyP4+iHL4KOJMOxu6pw5ePXceXHHgLMOzB+c4Nv/uEt3Prii+hv3kZ/quExxyRGI4Kkf+ZhPPsJhcsfeAfU8x1G7V2ZDIst1FZB3+8wfOMUL/zPX8L2eyZA5x94ZgJpKzw6y1O56nybxKOYLZi8K9AnSrgySp7mXLEdQErGWwpjUipLcO5HRXqHVeIbguX1ceQ7X1KXTavJSsvmUuNQS/wDu+nc3FwPRHMWykLLJRyLPY4vT3fV614ILZ1amwFWA+obf4UXvvu/4pH3fgzXP/ADWD39BLhXsCRuF81KTPnHH8WFJx/DJRCY/n0AgBlHDMMWYGC9WqFTXbgW1qJlSeSaJNNEMawdwdbAvPoGbn7pK7jz+c9je+vbWG0V1EDgHkEDt4rBK2lXRGqLLV+EsFCG7rbAimCOVji+9xYuGbkhFzQHxGHT2ZAUcEprrKmTfvCKoVjjcLPG1eEyDk7vw3SMrTuemDIrrJUZ+MCPc+NmiaHDEuepHBMBIeNv7SJwG5SMVKAQnDsSMWFYhhtwX/W4710fTLCGoIzBqbqLgGkFgjAF7Y7jbKnsmHPLTaX8+mtb0IifVIlFMYBqsYVcN985nIufGFgc0Q3YF+7hL7/9Wzh87j145JOP4OoPPAz7qBYhrwygGPSeDu94zyMgPCZv4BYY7AC6R+iOOlAP4d89S8KIGYFxEKGmFaxVsPc03vryXdz8w5u4+YffhGJCh4uzVtvcdQrUvoFRUdDGaA6q9wRwafYLJtUYYRM8NlU8W/LfNgLYLpLsrzXe7rLCB3Jz1WIe7Fxeas9kFlY8FU5ea0zGskrcVzUPR+gvktjdrCvj+uOTZAJL1mnOiPUd6cGKwEQgYydBe0sWWw1stMWl8RivfuH/xZt/8VlcePJZPPHBj+Hg/e90hXzk8t+B2LdCSHeA7vrweFoMLubgGAERRi2/KTbQI+P0L7+Kl//kX4K//SbG0/uwmy1WTof1WGkEiFVpxM9tIPECpS1w8za61RowDLsdsO620D3AIfOQotVI4qIi5tBxl4ZRcFsYIK0wHB3h5NKIQ0OubQkB7FKROY9xMLNAr1hA2Vj0Xr1TSRZXHAuhJTEgf3PQOB0MC5DVqSgVf4eTzQEUUhHYcsZHyOm5gZm7GBBYZQWRDMJIGgIFH1Nb5YK2WHsexILZRmRw0Z7CnG7CCGFRUJItRQTF7CwAiWtRInyia4QBDCDu4/2edXW59TUsEEWU6dpEBuyEUV7IyDtcY+xcKxJzMhgBuo7V8Qjz5W/j1a+9jFduHOHRH34aD33ycain1pJ2bgjofGSEwWsjTOqQYZJmX6wUtDHQ6DCuLLRVsN9jfPe3/wLDn9/GyWsEc8xgdQmEDkRcbT0OeLiVxPKbujgg9yVa0/ILh/+m7YvZGoBo4rIUVxehxtRjfYl2YspDyiT4X/CY0oUVjgEcGv38zRExc6hLs2oLdazwx//d/4LDz30Bm26A/uQl3H/SYtttqsHwucyupI9PlVQt46ri8ppzm02yvLgxp6270sL6GRlWl/VpgWV9g7HherM+JqywVits7KmYkc5zYHqFo8uP4KFHP4yjH3wH9MUjrC9dgTlYoycN6jRCINhCqr4B+Og0MwNmi+H0BHw6YHjrNm5/9s/x2lf+CHRqsLYaZiP+aSJhiEa7h9GIMNZEUFuEIKJiYDMSTg+uAv6htVt023tYKxYU104KYiwDKye8yTDsCpK4YABWPcgMULYDM6MfZO9txxhXNpQ3UJIH7PfMB+alvrP9DGHG+tUg1x+coVNBlfxb1zRDeWvht1liyhT32x8DgMogkm/tGoZyVkdwOSkMTkfTsMFqsOhhYdAzY9SMba/QbfrARACNQUlVRWetY0SErXuYdSXAb7PvvK+e2sIkDcaTDonNPu2bEC1HBkVhwZVAMeAYY/odOXdXcgwIlpwS477poDMI+hNS2D6ywUMf/ggefd8FrJ47BCuC6pVsd09QSouiOorL2QwMbA3GFwfc/MxN3Pzcy8DpAGGoHQaS8Ts6CPeVlM7g2HOK97UsgBWBosI1M0nMqLxOLvdCdU3LhKmuxxuHC0SYCqN0nmlBowiTVNBY6qD5xP21hiGFi+YlrO99Bmv7Rdw6uo8P/ff/LS6+79FzaXbywAH4uZiHh1BfmpEFoGpNsNMgawyHldz44Epx931xFph32Y3RxRV+gwTiFavg+mKthDlazmIs3UCwnQEswWjIgjuGGhj3X/8eTt96BfwVhfX6Mg4Pb2DzyEVc7teg65eg9VXQegwvLI0EtT0Gb0eMmw3M/fu4f+tN3H/rLeDeLaxHjUMmsNWAYWiXhsvWhiwmaxlKC0Q+O/87CLDKgi1hpTX68SbYaGhSYgl1wkwGtiBlAaOgXIjV30tsXGElW9C4BZSC6RkGBnatAGOdcBJGboqbZtPcfSKwK/z0yQ4Ti7ORMuyJSELlITZSHOfhaTKhQhCPkhO2TInb2PWY8cj8DIMsGO9jC04LDNoi+UBtzMIhEDZQIkAwQpPCSBqDISjDUDS6BAOFkRSsHbGC7wsvGWJpM7cWSY7RGP5aghXLHIEHyTH8ml0Yn/0cnoZZhSyvloXCAEaSPVol7XSPcQ8rOpIWu6RxCML6tUs4+ecv4Bv/3KBDh7Hvsbq8huoAc+UIa70CM8PcPYEaRty7q4DTO+6t7AEoV8WuofgECp1rF7wBo3eWqkbF01m5ZidkK+4PYg+BEjlF3c3Fbo9FOJQjkYvFlHuupQzaDWHC76LvxGwyn6Qd1yDxE3KwkYvcmudM55PN1SLvpmowdtuxCIFdd3fJE1AeX5JyrrRW/cnOIdsxFNMDJ/2A3hA6Q+i20nhHW41tP0J1wGgYHVmM927jzr23gJuMVyxBWaDjDuRTm52WzkogFpiBbhD4lJWSh8h0FmZ0PE07H6sDv1XasR6FkF1niDF2jK7XGAcDdAziLVYbDWiDcWXAlkGKsL0PHHQMtdVQRsGqHqAtbCfAFnpYw9gNNj3ALEG9njscbHy2kRM+bMA9SfA8wS3rjHLXFWs92CEFJ7Vyi8i411il2VkNEqts970nCMOoITO7kdxDrZJzpDJctHkKLg92/2+gsKIBQA8D42qMfBGcoNNaqr8HSxJIfKU4+/UtBh6PbprSoghjkw0We95crCZAJCPKj6Vg0TMD0DDUuf6Ma3Q4hMKAwWHjnRJwwFswgA0RNhhwODLGm1uxpl69j/sArLOmrBNqCgfooDDSgI5PoPkE4po8BDPB0BFAFpZdTc3sVkqadY0letwsU1yzH6755LEFKderZfLsWaDB9MmthV1bPieysau4VsgLoL8RYWKc2daefKBtqBNJqeqmqpDtdru8SmKdWzwh7bfh8rKas0Bvq06FEziQVLCwyzKrPRlem2Y4RuOgPmh0GuhoXTWBBAWxFoY6sgWNwuc6yhRaSLyQXdOrUV5Yco+A540szaJE85eFKYczxsR5nQUhIApb71ZSgFJOk2IAW3GH+cQlq1yQfHTzWsZqxYBVgknUWYRkT/8u0hakCAdZAfCAsYvacQwR2BCLIBCU1SJkXCFYKlD8PRNgSQUaxPqbKXoPG8nWBdgVwSrJ3ufCdVbeVgYkccm7vGrCg+DcGSnbcCoFDxBImmnRX5dkhsktkb8txmAUWVLBPw4QersNYzO8MBvTxDYMSixFL2BUaJ4bnWWzNBOMt+xhN5JrdTEKJjWxPohGcBX2O7XsXUwRXqQCcFAgjFjddJFjnZMKDJMqDFj0ccXsrANJp9bMjvFK1MozVMUbJ7TdeuwY2CxTX9kxiT+lLi//rfFFUS5+ZgiOZy5n2sq5zzxcFblsMKZ8H32H+NLZZnkEQUlBKdpCTOKxq0mMaA9A9zPR+URsKLqLzpX2HHfSHvccqVpbMZNGKb8juI4CVfp51PqfhOLsxvUT0RTc0INDaidEKpw4XUsryYeJXZaAf+iLgyoKnCKCmjCc6dhWRx7RyuzytRyA4/Gun0mNSmRmNQNNnLotJns+QRgWdx5n5lJNi6xDreym/c8JfT92UBUIctfYM9AwtdhhPt/8O0qQte9HFU0w+1VSI9plmB7Hqo46XPZAyUmqWCbkngVmK1BJSB1Y8+sNQwCT+qiyB4r0ozFQtTWEY3g2abjVSfTtpEXCpOdV9XtJG3V/7HjKWaHeA6WGJptSMe5cDxTxfydjEWLMscY0i3k9fleLPIqoZ+ECp1/R8pKHKhSQE2X4VimpBrgZVZSzgHWGeY9Qrc89gNx909xHd13ud+5Qx8XqEcwQ4/CBtMNqmloCDKNGlyk3s3B/dAdg5cZZwEFN5wT+6Nr9Kp70j/caZs3lZamuiHiBUn05eQAWNCnylO8MQxhWjQE1nhOu7R1PmI7vfaK4AghItmree1dOrZNiGjtM3W7SS356txlDtl9ef++YwycnCZaL0Gkz5BQBOVOiIK5ecbJOe7u4qFRz3Cm1/K1eEUy8G/CM3cfd6t0W014rS/VdsbPG7JoY1lkoHmamfQ1/3fD05xsz2elEbJ8X2v6yaMJzQj5zt03v7/T4FO1gl8CmxBXm1pLeE5+NFAPyialrOctcytbr1mh92iciYw+pyMq9GGln0JlwALlUV7YP5iFljXa8IlUWNMEa59pLMt/gMLMk0G/hM3CZXXjaWyLOfTPNlYmTCCxPoqWl81Njjf463Fq0K9mfCKJ4W4PDajIGwSXSsQvMU3IPamdJ2p54zKhZ1BiuJzi2dOYQihfn601aK7SuHqr03/tdzc9R7OohqBR56V8NC7E4smzZPE9p+wIvhNI4U+pG8tctTkDtULElc8p9n3RnVJC4CU/GiOm08t3MW8HWWbFUzfAiMDSPzoVZu6cOm2uy3/FlZ5D0PiE1TRNGcQd8M61Glld6XhlHK9hh9TUhH1mrIkifDz2wm8smLWiXtNq1u7orVlw7s6jD8TkLf9sZ11jm2qEd1khlLd4yqQZGFYVgsyUb9oKda8u7YHw6q7TqbVkQ8TP5LblGX9fTvN6FSKalyyusvxG0COMmyUNegADRnCcnIECIrXOVxHysd1QkmT6ly8R2SUjDWRxNl5dyVe7WWVaKQv+T0rVQy9TxmV1WRYvQOiuNlA9At/dzqcvLs6DoJmmdw8UHAVV3OqbvoTLV+lMgwHiCC2I2eqAo2BDPUrPXxWKhTBpqpTS17LSLeyj4jEF/vRFLqtbbRY7iCbKwZ99y7u5MDma76xAAIozz/RYLjguk3ponYM5iJeJKd8g9iG1yz9M552k5ytf+pBbrtHPMnIq/dSJcSkZNZ5CLpfuqpKkYnh1r8vdUwTh/cnMo2p2fEwSuZ8K1E3YMQg6bKvN173mNtThRFV0ZgMvOBADYsuAzDOiLOwDWBC2AMNXYCbMTMu76w3jpobohWLwlRJIyPPu8Lbj33sIh3boZ/qj9tb66q2JXD/n2PO2mXDzpRRbHqnw3+ZqLf5d/t8ZqUer2Kc3HkinXb1E8GwY+AAAgAElEQVStBbGtrmtuDQw9Gz+R9bW9316MTS3ueIjvzti4ZzvmT+fJ/uZd+54+kxZneT73oQ5QO33YTFJFrbbLuVEqRM4GW89AWjfghNSkmp2rypWg8DKm9S+Ndy2MXbMEXNV97bfMFWDbDwUnQjYUiZro8irrKTJrY4G71+pc0ZwIXwagaRaMkxMF0Xs0AjIA4t+1fzeFDHJmoLRyaMiuPsH3cQgSo7BKHRx4xsMJsl+Ngkaj86RLGXZ6rNWinfrue/GHeKLHntxJSaxBg6rownOUghjOTAK/GmVHWI8BBZto9zWSGgTf1Go6edq/oT2OYuPclP6LqZthDjSyrNlhtJhwTG+VpE5JNiHuqgy7nFMcOv5fbbeRt05sFZwxJY/BJWOJVWucRe0tcXE9+sxP8NQdxXasurzymXymWnJ9YOiAX6xC6jlB3GMKcEjBcQ8Eu2GA4sHddwUBtmkLtQelc8vmWtyrHcIoay1/s2MU6lKiMvc+bX/PdMWqbRllst5Brixaw7LaMgCY9jpvECvZ1+reJtdNu/Jt57R1TU3XV9Y7ngnMFLK8stVngoH8CWDYul+ezm44KlcYuVfjomSv5orzZ4dgC71XA6v9tUZljWMmyx5qxQOWBmV9Q62lRDSCdgYkc9cQOTdXrbo/atML5m7s3VKQV1+Nvy8pRPgcYoayHkpnxt3PVoRKg3TZdGuGfEbbvy20P2udcXfN0cTlteQ+7+F+qsUN2Au50phR9eOXroWJ28FIAriLQfrZoKUTUjYE4q3Ap9fGdC6byZoqxJYFC0wlDggGjJEsKSbeLVCS8aUPts2/143zEyVPXnEjGik5r7n3NRNg1Cjjeg03mW+yjtp0muOnIOtm9n7/WsIcWwp1CBMIjcn9dvdIG7DekYG1oO2voAznrjHJqPIM2aenlu6z/N+1OIUK6bAtd1SLGHmGyo7jrZFPQXPxE06vl2M/e+/yrK7J2Ws8yZSK//bdEb0A8XfT74XHw2vtyxJvt+axGjvyadUEhrYms2ZVJa4xvacxhrKLCBa64qrw2XhzlJbSvh20tzCxPYO7etBa2uIuH2tne96KxTMXjG/VTaRJAkuOr1LqpkJb6wlB90SDL2FaimHlmLQivFirrxlRikJ/kXBdrb1wMQcPcshAKNr2Afy56w8tkROaMPkUgDFJmUbi/bDOQmGWYHjI73FBbTjBLNYUOeywJOuHaGLJVneysRfWCS7FALSkC2cfd788TH2cGNGCTIQK+eOqSQCiK+bLsrENbEE+gDoNoqbBZVt8pnPWWviGVN+ifsTHGXy50y7+taSFbraW8IxwNVFA7kjODOdaCMMLgxBvS3ywk8WnexHvpqzfB/ZjDUe2L64mxQfF22yB3f2koGS4Nz4cIb9zNr5KBA4gLi+2xrX/zamVZNFeUT5PvKbyuDFzKtDO2Nx+dCY3V43RAM4tvePp5MRS2IuZe6KKlZP+ts94M8e2BGb4vSUcYkVeAgs+43gncQWlesqcp2yJ26W0OhhwdRfFgWfY/zRLTRhuZQAFcS9HFP3g7Y/X6bLZlLPIyMJqhumWPdyTDOyGKyzMx+17NjtjMmhuuVQW4Bw3crABeAgMRFJN2zUp0ZpA85ipheKXYiU7qmENeAYqFAvympo4mcCw5VzOEpkna7JjqJYvBR6xxS6oG0l3HqtCsTpfsKDqAl3WvZsIJtafZD3Y0XSL+roVgiggHpU6d2sxUCkw9c9BZPhxznhMco0zpIOV5Y9OBaO3ysoxWhbS+VAXlkF1QDk9KFiSTmJlCm4NUJHdb0td1FmyUeOcUPhXe3+ziZfN1ZyngHDZPZ6Hqufw77i0kqGz25epvsDOIknXNUkzzMaO/5gAXZYHcQ5y6Mf14wWYqdZzRY3v09811et3COL2Cm2CBcGY4Swx4fCR2P9nOqHvKe95iF+yl1LZ1XvJBXevyRXMPmBR8OSpUC69dBZWY1qP4MEh8yWXY3ByC5c8j/W6hzhj7fhluqRYzfFRmD7BkzPcrLJ2+W955i6crylptpP6kkQFm10TTb6VvZqsnctj6jSvluR3bqd4C+Ch5XXNryWqoKJhcrCoUlefxxh2v2XCa5djbz9Sgg0jiUQ1ILHVRsMoh9FTaI2cVsAn65vT6Evy8YvZWgldd2Gwc18tgVxhSo6f2790/TuupRQMaa55eZtakBRy/dN1+bGC2yzVfghpgXp9bQnm1SxRvAe1AZe6Lb1ArQYenWtOihilmM0CCABkyVqA4tqL4Vhjkrgwp/hKLQMFLRJuRpvt5dm0s5CVNuerLqEyGi6vkqIGXLqZGDV3F3PiZpz+Wvlun6CzQIgQGyiKz1b6ydbuKuMJqcvLx3e8XWrC54EogP4VvKn4n5BJPo0rZed6WnCP0ljadC0MZgPTQFYo5/QPcSY+WBIswPUwu4+xuahfNo6QTw6ICAMpAgZjV9HffrSTVZwV68p2y5h8fs6cUFk4Fs0Lpsmou4LxxfVzx5NdK60QDwrJRCEYv5MIoZgRyDGmynoRj0fFPO8S8+Om2WBzGEttV1z+51xiwY6qjunQJTMiCJBmNn0ptCFWCgqhqliC8bkUD/81XWLlonLMDvJCKOxlKwnhDLQ8m6t9HLGFskP9t+o5g/s8GM0rNWMWRzkbWSzKj3ek2ISYg9Tet1bIjX0R0jNKhhSoFinl1eOWEbMB26EahJe55q4/FRCxmDF/Dcbk2PNzbaW0k9OdXph/2GpowuE3qmu2zZiHO6eG4SXYXu1N2M8a2oEHVh7fEIw+flAy0BqjTXG9WgVO5LQ+T77AMQA4MgnSr2dmFM+ziXWTuQ4Ds86FU82CsFRPK25ZLmX8xPfemCsw9QF5AgVkKlJujQnj9//OAvu1dTkrrWiSGMgEW0h+9anTiimLGZXp15Y49EIJadwVziBJBDs0bRc/2UVR01zywu/PFPKAc/p9TVNnVH2X3MZ8mgSNwyQW5AqcKPgma+sT/C6f91BjK4oZupYU0MAcs8m7Fvu3eObqFLcZK003s6xGeM1fF8kbqQNNWRfLIlt4K3ZX6SuP3uDH5bGBfhDXMkcxwvL2UFUM6D0gu8RF1VggRcZddVNV0nY9WV0XRK2xquvaJ7NsL2smCsPZnPIwtgJr1yQnceFMGeW0ZwpRPMcquxMU0rvyUkBI7xYDcndZuhZ2+YzW8tlcXhxdC1Xrh5AhwTHY1Z8wDNtJHQ0rChaKdf8Lv/lMNXedRnNuoRXPVcl2maSwEa6VQHqcKdZh0pThRPhY4uCmK61DTrJk0n+DR/jixlmojZDlZYKra4ogu7+2n7rMxNPumCsbqUGpab9FoFt6t/galHxu0aBTUMLidxL1oUwb5oKZK5dMoJihXYMwoTinFyotl2G5Fr+eGGXIBYBy2Vz1sVpWikHNYmLn7tI+A89lf8UAvBMuDQGYwqwQgDzIaxcmKsBBvtQsmmS87sEtU08N9nB+5nsYbkecYjLtjMuFNVetFE4Z6AKaCKa5NSrkMaMd1zTJegKBlVSitrbdX9eS3bfKZnDu1fHSf1POKGsMnyA9Uayvcl4itL3LS0fLomlNELJ9I+TuvIklG47NeztMYkGJUeOaYIajiynzsRuUCZAanfn14PDZBdsep4qumKVWi7LDDoaTKEJhrJnnjmpzloKk8VtWoNdaO4MxokwZlqlHl2br1azpvGKp+C9MxqC1S9OtUSmky9jUXHFhfk0DFI/QC11RYb4kjheOmoFdmRsr/aX263yG4PlQZyBQFQoWGAT+lRPMjX6jobmDoe3svIHR2jrir++RUWZKpVlQQRAwXAMouHMacyaCo5qBlTCn6vvgfmBK5vOMbkGat8/+SsclkOtLXzS3cRAM0URAjrwLBMvX15x48qnDcagYQwlr3jOOGTLRKrEUpahphafMPt0jJqeh+3VbipaK+IHkvx1CdmpavxuQXIo5faYbGGDLACVwcmkwURoWShkCAW5CZA3RyyCT9RYaQOQyrOaecX95/jENQpFiEJ/IXZX7VEtDjMDouNatO6oawu9eBFBgDT6Dy1PqypTnjRPoDrlC69hy1ODSvDHFI+wO5No4h4OA8S2LfS95irO1iYu1+3N82rK8/LaKdhyqlQBgekzykEZxmWj62X6W6MuJBQyVNZiSs1pJ0mK2hlRh+CQPCzC5vVHB5Rz4A8m92gd6B5C9t0kGrk/YAMitWVK6DfVuzUHdwkptsRq3oFZfkDNSqLfO/alxgzeDhYLenQHla09alkGpdfqva4UTiaUy51rxc+5aG6h9TBZjSNTYxW4vJ/D8J42hTADsyDrMMQ83XcROvDDpMXnPmobQzLWB8qLPRVXv/ti2ilNdjLj7kOwfhz30rsBpLClO4k+dLJEAYgHdkL/dkaTyLo3OBUXFvUzYOib+KOfmCudm1k/sh+LjJ15GZcKkfHYgStOSLEOPMjwHu5LDrHvmaLNvkB2RnFm4gMpahNTqiedXNUHUnr6sCC/77MIYw0zpgDBCv1blssBSC6rUdGoVHZNLSP4b389ceMD9nWXQsQ0fYjuT+ScMIN2psDPhHJdxhehWlnfjLMWDJTQNJ+tm+KZgsnd5xYmmAYNyTGYXrtUepDIIAy2Dq6vX4gKN25KFxWStoLsn21ViHmd2G8TzU4EwF8NpzbU4a21mjPT3EJwvH76SY1LykqeFfi0h0YozLVx/yhfStTXTeufGKmMr6bUsOR+iuKTBeAamxZU+vdIDQzbmYC1ZXlkwfmZf/EgKYpWyBkrMv7LBVjomOXTkMt6Tui5SYMNs5gC5Mr9faaW2H0k+OXvMrypZagKVvvQRV7zN3WRNzULmUzwWj0H7eCILFZjn3LXngq2+dolZ+GLQliunHj8p1/ug5IPgLZdG8q4la/HeiWz9Re+JXSwnp1LIyNy+URqR3CsGobtwAOrOUZjIhInkV8CBFlNYA6CN8Uq1ZDXVaktSonjckgD4PrUis+Psys5KrafK+qvz146bSRoo19LK2mKi0PekFcD3QX4mnsLUVHp6hP7peqqApzUsOy05JMctun/xuEXJCOTudQcHswIHBumaUHnIlWSN1lXIywEWsKIpRrcKZfnzk3ThRh+UkOljHSwGM2AqoJDk18ETeJX6RTq4d1dX02SabIKVqhbClkRhkjKtmsXnjmcT4jOt2MFucgwg/ZTrCveQXIA+gQQp5p1NT0/mTDPjpO97/F8ujEyAMPGZU9U1NvZ4Sf+TuKw5DC1fw1L+ztX1+PfFQ/QEK4+nMCtpXx7/fBLXgvG56El3WjtLxc/TK4bq9m/x3CKVTmgUADCy0ohknz3jsD3D9juYhsKcLTulB7VOijHmgvGt2hLfQjhjvNVUWd5tqU2YIee/+RoUx/lbQWuGt/bKAqnGnF5rTveCkN2LKmhk+I3jWArSPnfXvSl+z4AhJ9AuHNfZO5aRAPSJ4cZB+KfnGTUCSsN0DOPAFkPfExV92X5Gm37hP0UPFIbL7ALEDdgRTCG8/csb2JfXtOaIEZg4o9H21x/oYVcWBoo9CcaUZ1JlC+DIbIlNs/5EcX1s0eYRMLzyMRlTOJOp9UPhO1sE4t3v3MLvqpMKFggVWV6AZ+SpVTSt/4qZaOW7piZ7zKi3+hWn2lwPFME+mw9iamvDY5i++ynUShmMTx9jRd55VQhq5PfAgtGFDEK47LfkHTfnGDPxo8YWrIT+od5fzwNRM07RyMZqke2Wack7+8nvQYuUpzmgxB395JctAjl/KBlYY27fXGuuoJGIYJTEAsp02MkyUoSC1jVXvrNkdwuipIc88/SRK2tv2PVXIVaVC3Rup16el32Q9rVPHLGAUi5lOU3wcACj1BigkbHtGmqF1SPWorRdMi2KqcI5E89dXm0mtmTsSBaAc42gHQoN5/tq7eq8edaeJV93EjXsFjEGEIYzuqIsCEWSSzb2VH0r51GuB3uttkYRzxY2zpMIg46njtApIOTgBEuLooCoeUN84oXl0T1/rj7mqAOtz0OLF1LaAsNoMIAkGk+M1dHjAANH2w79W70LKBZnklgos8wisWJaNSNNZlygA/teHXsRNdxXyZiT+Z0mRsVxVbfPVDFYRD6d1qPlslahle3EgikUh5C2C2cBKPmU5CHow5yESTtj8si9QAbBbolhLMOmH3YB9dY1l54hpoj+O9cDxYNC+qGdFPeQ3FzEYYLVw676xP9tHaAge2slpgnPETPEzeU7MlpxdXEQEnH2kEPlrUSXdOEVGL/nk7a/YYtsIv+m++ED8nMur5i1k35Tkk0+ya/MUHaESqwE6/bXIu3Znq5ukF+rCkTuTqrFJnwmomUGbA73QWRDD5T5tr/JlFXXTrhAADbUnwiAqMmuK6zLaeiMWNTKk72NowY7hK2g/Saf6jore1HCvjBLQJ4Bh6yQZpJNN5zt2EQZjsIETlkhMK0hatEIr2QoBtjex4E5gV5dgVqtdmtdC0lihcHMN4ACLl09dKsn3H39jfbZS9aQ2mb7nO/854XI3p8I7TW0xqsdVzv/jEoJITJaX4zoQI+mulJtjQnkyiz+FgHjLteY+94/0N5KIS2fDP6esNy1XM3eas+fuQU5MkhFSpKuCkHOziWbfOOsGCckaVKTOF2jn1t554jXlMVS0ZbiMe6/TOmRyfobVMr5Nr9M3TP7Pli1BzOV+qU7KnfzzdMujan8fcmxXPy9fDXL1lQcW7Uept+FZy64D+P9KF1g08+UpvfRryXfA2lyxtl59d4ky685V4DkbwJjtFuMZgvqGAdHK+jVHpXdO0gZYnSk0BmXrqqBw+ceBQFY2XgflvKFFrUgVObgWGqWxVlg69Mg/1w/FD+nVbG6et6y2T2WPz8NTntGu6snSnVIV9nvMbwImAiU9HxVxiwqQJcBsE/RFL5+Uplet9JaAfssq833dwFPr7FDnvLvYFfkePmoUqIU6wwVBcwhO6tKNb+Nkzylu0q7epnQHEuxdJBM63I8NEtSj5pm43khN0s8Ygm4YLyE6Fuf754YgQfnSMLaBJ8amx7vuy42H8uCOZSBbu/mIqIQt8iOT62bYKHMr5dcim0Iupe/I/2e6wxsNmbDQJZjiIqLUUjcYHWasghGLZlBqiryI8seKH7N3jqR58orQOz2XchW9lnxAI0RKwVYdOBHLkMdnmPMhN1i/YNiNNA9fgNvHiko7/K2AI0PaAo1Xu4QXO7ksyvOEFrTdq7epmJFzMZjiuN3AT2WjDdLh1WQ2MhcllsRRE6DbRPfZpLh1VyPCxVkQJDFMR7Dyypxq3AHwGV5lcH42iCzLYJbwEnOuqjeYy88COLy0lTfc43QqbGqv07uRYRc8b7ikNW1Kxutcq98Wrvp4if9rbjUQNZfW/HDHLrCg6Ll5sy6vF97dEusjDtN7RXGSthC8TakmbbHcAjDPGZu2baTwhZtf3nyiNaq44H4KMYxPYRI2TumLnB2W4Ex3XevrK8wx+hqiQQUMhcYyT6z9HQprfkIwZLUFk0KKf1Yri8M2DmbYgBf3KcbrHEP/XiMwY6w1x4BHRS58A9AqvdO3i6JsuoVHn34KowCtNEYXhubPT5mWznUjt9hWXBNGMwc3+x5PruGHUKrmG+XhRLGbQTdW0CRc2R0B6O7eiKAEwrZiGmGErFgeDmhkp3qzvVZa816lnT9lRoUa1laAFcYdouJtwAwJ9QjCCvDsZ7csIXSKr8/lAthP0fA73LB+Aze309ZZHbVyHTiliROxlC7kxY8pfETaJI9C8WcpT9fGMJSSpm+7x5Yy8yad8W0U4ZL6yIlESgls56O00Eym7i0RrKxSwYr/92V6ZX+rpmhK9eRw6nUr7OGM+bXFW1jnxFlp1le7NY7u1o/JmaRhiUgn+IeJOssiyn9vS8yy7QTTNGiIigCOmzBfBsDNhjXjEvXLkoG7zl5ukI2l4WCpTjulSffDaDD4XCA/lsDdCOFjLv9MrO4VrS465xd7qTaOQ/QQng3c92h9daIcIbsLgJX/COcjMXx0FBL4Rl/aTaHQ93XrRqfSX+KDL7FjT0XjFioYLBmeNSACSkAOtageLIOEmXijnPIwwqxMj5Uxxf9cpa0eZksp0AZPguJUTgPiY5agBU80/Z3yTPlhdTy5y8N9M9lRMUTEp94ZSxdVponrrBYd8KJdTKlMgtu3r3n3VTJ/lX6nsyReG18WW3xTmSWjzD/dv1JXEuNaoLDr7u5NjZZbVV1XF9tD3HhKN5g4FMoYqz4Ei5euVZPrDgjKau2ANnQNM7CgroBBx/7EF69KL7i1S2Ng/tH5zfreRNNIWaa7pyZMfwd3RkfmmOWhHoNyg4GG1xfnZr0QAmZX8XCQo1FMocFV5GFxRpBWVwLsjTt0og8GF9aJtnfvhalnG/OfShmRrSMwNk1hrqcEBuy4UX1WtukEM41qrKwMMn//B4xpCWw1KhwXoNSE/I+FSxNB0tT9JO06snZOvn4SYgATptE+Z8YUC5e6ZkjD1B2A21P3fcEO4EFmKPWxsfnR9kByg7QLH3TDQxsgzn7jKdsJFph+kAz6jDwhHGmMMc/11Xw0SzLS/rHMwZIyrAcPxJhJIKZaAmFZcUDAlR9USejXP2Jz+wKLQsQM73ykVO8K8fc7QjFNaBGL8wH1ISKdVlnIAPmEQYWI3FInknfj1Y81Wc/pojDI62guMMB30dv7oBxF2pzDyedxUs3Rqyffxr9eZklABShzNcX9evwiWfQd1ewsgrGbMHbzblNuoTO0lxrb9rX2jkHKV5rrpXS5HVYCLoXz99vkUsr/2UtC+9H6lIqWgFk8RP5Yp4U4LGeMu9W4YDnrJ4DITW51Q3QT92c3qeCZWO2l5mOZWsCpqBQf5K4wGudThVOd3RmLDONytXMk1dGVCnkdtDUzdUmgigBWVp7qQghPl95/GTBWhYfWS5sScwkpcS1lPRgL6ndAwXwgqUVzAdEsGlrXZ3/nFfGopa0QeG/BpYGjKRhlIayr0OrUzBGHFx8BP21a05Ing+fVeQkrFXBswB0Cv0jh7j6zHWsGbj0OgGvzTzQhJ0V8SntW7QIoOqO2XkOYbaIcVLLMuO+8okC+floM9494fB9NhL7IVUOpe1prlIeECbrg+8+dpI21GLXQjcb02Wv1YTlXDC+DSdS/J3saxAk3k2lkn8XYwu0fXBJQ5HK0I+CZVOL28ylJjvrcUHSEEDybvi4XNppMSX/vSV2vSvKtXCutHFMZQYgOcSVccnSIoanQhZW+u9Wemk6nitgc02p6uO2mN7Y6IFSZoNJAFmXY7GtuvX8OvOAfJv/KBcvqcdNIjKA5Kulv7PA9GRjzcyDXPi0kAnmSVxe3hKaq5RXrqBRvNf+7tjIF5LMrrgmANyD0IN5AwPGCAULi6Ptd3BxuAnNhGc/8j7QRbhMunMSJikHISC4BPTlDvT+d8HYNdZbBbw+oDvR7XkLTXGWRFXZeeyku+LS8Yu5fKaYXYArJrGNRKPecXzTnTOzHwGOZfZaWF5KNYjrK20R6//Zy8cyO8wr+S3t0AgAyqroQiDvAkzGqazTpwl71tPiu0GbLLT4vYgQsrzQaIWbzt/yQLOifJ/KaYr2wCpl5rvus/sopeZTlFHs0wQMk4KASuf1/eRbLhLdCBKnx6X1EN4aiNXbc3fRD9Gav3n3UQd15OhOSsgX8mUtaGcl+vx6JYFhcOtA9RNdTCOsSwbQbOrdGt3xnsm3AvOT4zEWQlKudUl1/CSjLHO/JcDxDvlBPm13HgAoDNDYglwmS89baPsaepyCcYI7Rxo3PvlhYPUA72yFFEgKZpSFM5mkFpb6A1x/5ztw69olGN2Bvsq49NIh1NCe3fb7QYjsrKCv0Bww5BJwQlsE5ieFkSlVtN69kgEIs/sxAY108YNgnWRjLQOH9JYYOYFSq45PBWbr/HCookzrrl6Hi6G03ElhTm+dNNYfqHBZhUpztlCkqq68JoBn4U7JoFmcwiCtJnhnZldoRkYNBcIfV7i5fAKDdfsU643kEwUaT6scgaC9txngPNWL4KZqAoGz6vjy/HpqLDfiBP7kuubrEyuU6+vSBGEkE+pQ0krvfAV5p0bNEjRX0KF6JpJFCMyz7OlckDQFrPQuoZiYUHcrS/xkeVaexxwrr4pDFpyMlcZMUouRbV6jZF2URxQLBc0nuDi+hNX4Bu73hKvvfhb944+7d+r80rlkFJ+J4RZqoQANXP3+9+HC1edhiNFjRP8ysNquZwf0QJBLyfb7u7zaGj/2j2tU3FdzVGu/AqDZ6nYvYmRMdnKZKSP0D1JlNaGgcUna0jnF30KK8S7Lzx+/D1MsnndFBD0TkGZN4QOlAaXByfFlD5SzGPmL9jash0NSRmDfaZdMkhjKkjE93MrZKTLTfWmuS0kOCJlS/YdJvITtXgx4nmLQfi4TrQ3jXx6HxEGWWhK7I5Tz8ZPWhKmAa3QtRV1JYLawbGB5dAjBCh2fYmVugYctTrtDXP3ZjwNa0OBbGZ9nIQXWYNYYCMBIINYgUhiIoa73ePaXPgxlCdfvXsDxl98EvTJAjVQtYgxKCAF2xbvdRADUQFBnLIj0dR1ZfQdNM7sm56mpAJuMk9LC5QWX18LjyeSczAsSiYvER1z8oAwaLXJ8dfc4SzM1kCHQ4NyV7ndFBJyhnXE2hxINssyPT0c0hmENSzfEGUr3p8xOIQZgWGDgWZIyy7iHYesCuQxNCppUdbuJFRRrGOXA7dg4jc2tO+tk6U+CZHbNYMZZtnENPceEisK/YhVnQJqGOMvyIpPpb8HdI/BiuatDtIwBvgcKYb6hVh0QsqQa6q/Tene2/a3si1cmqsRTl1chOMVKAWBH+ew5f9n2VzLQ8iw1XZyxaFySbo8+uyuKEXmuyiy3dHwBaRz3FpLkgUwbS/WWvdhIDpaJjYBBkoJSPUAaIzFsdwswf4XV+F1wP+DC84/j2jvfD+5XMMxi0ZyTDFejA9PrmPYpF4QAABS2SURBVDB2AkOvQehYmNTFn/ghXPiB92LbES5v1+i/aHB067Ca/kojCYP0f59TbIfLXu1vM9UC7WetWZk9bkFvFKB45XW99kTmZVfpLr/b1L3TGpuwG07dHcdq6sIpXV9UCLvmnK3vfUW7KlyEidXDjunOz2FhSbQvn2BAmSmgwEQuzjI/VkbOlRdcNIpAHSb9JtK+E+01TvdiCmnjXZs+bTj2QJldZuKOmVkBzouTEBvQHhYPLYpHeJqvP0mP4yRmpF0PlLr9sGz+FgBlafFEGJoHJ29x+BoicT9GV1va6nxCbDHwCIseHRiX+Q0cDt/CYE5wsiI8/PG/hYNHrsBC4n+t3i9nISWgg6Ih+SGVBcgwuCPgkHHpp/8OzJWLOLqvceFFgF4xUNvpxdgVZ0LGrjh8Wi/sot4ou9wntXGTSuP2MQ0htYsZVmILs8fPpDmnLpBsbWQzRm0Vw+xCPvAM38O7dFGgCGpwI35CmPQtqbrynCGVtrHNzGQtVs0SgRLnKbKuCBIz8Y2q0vG7/DzjrISgw1diXCCALIO8xRS0MQ+u1yhuVdy0UhiAOYOWVKtJkfsyXfPUJegZZWlNzFPeqXE3xMiuMVsZTASLnRI+CS7PucxkGYzYAyVaTbt7oJTZWUZuY1VjSpWVacJA+Ak5ArAN12ADLpcX3qqI34TjeA5C3q9Trje+X1Ls6bPItDWZi7Pu5jLooNFjBNm7oFtfgR5eBfQpXrpwFQ//7E8CrheQMVYU03NS1JX2ayFgBUZn3Y3rXH8Hw7j2kSex+pF3gw4u4uh0Df0Hx7j03QvQYxWIqR6kp8ZL6+YOgqcBVz97foMY2B1HoYUCpRJ0nRu3rK9wjtc2Jb/5Gom8/WsymcucaqUJT9YdTpt/cJiStNuGwEw155anOYMu8QCOhbJdugP9tQTARsdQpSlY2mwL1WvwGWwEcvGHZA0uy8s4d1/tvs0+J41nJHVFGgdLXzvOC12dpgz76/fW1gwaJKUH+pl5cFlJteDtdKVpfGAqUKZtdAuv3YRq8C0RQh8VgMPasuZa7SJDPhBKQBd90L4RlC/PIx6hJwF5yfLSCUDi3Fg+c23KGooCSJhqHYqPn8yyI9iw5/GO5K7gznWTjEpCDgjJfB9rcxNXhq9gRV+DOjzB8eOH+NH/+lfBBwbQgIGV9+QsmnqDlF9qKKsn+T/v/oIlqEsHeP7v/TzuPHsVgzK4bo7Af3wXF19aQ28LDkkVbC24l3VJoJ3qx9XqPBaNtQvIsXSnhO93xxk8w/VulN1r4QAhUhsrMpbKes7iL3QuLE7L3ouspQCBDySFRguGVjE7CZA4NyXrT7PFWm7CMqYWam38s6do+m5riIVS6fPi3U8CuYIJbD1ZX8vjX7pkH+ZiXYRqL/iyWpqpXpfjrbkJJddfwz+bLqMuSX1QvhWYz6FRWu6vlCmL9UZ2DKi8cy1/MxDCJG5RvZzErRIAIWee7bS3S6smonRDsYtnTI8zTqebqxq2TdePd3nV3WbTxIbaPstjPX+98oo6V3V4LuK9YbaTwHkEhDRYYYPB/iX6zedxYO7iXtfhyqd+ARc+9B6wlip7uZ4pTOaDkPJjMYABBEMQTQyu09yBxFL6Jx7Be//+r4KODqHvW1x7pcP42WPwlqf3161tYjXyHuueebGb6tLM2LbD/s21lpLXopdcm+ePOxSCVBuvF9+Rm3NanJcJHsKk7wkjurxK32vsCeLWsTCus+/9CGtZcAyFF6twh7nEgzDWDnkbUIYVZD9UgYpU3JNdjbVS0kqFT4uq0Cstqri55jZ035ThqcurJM4+04qjOXdZ7Zjy90jeTdR0uyW1KPJc7rbEavO3q73ZIfumQnF+9GVzlvdr177klFoo+aPpywcoVMmLMiuFkJ25jf7+92BxC9oyrj/zQTzziU+A9QisNbgjdLlOeS5EvAstLKUt49V/9of4zq/937hx6z6O+QS33svgH1zj5BED08+0DE0yvZbC2ZOdP3YuC4wKvKldcabZjDJ2DI3jWHPPQ4Z1xZV5E75QZnQB89dMThqFnukJflQLRFCNlLOizBStrd8dVq6LkaFHs63ETRCZvz+fnTZXC9lU96e8TnaDcfwtCEH/bjYeveo9Z4QYSjYWRMioIU5HQO59ssn9SqVNGjS3rgrerc33ZUmz4by1EvbPZ3eBJhvPmQxNNEmq9WAADJV5S+5+VDXymBEUSYff5siqOL9tmLSC4dWgzDSVygierB2Ah2FR0RwlSL+beE3kFJNSY4+BxnE29TqapmaSdk7BtGZQlmaezhjvmoxV4nelZKkdAGV0IT6p2cF5kgZhK4IDBKYVOmf6GwK2/SkOtse4aO6g23wBa/s9mHGE/sC78Nh/+UtYvedJMEnDNxAc7p485JrUrlu9iPaLQnSER37mY7j6038L37xgoO0Kj3/hAIefZqxeWceX3THD1DLx7qZ9MqN21azsrGgvxzprHxiqu56Wnjv33b5Iwi2sHqauCSHicc5CdhcBXOXsxTKLeWqZRww04di9haMUNRFOW1kpWWGj4+gREDy5TvFbLL6GOF77HJtA68/qkQ3kZOUKFI13XVYOIxRQ5M4tOIFd8QfXiJel0C7r25FS3hRqCbX6pC8m3zqg/Bqo3kR2WkgOuXI+qnYOW1+uJwbjPaJwi+ay2xS3sb28gqHdczQS4xiAwQCLERLnGcC8BUiDmbA+vY9L46vo7n8avfkW7upT0LufxJP/1d9D//2PQ0HJ80YALEMbt0I1q1fuRftZJmCYrYE+1firX/91DL/9Z+A3b+NkNeBkDdhPrDA8NWJ7ySxikmqYauXV4yqZY8WyJsi3pWWS/dawUlTFSkjnSK0TmaO9pAkSb0MDz9bL7b+zYwttGoDUoPh/1ywUBmhE7u5KYwb+PDeuSnhJiTKcyQ6WF1sXT2S5PmbAWpaU89o1NXjX5FpMPEiVWkmEYSrGcP+dXAtn15zVPriYauZZS4yGrL9PMMH8wihYP6nVxpaKpIpooeiQKucslfTeVCQapdZDAQZaWiYpcZJw6slW/eZeSrffo9QykbFTS6FyfMtKYVd44ywA4+YNxaXw947FKqgUrLILenFAAPVXkVsAFgip9fXXqwu/TZCak+CrTfZYChrDKt35BG/h+bysGpHqYJoZQH4tktzR8QpS3y4ZY1YdgnlEb4/RnX4ZB+NfYNUd45QN9PNP46m//8s4/OCzQO/xF10SiGFAUbB+zqkF/P7CxFoGjxZqY/Dm734GX/u1f4qHXz+FAmNzAbj/MGHzYYW7796kp0lzoTIgauaZvqedwgTORZDWuMyN6xXGQhh4y6/VCGwyLsdzJmuuzL8rVT4TIF54NbEKC4HCLv01cQUBOVMPa7VTZ5gE6RPGmrj0ak9I6fJSuxRkFndNyKWpMf2GQMmEBiO4lybCZIfLSwNTCH6niJBjQkzINNygeBTr4tZzIn4ZqFLowrm70rmza4zChAB3LxKBUuwXZcxJAQlzmxMmcZm5MMnRrfzqCgCxgkph4sdtCZS2y8sz4ehOCmORzl203saiMrnY3T9WhRvKP3EVAQT/OpTjRCGQ/ZYIEwaFNaRuLlmFW0uSWtASKKQ658WtNwT2LjNxbbm0Y9fzocN9aHoR/fE3sRpex4pPYHoF+oF34In/4pexfv6GW5AOiAvsBF+HgrecAxLGnsIE2MKic7fRjhbbz38XX/8f/iccvrwFm/tQCnjjwhbHn7iA7inC5mgTng+7qmzXQuuEDO1kxmncY5GQqncCjWPwdJzWuLW1lQzXH+ddxRNhtssyKuZWrLIHOYyTWCkThguExJNJ6qWdzq9MXZjIb6nWHdFyianqFiQmGMNTF095XLEvVaFhuX5tgLSNaJB/nX1R8lSYeGEatQQaMREMAMRZXSPrXFXk1xkFC5fPA0SQGGLB9bRRCRCh0hYofgRpIxE18CXCJD0/VFFXBUE7za0mTIAzxk/cWkqN01JXCJNITGVbKQKznsQ08hmmsNn1WMpuoeLFiLdggmGaCerEmilTECHCBABsVZi46bASbDxsxQWHDdb2FvrN13FEb2DYvIHDg0t4nY9x9NM/gXf8x78IPjRQly/AsJGEaEuAUhiVZB+ufHHTOcEpAWcQJvJwu02UEbD91jFe/of/DPijfw1s7sFoAhuD48c0tu+2uHdlBK50wMMKw0HypieaPVUYWbZQi6pzL7UM0jHCuD4Y7AAdU+ZOYzHO5FqnwqDlCqsG2d387bGLMVrCpGKl1FxdEYVwDOepCfNKNWDXjjZcw7wwIUYWNyFv4SRWjByXMM/4DydoEOZPFuX22TkLbHxRwzw81S7J5q69QKmSkEnZyHo4ESZk3HxJGltmnTSESci2tk54Mpz650xfkLjSULFSXCDU70lYv0nW5VfrC0/LNbCbI1gmXiMWoVgGf1vBYAkU539HmjLA4Cai1A2WKBaZeywtsvMa9tR9RqzcK5Pf47Sfj82eCm+5FMdXhEkK4l8TJkwd0pRxfyQjCgnZTx9IU2FchN9S24kmY8j6dXKMv9E9vEDnbE4f51JQvIHGCcaRcUB3sB5fAo8vAfwWmAygNbbPP4SrP/NxPP5znwTWa6mSR7SWtGFAJ4FAx07OUZbsKUwYAKxsJglvH2HRsQK/dYLjr3wDt/7p7+HeF76Co/tSI2xYwVxmnPQWx9e32K4A8/QK/TOQ2IqrKZngVHXO7ZJoqWWWkxStUvZ3vDDKGXai9AS3RXAJTcduUSpM0vkmSnJyTM3lVQo9YF6YePLXG91Y/goAn+FAvI1MnpMxbJ5jTxCLoqwLUsMMLlAl3bt0mmnPfGerOlMLxAu1hIEnY2rjM6MmhSPxnw2FxCsDNFL2gqX3HhbQVuf8LfGH1ZpWAYAa3e9MGXRNuD4nWPy9oKTUnRXnik1yr3xchYBMuEyoxLF3QqVdFpd+77VuYCjiDF4oxU9+YVOrM4KTmSJ+k7rj8gymVNOPwoUBFzOZHjeoHBql1k63bpmkjL7S0Kci4Bg0sVgYvrJ1ur81AYnEuknJQsPSAKlf79GzdTBFLAWJMOgwAjyAsYXdvIkDdRfj8CaUuo3DcZSaGXWAO90JHvoPP4VrP/mj6J66Blo7uJ+lBWPnSPsJEw8PpGwwjTUkJurBCbutwb3f+XO89n/+Huill6C2p4Dl4EHxr3OnO5xoizvrDdApHD1+BW/d2IQHdX0ZoaBwXDvNbFL4mGsS+feF4PEv5Yz7q+dVYByja5kK5C9yNS5DkJc+1do5YXAlMerMwTSsmAZVwTZZSVFTK9ZSMGRigArEglb8o2ONkUy2BxqC4DuOBkorV2XvGAMz7JAPJpZSQ0MuA9l+exdCPgXXkMnvP0FBjwQeOQhfShhO+bTowcIox/CHyNgVuXANU5ajTyCwtTNWKE3O8RlwhGlqdVgU53+eC/HaBasR5t95SqYxE6bWStTE0321IIx0UFgbai/EZRlHVeMN2dS1DfI6lju/xeos9VW9Z7bOaNZlF088qaD+HkAD6J0NaUB8AsIJemuh7ZuwdoAxb6Gz96F4BBMH9tJBY1Qa968fYPUDH8L3/Qe/hP65C7ArwHQA2RFaK1DFony7aW83lyBxkjeuReu28joaz+gtYF/b4P4XvwTz1Vdw64svYPzOK1gfn7obNIKVltRJAJ3WoK3JMIoMQbS6pDg7WzgIxuH1C/mHTVRwXZa9k2mn93qNMP0qUXLrelI8T8oErBTEOeqdC2jp5oopXjDT6qTuqyoDEsN4TIrjdpmxVvGi3EDvQLHFYrybJvvOF+4xXD+GcrB5uPXgviIXw0haynLqw1c2+y0lnuDWW1g1whAcJEWsA7GgSSOjUXEIiWgbbRPiOgNuJeqp4PrKNY2AmOAsrkkBWZoKTWay7+dF2lZDZU2q3e/2wQSzR/tdL1it+2NXiafVFB5dVcKWUV6krAzQzWRTcllrwcAcBhjPMutYEJo+r5T4X03ntVsVPAEBBEOJV0YUDoEGGmmF4ZFDXHzXUxjf8Qwe+5EPYP39z7sGbz4obWA6b7GdpwNrGe0tTAzggpbeT0CAEq2SFMEaC+tcYASAR8DcvQt9e4PNl1/E3S98Ccdf/AYO3jzFuLkLxghNCtZaECrSPnVHTFY/tH6pGOczWCEzWs302BrjEubzbwu17LUa9YuwjfxYDKPeRvOZbVN7fFCSl7RebNY6oSavjanvl9b1fTGmkkVEPCnwzSyjbVd8O6ItrpZTp2rxD8ZWt4HUUyJLUKPeQ6wROr3nuvd5eFF/csfKnmti5ylYyGSJF9Vi7SK2BlR5Z/J2vZI4ACacdkcw+hiDYmwPHseTTz+Hw3c+jAsf+SHgqQP0Vw+hLqyALiYjD5YBpaCgoIwDWv3rlyX7CxOG00wMg4lA2vWYsAwop/GBADM6uAorBYNQMVMGgL4PjC/dxenrL2L81lvY3HoL6uZbgAW2wxbGGmCw4FMLRQytSFxmyeOzIGErXihFSGeL3UxL67rmYUwtbauCSmojFHbw6xJgtQouDFX0OWjCy0+C+4xKrmigspBq7kqZSHzUFc65j4zNU6hSP1XJGNuk1ILiujm3RvX4aD6SURUHaHs4qvzK+Z/uwDpa03lS9GguYvuN76fntup+Wucvg4Kfm3HfM85vZ6fB+nlFaj9RUvhmHelEkNChvAtqXEPhAsAdmHrYh7ewlzqs9WNQj3Xon3kMB+95HHr9/7d3bjsMgyAY/nGH93/gtewCUZuKxS3LspXvromnGpX6S/EOviU8mAEiXDnpmQKQcsili0qrcr9Pcfv/BWPSohs50gf19KJsaNQDSWXyrCvUbq9eEBJMwdhvN/vqrWv03ESY44VBPNRYHWn9a4A/ryP76E27H4pWgVYCK5TuUYWjOmaNCcpI3RTART6DyGrMJQJxr1Hdf24g2/CeSbFvyTumnSf1wfHiloEw83oGp5X2oClTqff99Xkz3aesae4MjebtQAN/7tZ8FrmbSM+qWKRcQuNI25xRadWUI1xkefQbvfaWMQmCf4BzxGFxxyQsq5wKpkHQxiAItsRsCU7Psi5gyJXDalhmPY6C4Ow8AczP9KfTGWN2AAAAAElFTkSuQmCC;" vertex="1" parent="1">
          <mxGeometry x="264.40999999999997" y="180" width="131.18" height="61.19" as="geometry" />
        </mxCell>
        <mxCell id="JdCS6cSA7xMhqchfe1WI-25" style="edgeStyle=orthogonalEdgeStyle;rounded=0;orthogonalLoop=1;jettySize=auto;html=1;exitX=1;exitY=0.5;exitDx=0;exitDy=0;entryX=0.5;entryY=0;entryDx=0;entryDy=0;" edge="1" parent="1" source="JdCS6cSA7xMhqchfe1WI-19" target="JdCS6cSA7xMhqchfe1WI-24">
          <mxGeometry relative="1" as="geometry" />
        </mxCell>
        <mxCell id="JdCS6cSA7xMhqchfe1WI-19" value="&lt;font style=&quot;font-size: 18px;&quot;&gt;전체 요약&lt;/font&gt;" style="rounded=0;whiteSpace=wrap;html=1;" vertex="1" parent="1">
          <mxGeometry x="480.0000000000001" y="75" width="120" height="60" as="geometry" />
        </mxCell>
        <mxCell id="JdCS6cSA7xMhqchfe1WI-26" style="edgeStyle=orthogonalEdgeStyle;rounded=0;orthogonalLoop=1;jettySize=auto;html=1;entryX=0.5;entryY=1;entryDx=0;entryDy=0;" edge="1" parent="1" source="JdCS6cSA7xMhqchfe1WI-22" target="JdCS6cSA7xMhqchfe1WI-24">
          <mxGeometry relative="1" as="geometry" />
        </mxCell>
        <mxCell id="JdCS6cSA7xMhqchfe1WI-22" value="&lt;font style=&quot;font-size: 18px;&quot;&gt;화자 별 요약&lt;/font&gt;" style="rounded=0;whiteSpace=wrap;html=1;" vertex="1" parent="1">
          <mxGeometry x="480" y="181.19" width="120" height="60" as="geometry" />
        </mxCell>
        <mxCell id="JdCS6cSA7xMhqchfe1WI-23" value="&lt;font style=&quot;font-size: 14px;&quot;&gt;few-shot learning&lt;/font&gt;" style="text;html=1;strokeColor=none;fillColor=none;align=center;verticalAlign=middle;whiteSpace=wrap;rounded=0;" vertex="1" parent="1">
          <mxGeometry x="341.18" y="250" width="60" height="30" as="geometry" />
        </mxCell>
        <mxCell id="JdCS6cSA7xMhqchfe1WI-24" value="&lt;font style=&quot;font-size: 18px;&quot;&gt;최종 결과&lt;/font&gt;" style="rounded=0;whiteSpace=wrap;html=1;" vertex="1" parent="1">
          <mxGeometry x="640" y="130" width="120" height="60" as="geometry" />
        </mxCell>
        <mxCell id="JdCS6cSA7xMhqchfe1WI-27" value="" style="rounded=0;whiteSpace=wrap;html=1;" vertex="1" parent="1">
          <mxGeometry y="-120" width="30" height="10" as="geometry" />
        </mxCell>
        <mxCell id="JdCS6cSA7xMhqchfe1WI-28" value="" style="rounded=0;whiteSpace=wrap;html=1;" vertex="1" parent="1">
          <mxGeometry x="790" y="390" width="30" height="10" as="geometry" />
        </mxCell>
      </root>
    </mxGraphModel>
  </diagram>
</mxfile>
